<svg xmlns="http://www.w3.org/2000/svg" xmlns:xlink="http://www.w3.org/1999/xlink" viewBox="0 0 23.17 27.6"><defs><style>.cls-1{fill:none;}.cls-2{isolation:isolate;}.cls-3{fill:#aa6130;}.cls-4{fill:url(#linear-gradient);}.cls-5{opacity:0.6;fill:url(#linear-gradient-2);}.cls-14,.cls-26,.cls-27,.cls-28,.cls-30,.cls-5{mix-blend-mode:screen;}.cls-30,.cls-6{opacity:0.5;}.cls-23,.cls-6,.cls-8,.cls-9{mix-blend-mode:multiply;}.cls-6{fill:url(#linear-gradient-3);}.cls-7{fill:url(#linear-gradient-4);}.cls-8{fill:#d1864a;}.cls-8,.cls-9{opacity:0.4;}.cls-11,.cls-9{fill:#9e4a1b;}.cls-10{clip-path:url(#clip-path);}.cls-12{fill:#592d1a;}.cls-13{clip-path:url(#clip-path-2);}.cls-14{opacity:0.8;}.cls-15{fill:#120a08;}.cls-16{fill:#23150f;}.cls-17{fill:#351f17;}.cls-18{fill:#47291e;}.cls-19{fill:#593326;}.cls-20{fill:#6a3e2d;}.cls-21{fill:#7c4835;}.cls-22{fill:url(#linear-gradient-5);}.cls-23{fill:#ffbda1;opacity:0.7;}.cls-24{fill:url(#linear-gradient-6);}.cls-25{fill:url(#linear-gradient-7);}.cls-26{fill:url(#linear-gradient-8);}.cls-27{fill:#c49d83;}.cls-28{fill:#ffebd0;}.cls-29{fill:url(#radial-gradient);}.cls-30{fill:#b57343;}.cls-31{fill:url(#radial-gradient-2);}.cls-32{fill:url(#radial-gradient-3);}.cls-33{fill:url(#radial-gradient-4);}.cls-34{fill:url(#radial-gradient-5);}.cls-35{fill:url(#radial-gradient-6);}.cls-36{fill:url(#radial-gradient-7);}.cls-37{fill:url(#radial-gradient-8);}.cls-38{fill:url(#radial-gradient-9);}.cls-39{fill:url(#radial-gradient-10);}.cls-40{fill:url(#radial-gradient-11);}.cls-41{fill:url(#radial-gradient-12);}.cls-42{opacity:0.3;mix-blend-mode:overlay;fill:url(#radial-gradient-13);}</style><linearGradient id="linear-gradient" x1="251.19" y1="249.4" x2="251.19" y2="261.69" gradientUnits="userSpaceOnUse"><stop offset="0" stop-color="#dbc6b6"/><stop offset="0.79" stop-color="#e89142"/></linearGradient><linearGradient id="linear-gradient-2" x1="251.18" y1="253.59" x2="251.18" y2="264.4" gradientUnits="userSpaceOnUse"><stop offset="0" stop-color="#fcc595"/><stop offset="1" stop-color="#7a381d"/></linearGradient><linearGradient id="linear-gradient-3" x1="253.04" y1="249.4" x2="253.04" y2="261.69" xlink:href="#linear-gradient"/><linearGradient id="linear-gradient-4" x1="251.17" y1="245.54" x2="251.17" y2="253.06" gradientUnits="userSpaceOnUse"><stop offset="0" stop-color="#ffad61"/><stop offset="1" stop-color="#dd8433"/></linearGradient><clipPath id="clip-path" transform="translate(-239.58 -236.66)"><path class="cls-1" d="M262.73,250.12a4.51,4.51,0,0,0-1.79-2.71,11.51,11.51,0,0,0-2.88-1.72,17.23,17.23,0,0,0-6.68-1.36,17.45,17.45,0,0,0-6.74,1.21,12.16,12.16,0,0,0-2.93,1.62,5.29,5.29,0,0,0-2,2.6c-.69,2.49,2.73,3.19,4.46,3.39a66.49,66.49,0,0,0,13.75,0,11.39,11.39,0,0,0,3.15-.74A2.36,2.36,0,0,0,262.73,250.12Z"/></clipPath><clipPath id="clip-path-2" transform="translate(-239.58 -236.66)"><path class="cls-1" d="M251,244.21c-5.19,0-9.59,2-9.59,3.52,0,.52.48,1,1.32,1.43l.13.12c.35.4.09.94.3,1.38s.6.12.79-.19.34-.63.82-.58c1.15.12,2.29.47,3.46.57a1.54,1.54,0,0,1,1.41,1.5V252l.07,4a1,1,0,0,0,.08.49.31.31,0,0,0,.58,0,2.79,2.79,0,0,0,.19-1.23v-3.38a1.6,1.6,0,0,1,.25-1.07.5.5,0,0,1,.92.26c.06.36-.06.72,0,1.08h0a.51.51,0,0,0,1,.06,5,5,0,0,0,.12-.69,1.35,1.35,0,0,1,1.19-1.14l1-.13c.42-.06,1.09-.25,1.45,0,.59.47.31,1.42.24,2a1.06,1.06,0,0,0,0,.47.44.44,0,0,0,.33.3c.38.06.51-.43.51-.7a4.82,4.82,0,0,1,.18-2.27,1.61,1.61,0,0,1,.87-.71c1.42-.5,2.29-1.14,2.29-1.81C261,246.09,256.22,244.21,251,244.21Z"/></clipPath><linearGradient id="linear-gradient-5" x1="251.35" y1="244.74" x2="251.35" y2="247.56" gradientUnits="userSpaceOnUse"><stop offset="0" stop-color="#ffc9b1"/><stop offset="1" stop-color="#ffaf8f"/></linearGradient><linearGradient id="linear-gradient-6" x1="251.5" y1="243.02" x2="251.5" y2="245.6" xlink:href="#linear-gradient-5"/><linearGradient id="linear-gradient-7" x1="251.45" y1="240.04" x2="251.45" y2="243.13" xlink:href="#linear-gradient-5"/><linearGradient id="linear-gradient-8" x1="250.28" y1="241.41" x2="249.94" y2="233.51" gradientUnits="userSpaceOnUse"><stop offset="0" stop-color="#ffebd0"/><stop offset="0.12" stop-color="#f6dfc5"/><stop offset="0.34" stop-color="#dfc1a6"/><stop offset="0.63" stop-color="#b98f75"/><stop offset="0.98" stop-color="#854a31"/><stop offset="1" stop-color="#82462d"/></linearGradient><radialGradient id="radial-gradient" cx="250.92" cy="243.21" r="1.15" gradientUnits="userSpaceOnUse"><stop offset="0" stop-color="#b57343"/><stop offset="0.13" stop-color="#ae6e40"/><stop offset="0.31" stop-color="#9a5f37"/><stop offset="0.54" stop-color="#7a4629"/><stop offset="0.73" stop-color="#592d1a"/><stop offset="1" stop-color="#592d1a"/></radialGradient><radialGradient id="radial-gradient-2" cx="279.9" cy="248.5" r="0.92" gradientTransform="translate(13.08 -45.19) rotate(8.24)" xlink:href="#radial-gradient"/><radialGradient id="radial-gradient-3" cx="282.81" cy="252.09" r="1.19" gradientTransform="translate(13.08 -45.19) rotate(8.24)" xlink:href="#radial-gradient"/><radialGradient id="radial-gradient-4" cx="257.84" cy="251.28" r="0.87" gradientTransform="translate(3.81 -21.12) rotate(3.48)" xlink:href="#radial-gradient"/><radialGradient id="radial-gradient-5" cx="320.74" cy="252.53" r="0.68" gradientTransform="translate(55.2 -117.4) rotate(23.82)" xlink:href="#radial-gradient"/><radialGradient id="radial-gradient-6" cx="233.33" cy="225.4" r="0.68" gradientTransform="matrix(0.99, -0.12, 0.12, 0.99, -4.36, 49.09)" xlink:href="#radial-gradient"/><radialGradient id="radial-gradient-7" cx="284.61" cy="243.42" r="0.68" gradientTransform="translate(15.47 -44.07) rotate(9.32)" xlink:href="#radial-gradient"/><radialGradient id="radial-gradient-8" cx="174.05" cy="207.52" r="0.74" gradientTransform="translate(-5.7 140.54) rotate(-27.52)" xlink:href="#radial-gradient"/><radialGradient id="radial-gradient-9" cx="285.54" cy="266.49" r="1.34" gradientTransform="translate(36.49 -81.05) rotate(13.92)" xlink:href="#radial-gradient"/><radialGradient id="radial-gradient-10" cx="285.71" cy="258.89" r="0.94" gradientTransform="translate(36.49 -81.05) rotate(13.92)" xlink:href="#radial-gradient"/><radialGradient id="radial-gradient-11" cx="229.41" cy="244.45" r="0.94" gradientTransform="translate(-3.87 32.33) rotate(-7.12)" xlink:href="#radial-gradient"/><radialGradient id="radial-gradient-12" cx="300.1" cy="249.4" r="0.84" gradientTransform="matrix(0.96, 0.28, -0.28, 0.96, 30.92, -83.2)" xlink:href="#radial-gradient"/><radialGradient id="radial-gradient-13" cx="251.11" cy="239.26" r="29.9" gradientUnits="userSpaceOnUse"><stop offset="0" stop-color="#edddb4"/><stop offset="0.33" stop-color="#b49e82"/><stop offset="0.64" stop-color="#866b58"/><stop offset="0.87" stop-color="#694b3f"/><stop offset="1" stop-color="#5e3f35"/></radialGradient></defs><title>cupcake</title><g class="cls-2"><g id="Layer_1" data-name="Layer 1"><g id="_6" data-name="6"><path class="cls-3" d="M260.43,251.12l-20.58.08,0,.19.81,2s.5.68.5.71,7.29,2.35,7.29,2.35l9.62-1.06,3.49-1.75,1-2.61Z" transform="translate(-239.58 -236.66)"/><path class="cls-4" d="M261,252.45l-.31.12c-.22.08-.73,1.06-1,1.13s-.12-.8-.32-.76-.42.09-.63.12-.49.89-.8.93c-.09,0-.32-.77-.42-.76l-.57.06c-.19,0-.47.84-.69.85s-.29-.78-.48-.76l-.6,0c-.19,0-.4.88-.67.86s-.33-.81-.55-.8l-.51,0c-.19,0-.36.82-.61.82s-.37-.8-.58-.79h-.57c-.18,0-.36.78-.61.77s-.37-.77-.59-.77H250c-.19,0-.33.73-.56.73s-.42-.75-.62-.75l-.55,0c-.18,0-.31.75-.53.75s-.43-.79-.64-.8l-.58,0c-.19,0-.37.64-.58.64s-.39-.72-.6-.73l-.64-.07c-.19,0-.27.61-.47.63s-.47-.73-.67-.77l-.64-.11c-.21,0-.45.44-.64.42s-.46-.71-.68-.8a4.59,4.59,0,0,1-.64-.28l-.29.5s-.72-1.26-.86-1.52L243.51,262c1.34,3,14.21,3,15.32,0l3.74-10.89a8.52,8.52,0,0,1-1.16,2c-.12.08.12-.89,0-.82Z" transform="translate(-239.58 -236.66)"/><path class="cls-5" d="M256.94,263.45l-.43.14,2.31-10.53.59-.11Zm4.43-11.17a3.59,3.59,0,0,1-.34.17l-.31.12h0L257.89,263a2.33,2.33,0,0,0,.52-.38Zm-3.78.95h0l-.57.06h0l-1.8,10.62.41-.08Zm-4.42,11,.9-10.7h0l-.51,0h0l-.73,10.72Zm2.65-10.8-.57,0L254,264.1l.39-.05Zm-4.24,10.88H252l.36-10.73h-.57Zm-2.73-10.77h0l-.55,0,.9,10.71.39,0Zm-1.75-.08-.57,0L248,264l.39.06Zm-3.17,9.18a3.68,3.68,0,0,0,.52.38l-2.8-10.36,0,0a5.8,5.8,0,0,1-.62-.27Zm6.66-9.06H250l.36,10.73h.38Zm-5.26-.26-.57-.05,2,10.58.4.09Zm-1.8-.2-.59-.11,2.47,10.46.43.15Z" transform="translate(-239.58 -236.66)"/><path class="cls-6" d="M261.41,253.09c-.12.08.12-.89,0-.82s-1.39,6.67-7.31,9.14c-6.48,2.71-10.58.61-10.58.61,1.34,3,14.21,3,15.32,0l3.74-10.89A8.52,8.52,0,0,1,261.41,253.09Z" transform="translate(-239.58 -236.66)"/><path class="cls-7" d="M262.73,250.12a4.51,4.51,0,0,0-1.79-2.71,11.51,11.51,0,0,0-2.88-1.72,17.23,17.23,0,0,0-6.68-1.36,17.45,17.45,0,0,0-6.74,1.21,12.16,12.16,0,0,0-2.93,1.62,5.29,5.29,0,0,0-2,2.6c-.69,2.49,2.73,3.19,4.46,3.39a66.49,66.49,0,0,0,13.75,0,11.39,11.39,0,0,0,3.15-.74A2.36,2.36,0,0,0,262.73,250.12Z" transform="translate(-239.58 -236.66)"/><path class="cls-8" d="M244.29,245.87c0-.07.1-.1.15,0a.09.09,0,0,1,0,.13s0,0-.08,0A.22.22,0,0,1,244.29,245.87Zm-2.73,2.76v0a.15.15,0,0,0,.09,0s0,0,0-.07a.18.18,0,0,0-.1-.09.19.19,0,0,0,0-.07s0,0,0,0-.06,0-.08.07C241.3,248.65,241.43,248.84,241.56,248.63Zm2.19-1.58c-.19,0-.28.23-.08.31l.11,0v0c0,.07.19.05.2,0H244c.05,0,.07-.07,0-.16A.37.37,0,0,0,243.75,247.05Zm.6,1a.06.06,0,0,0,.05-.06l0,0s0,0-.07,0S244.3,248,244.35,248Zm-.63-1.76c-.07.05.05.2.13.14a.08.08,0,0,0,0,0C243.88,246.31,243.79,246.23,243.72,246.28Zm.36.42a.08.08,0,0,0,.07,0,.05.05,0,0,0-.08-.06.09.09,0,0,0,0,.06s0,0,0,0Zm-3.1,1.14,0,0s0,0,0,0l-.05.06Zm.69.09a.11.11,0,0,0-.08,0,0,0,0,0,0,0,.06h0a.1.1,0,0,0,.09,0S241.72,248,241.67,247.93Zm.38-.16s.14.08.17,0a.06.06,0,0,0,0,0c0-.05-.11-.09-.16-.05a.19.19,0,0,0-.06-.07l0,0,.05,0a.18.18,0,0,0,.05-.07c0-.14-.19-.08-.26,0l-.24.14a1,1,0,0,0-.24.16.16.16,0,0,0,0,.07c0,.08.07.12.15.11a.35.35,0,0,0,.14-.06h0a.21.21,0,0,0,.12,0A.69.69,0,0,0,242.05,247.77Zm-1.29,1.39a.16.16,0,0,0-.1.05.25.25,0,0,0-.08.1l0-.06s0,0-.05,0-.05,0-.07.07c-.13.22,0,.41.13.19v0s.08,0,.16-.05a.25.25,0,0,0,.08-.23S240.78,249.16,240.76,249.16Zm.65-1.13s0,0-.07,0,0,.05,0,.06a0,0,0,0,0,.06,0Zm-1.77,2.54,0,0a0,0,0,0,0,0,0,.25.25,0,0,0,0,.08A.07.07,0,0,0,239.64,250.57Zm1.25-2.47a.3.3,0,0,0-.14-.1,5.64,5.64,0,0,0-.54.65h0c-.06.1-.13.2-.18.3h0l.15,0a2.29,2.29,0,0,0,.5-.22l.06-.06c.08-.12-.14-.11-.22-.1s.12-.18.08-.25a.62.62,0,0,0,.31,0S241,248.17,240.89,248.1Zm2.68-1.94a2.18,2.18,0,0,0,.57,0s.06,0,.08,0-.09-.16-.16-.17a1,1,0,0,0-.3,0h0l-.36.18,0,0A.45.45,0,0,0,243.57,246.16Zm-.42,2.38a0,0,0,0,0,0,0c0-.06-.15-.1-.18,0S243.12,248.63,243.15,248.54Zm.07-.46a.13.13,0,0,0,.05-.15l0,0a.12.12,0,0,0-.08,0C243,248,243.07,248.16,243.22,248.08Zm-.92-.18,0,0c.11.09.35-.08.22-.18l-.07,0h0a.25.25,0,0,0,0-.15l0,0s-.06,0-.08.07S242.22,247.92,242.3,247.9Zm.51-.56a.06.06,0,0,0,0,0c.08.1.36,0,.26-.13l-.07,0h0a.91.91,0,0,0,.21-.18.21.21,0,0,0,0-.06c0-.14-.19-.08-.26,0a1.82,1.82,0,0,0-.23.15l-.14.09a.14.14,0,0,0,0-.08.06.06,0,0,0,0,0s0,0-.07,0-.22.19-.05.18.05,0,.08,0a.39.39,0,0,0-.1.08s0,0,0,.06.08.12.15.11a.41.41,0,0,0,.15-.07Zm.54-.09c-.06,0-.12,0-.17.07l-.12.1a.17.17,0,0,0-.05.24.21.21,0,0,0,.23,0C243.41,247.66,243.59,247.33,243.35,247.25Zm.13,1.18a.36.36,0,0,0,.14,0,.21.21,0,0,0,.15,0,.21.21,0,0,0,.1-.06,1.28,1.28,0,0,0,.33-.06.11.11,0,0,0,.08,0c.12-.1-.12-.15-.19-.16h-.21c-.08-.13-.25-.26-.38-.15s0,.1,0,.16v0h0l-.07,0C243.35,248.33,243.4,248.41,243.48,248.43Zm-2.36-.34a.07.07,0,0,0,.08,0s0-.09,0-.08a.08.08,0,0,0-.06,0s0,0,0,.06Zm.44-.7c.11,0,.23-.1.2-.18a.29.29,0,0,0,.2-.07h0a.27.27,0,0,0,.16-.14h.08c.1,0,.28-.05.33-.13a.06.06,0,0,0,0-.09.3.3,0,0,0,.14,0s0,0,0,0a.07.07,0,0,0,0,0,.07.07,0,0,0,0-.09.1.1,0,0,0-.06-.05h0a10.45,10.45,0,0,0-.91.62l-.21.16A.07.07,0,0,0,241.56,247.39Zm-1.43,2.15,0,0a.37.37,0,0,0-.23-.28,2.9,2.9,0,0,0-.16.41.1.1,0,0,0,0,0,.2.2,0,0,0,.13.08C240,249.76,240.23,249.64,240.13,249.54Zm2.09-2.28c-.09,0-.14.1-.05.13a.29.29,0,0,0,.16,0s0,0,0-.07A.14.14,0,0,0,242.22,247.26Zm-2.29,3a.28.28,0,0,0,0-.22.08.08,0,0,0,0-.13h0a.12.12,0,0,0,0-.1s0,0,0,0-.05,0-.07,0a.09.09,0,0,0-.06,0s0,0,0,0v0a2.36,2.36,0,0,0-.08.45.17.17,0,0,0,.14.11A.2.2,0,0,0,239.93,250.21Zm1.44-2.62,0,0c-.07,0-.18,0-.14.11S241.44,247.67,241.37,247.59Zm.58.41c.14.07.43,0,.2-.14s-.33-.06-.27.08A.11.11,0,0,0,242,248Zm.77-1.37s0,.05,0,.05a.06.06,0,0,0,.06-.05l0,0S242.74,246.6,242.72,246.63Zm8.54,3.11a.28.28,0,0,0,0-.13v0a.19.19,0,0,0,0-.23s0,0,0,0-.06,0-.08.07l0,.1c-.1,0-.21.06-.16.15a.15.15,0,0,0,.16.05C251.09,249.88,251.24,249.94,251.26,249.74Zm-.16.28v0s0,0-.06,0-.06,0,0,0A.06.06,0,0,0,251.1,250Zm-.48-1.68a.12.12,0,0,0-.05,0c0,.09,0,.24.15.2S250.77,248.29,250.62,248.34Zm0,.28s-.06,0,0,0a.06.06,0,0,0,.08,0v0S250.68,248.61,250.65,248.62Zm.06-1.15v0s.07-.11,0-.15a.12.12,0,0,0-.08,0c-.1,0-.21.11-.15.19l0,0a1.12,1.12,0,0,0-.18.2l0,0a.17.17,0,0,0-.11,0c-.17.07-.22.2-.17.23a.08.08,0,0,0,.09,0h0c-.1.14,0,.27.14.12l.06-.09h0l.06,0c0,.06.08.09.15,0a.14.14,0,0,0,0-.17h0a1.31,1.31,0,0,0,.22-.32A.19.19,0,0,0,250.71,247.47Zm-8.12.57s0,.05,0,.06.06,0,0,0v0S242.61,248,242.59,248Zm6.77.7.07-.06a.12.12,0,0,0,.11,0h0c.09,0,.18-.08.19-.16a.08.08,0,0,0,.15,0,.13.13,0,0,0-.08-.15l0,0a.12.12,0,0,0-.05.05.22.22,0,0,0,0,.08h0a.23.23,0,0,0,0-.14.19.19,0,0,0,0-.07c0-.15-.2,0-.26,0a.39.39,0,0,0-.1.08.21.21,0,0,0-.05-.22l0,0s-.05.05-.07.09,0,.25,0,.27a1.54,1.54,0,0,0-.17.19.19.19,0,0,0,0,.07c0,.08.11.11.18.08A.27.27,0,0,0,249.36,248.74Zm1,2.84c0-.06-.16,0-.15,0a.17.17,0,0,0,.07.13s0,0,.08,0A.11.11,0,0,0,250.38,251.58Zm.08.23v0c-.05,0-.11,0-.11,0s0,.05,0,.06,0,.28.1.24a.07.07,0,0,0,.06,0,.14.14,0,0,0,0-.2s0,0,0,0,.2,0,.21-.07a.07.07,0,0,0,0-.06C250.67,251.71,250.47,251.69,250.46,251.81Zm.23-.32a.11.11,0,0,0,0,.09c.12.23.37.26.25,0a.29.29,0,0,0-.22-.15S250.7,251.47,250.69,251.49Zm-.16-1.81a.08.08,0,0,0,.05-.07s-.06-.08-.1,0a.11.11,0,0,0,0,.06s0,.05.06.05Zm.54.73h0a.06.06,0,0,0,.06,0s0-.09-.07-.06l0,0a.12.12,0,0,0-.11-.08h0c-.14-.16-.33-.15-.23,0h-.12l-.26.11a1.13,1.13,0,0,0-.27.13l-.05.06c0,.07.05.13.13.13l.09,0v0h0a.15.15,0,0,0-.07,0c-.1.1,0,.24.09.19a.36.36,0,0,0,0,.11.3.3,0,0,0,.24.08s0,0,0,0,.08.1.15.11h.05c.06,0,.11,0,.11-.09a0,0,0,0,0,0,0v0a.09.09,0,0,0-.06,0l-.09,0a.3.3,0,0,0,.14-.21.49.49,0,0,0,0-.12h.05c.05.15.2.2.19,0a.2.2,0,0,0,0-.09.42.42,0,0,0,.08-.21Zm0,1.8s-.07,0-.06,0a.06.06,0,0,0,.08,0l0,0S251.08,252.22,251.05,252.21Zm-.16-2.59a.13.13,0,0,0,0-.16h0s0,0-.06,0S250.82,249.75,250.89,249.62Zm-4.72.83s0,.05.05,0a0,0,0,0,0,0-.07l0,0S246.18,250.42,246.17,250.45Zm.28-.07c0,.08.17.15.19.05a.06.06,0,0,0,0,0C246.59,250.33,246.47,250.3,246.45,250.38Zm2.7-1.33s0,0,0,.06.07,0,.07,0v0S249.17,249,249.15,249.05Zm-6.43-1.4-.05,0c-.08,0-.17.07-.11.13S242.79,247.72,242.72,247.65Zm4.68,2.16v0s0,0-.07,0,0,.06,0,.06,0,0,.06,0a0,0,0,0,0,0-.06l0,0ZM245,249c.05,0,.07-.05.07-.1l.05,0a.05.05,0,0,0,0,0,.07.07,0,0,0,0-.05c-.14-.07-.29,0-.18.12S244.9,249,245,249Zm.31-.6a.21.21,0,0,0,.23,0,.31.31,0,0,0,.12-.4h0l.07,0s0,0,.05,0a0,0,0,0,0,0-.06l0,0a0,0,0,0,0,0,0c0-.07-.18-.09-.25-.08l-.1,0a.09.09,0,0,0-.13,0h-.05c-.09,0-.21,0-.3.08a.34.34,0,0,0-.06.06c-.05.06,0,.13.1.14a.43.43,0,0,0,.16,0l.18,0,0,0A.16.16,0,0,0,245.28,248.4Zm3-.75c0-.14-.21,0-.26,0a.86.86,0,0,0-.15.22h0c-.05,0-.14,0-.15,0s0,.08.08.09a.34.34,0,0,0-.06.12.11.11,0,0,0,0,.08c0,.08.12.08.19,0a.36.36,0,0,0,.1-.11,2,2,0,0,0,.24-.43A.22.22,0,0,0,248.28,247.65Zm-.17,1.34c.09,0,.15-.16,0-.17h-.05C248,248.87,248,249,248.11,249Zm.64-.94a.21.21,0,0,0,.19,0h0a.15.15,0,0,0,.09,0c.16,0,.4-.14.15-.19h-.1c0-.13,0-.29-.12-.32a.12.12,0,0,0,.09,0,.94.94,0,0,0,.09-.12,1,1,0,0,1,.07-.15h0c.06,0,.1,0,.1-.14a.47.47,0,0,0-.06-.15,0,0,0,0,0,0,0,.11.11,0,0,0,0-.08c0-.09-.12,0-.18,0s-.33.13-.19.26h0v0c0,.08-.1.16-.1.25a.09.09,0,0,0,0,.07s0,0,.06,0a.06.06,0,0,0-.06,0l0-.08a1.29,1.29,0,0,0-.08-.26.18.18,0,0,0,0-.1.31.31,0,0,0-.13-.25s0-.08,0-.1h-.06l0,0c-.16-.07-.39-.1-.48,0a.19.19,0,0,0,0,.2.54.54,0,0,0,.16.2c-.11,0-.26.09-.15.18a.16.16,0,0,0,.1,0,.24.24,0,0,0,.2-.11.41.41,0,0,0,.17.05.09.09,0,0,0,0,0,1.46,1.46,0,0,0,.15.46h0A.16.16,0,0,0,248.75,248.05Zm-1,1.44a.17.17,0,0,0,.1,0c.15,0,.3-.26.05-.22S247.56,249.41,247.71,249.49Zm.25-.32a.06.06,0,0,0,0,0c0-.06-.16-.1-.18,0S247.93,249.26,248,249.17Zm.07-.46a.13.13,0,0,0,0-.07v0a.19.19,0,0,0,0-.07c0-.15-.2,0-.26,0l-.1.09h0a.68.68,0,0,0-.52,0,.52.52,0,0,0-.18-.1s0,0,0,0,.29-.16.15-.22a.11.11,0,0,0-.08,0l-.07,0a.24.24,0,0,0-.06-.11,0,0,0,0,0,0,0,.18.18,0,0,0-.06.08.4.4,0,0,0,0,.15.09.09,0,0,0,0,.1c-.18,0-.37.05-.41.15a.13.13,0,0,0,0,.06l-.11.08-.05,0a.43.43,0,0,0-.24-.08c-.2,0-.49.1-.5.24a.16.16,0,0,0,0,.09.28.28,0,0,0-.2.11.19.19,0,0,0,.05.19.72.72,0,0,0,.48.22.2.2,0,0,0,0,.11s.08.07.19,0a.33.33,0,0,0,.2-.18.26.26,0,0,0,.13-.06s0-.08,0-.15a.44.44,0,0,0-.18-.09v0l.11,0a.17.17,0,0,0,.07-.13l0,0a.2.2,0,0,0,0,.13.7.7,0,0,0,.38.33.16.16,0,0,0,.1.13l-.08,0-.09.08a.42.42,0,0,0-.38,0,.19.19,0,0,0,0,.19.4.4,0,0,0,.12.19h0c0,.06.06.08.12.08a.41.41,0,0,0,.11.07.06.06,0,0,0,0,.09.15.15,0,0,0,.12,0h0a.26.26,0,0,0,.25-.2.31.31,0,0,0-.1-.25.58.58,0,0,0,.11-.15.14.14,0,0,0,0-.07h0a.1.1,0,0,0,.09-.13h0c.13-.06.21-.31,0-.23h0A.32.32,0,0,0,247,249l.11,0a.18.18,0,0,0,.07,0,.74.74,0,0,0,.26.15.14.14,0,0,0,.11,0h.16a.24.24,0,0,0,.18-.25v0l.07-.08a.07.07,0,0,0,.12,0Zm-.45-1.55s0,.05,0,.09c0,.25.21.37.21.13a.26.26,0,0,0-.12-.22Zm5.19-.3,0,0s0,0,.07,0,.06,0,0,0A.06.06,0,0,0,252.77,246.86Zm-3.1-2a.06.06,0,0,0,.06-.05l0,0s0,0-.06,0S249.62,244.89,249.67,244.9Zm1.37,1a0,0,0,0,0,0,0,.08.08,0,0,0-.08,0c-.13,0-.16.15-.08.18a.77.77,0,0,0-.13.12l0,.07c0,.08.09.12.17.09a.33.33,0,0,0,.13-.07l.18-.14,0,0a.09.09,0,0,0,0,.14l.07,0h0a.26.26,0,0,0,.21.15,0,0,0,0,0,.05,0,.14.14,0,0,0,0-.1l0,0a.51.51,0,0,0,.21,0,.25.25,0,0,0,.17-.25.24.24,0,0,0-.06-.11l0,0a.11.11,0,0,0,0-.07h0a.14.14,0,0,0,.13-.11.07.07,0,0,0,0-.05s0,0-.07,0h0a.05.05,0,0,0,0,0,.11.11,0,0,0-.07,0h-.06s0,0-.11,0-.34,0-.23.15a.18.18,0,0,0,.09,0h.11a.06.06,0,0,0,0,0h0s0,0,0,0v0l-.06,0a.67.67,0,0,0-.44,0,.09.09,0,0,0,0-.07s.08,0,.13-.05a.24.24,0,0,0,.08-.3l0,0h0s0,0,0-.06a.07.07,0,0,0-.09,0v0c-.11-.09-.3-.06-.31.09v.08a.06.06,0,0,0,0,0c0,.07,0,.15.09.18h-.05s-.09.08-.09.11,0,0,.07.05h0Zm1.78.4h-.06c-.07,0-.11.13,0,.16S252.92,246.38,252.82,246.35Zm.32,1c-.21,0-.35.1-.28.15s0,.17.08.14a.14.14,0,0,0,.11-.11.32.32,0,0,0,.2-.11,0,0,0,0,0,0,0S253.18,247.33,253.14,247.32Zm.11.26c.11.08.34-.1.21-.19l-.08,0C253.27,247.38,253.14,247.5,253.25,247.58Zm-.51-.33c.13.06.31-.16.17-.22a.08.08,0,0,0-.08,0C252.72,247,252.62,247.19,252.74,247.25Zm.24-1,0,0s-.05,0-.07,0,0,.05,0,.05A.06.06,0,0,0,253,246.28Zm-5.35,1.57s0,0,0,.07,0,0,.07,0,0,0,0-.06Zm.08-.15,0,0s-.05,0-.06,0,0,.06.05,0S247.73,247.72,247.71,247.7Zm1.89-2.56h0c0,.07,0,.17.05.19s.25-.22.09-.25a.11.11,0,0,0-.08,0h0v0s0,0-.07,0S249.56,245.12,249.6,245.14Zm-5,2.48c.15-.07.24-.43,0-.46a.16.16,0,0,0-.15.09l-.09.12a.16.16,0,0,0,0,.25A.23.23,0,0,0,244.57,247.62Zm4.84-2.69s0,0,.06-.05a.11.11,0,0,0-.05-.13c-.07-.05-.17,0-.13.08A.24.24,0,0,0,249.41,244.93Zm-.21.79a.53.53,0,0,0-.12.2.17.17,0,0,0,0,.07c0,.08.12.09.19,0a.27.27,0,0,0,.11-.1,2.14,2.14,0,0,0,.26-.43s0,0,0-.07-.21,0-.26,0a1,1,0,0,0-.15.21A.05.05,0,0,0,249.2,245.72Zm4.12,3.76s0,0-.06,0,0,.05,0,.05h0s0,.11,0,.14,0,0,.09,0a.14.14,0,0,0,.06-.13.1.1,0,0,0-.11,0s0,0,0,0Zm-.92-.83h.08c.11,0,.18-.19.05-.24S252.24,248.6,252.4,248.65Zm-.37-.47a.28.28,0,0,0-.2.09.39.39,0,0,0-.11.26.15.15,0,0,0,0,.22l0,0a.16.16,0,0,0,0,.07.19.19,0,0,0,.09,0s0,0,0,0,.21.07.2,0l.05,0a.35.35,0,0,0,.18-.26C252.31,248.45,252.2,248.2,252,248.18Zm.4-.22s0,0,0,0h0c.07,0,.12-.14,0-.18a.12.12,0,0,0-.08,0c-.11,0-.23.14-.12.21a.08.08,0,0,0,.07,0c-.24.09-.26.29,0,.2A.28.28,0,0,0,252.43,248Zm.18.77a0,0,0,0,0,0,.07h0s0,0,0-.06S252.64,248.7,252.61,248.73Zm-.24-1.67a1.46,1.46,0,0,0-.25.13l-.06,0a.15.15,0,0,0-.12-.08.18.18,0,0,0-.16.09l-.09.12a.09.09,0,0,0,0,.05h-.07c0-.05-.12-.09-.16,0s0,.07,0,.1l0,0a.34.34,0,0,0-.05.14c-.12-.06-.21,0-.1.13a.27.27,0,0,0,.1.08.4.4,0,0,0,.12.22.3.3,0,0,0,.19,0s0,0,.05,0a0,0,0,0,0,0,0h0a.49.49,0,0,0,.22,0,.07.07,0,0,0,0-.11l0,0a.09.09,0,0,0,0-.07l0,0,0,0c0-.05,0-.12,0-.2a.09.09,0,0,0-.06,0l0,0a.09.09,0,0,0,.15,0v0a.14.14,0,0,0,.1.08.06.06,0,0,0,.05.06c.05,0,.11,0,.08-.06l0,0a.15.15,0,0,0,0-.19.8.8,0,0,0,.21-.15l.05-.06C252.68,247,252.44,247,252.37,247.06Zm-1.17-.6a.3.3,0,0,0-.23-.06.23.23,0,0,0-.14.15.48.48,0,0,0,.1.43v0s0,0,0,0H251l.05,0a.31.31,0,0,0,.33-.07.3.3,0,0,0,0-.3.7.7,0,0,0-.1-.16C251.34,246.48,251.3,246.41,251.2,246.46Zm-3.53.65c0,.09.2.12.21,0a.05.05,0,0,0,0,0C247.81,247.05,247.68,247,247.67,247.11Zm5.29,1.56c0,.05,0,.11.07.15h.05a.08.08,0,0,0,0-.05C253.2,248.64,253,248.53,253,248.67Zm.09.21a0,0,0,0,0,0,.06h0s0,0,0-.06S253.07,248.84,253.05,248.88Zm-.07.68s0,0,0,0a.1.1,0,0,0-.07,0c-.1.11,0,.27.13.15A.11.11,0,0,0,253,249.56Zm-.17-.33h0a.07.07,0,0,0,0,.06.17.17,0,0,0,.18,0,.08.08,0,0,0,0,0l0,0,.1,0s0-.08,0-.15a.36.36,0,0,0-.35-.1C252.61,249,252.6,249.21,252.81,249.23Zm.31.55a.22.22,0,0,0,0,.08h0a0,0,0,0,0-.05,0s0,.07,0,.1a.14.14,0,0,1,0,.06s0,0-.08,0,0,0,0,0,0,.16.1.13.05,0,0-.09c.09.15.25.17.2,0h0l.08,0h.05a.05.05,0,0,0,0-.05.14.14,0,0,0-.07-.16.08.08,0,0,0-.06,0h-.06C253.29,249.64,253.14,249.57,253.12,249.78Zm-.12-1.91c.07.06.23-.06.15-.12h-.05C253,247.74,252.93,247.82,253,247.87Zm-2.09,3.53a0,0,0,0,0,0-.06l0,0s0,0-.06,0S250.86,251.41,250.91,251.4Zm.11-4.22s0,0,.07,0a0,0,0,0,0,0-.07h0S251,247.16,251,247.18Zm-2.91-2.6h0Zm-2,2.88a.05.05,0,0,0,0,0s-.18-.06-.18,0S246.12,247.55,246.12,247.46Zm-.71-.71a.12.12,0,0,0,0-.14c-.06-.06-.17,0-.15,0a.21.21,0,0,0,.07.13S245.38,246.78,245.41,246.75Zm1.46.94h.1l.05,0a.15.15,0,0,0,.1.18.22.22,0,0,0,.22-.06.31.31,0,0,0,0-.37.27.27,0,0,0-.14-.14s0,0-.06,0,0,0,0,.07a.21.21,0,0,0-.06.1H247C246.9,247.49,246.71,247.62,246.87,247.69Zm.15-.43,0,0s0,0-.06,0,0,.06,0,0A0,0,0,0,0,247,247.26Zm-1.88,1.25a.05.05,0,0,0,0,0c-.05-.05-.18-.06-.19,0S245.14,248.6,245.14,248.51Zm.09-1.34v0c0-.06-.16-.09-.18,0s0,.08.07.1,0,.21.13.13l0,0h.06c.15,0,.33-.23.07-.22a.36.36,0,0,0-.17.07Zm-.7-.1a.24.24,0,0,0,0-.24.05.05,0,0,0-.05,0,.18.18,0,0,0-.08.07C244.27,247.08,244.38,247.28,244.53,247.07Zm.36.6s.05,0,0-.06l0,0s-.05,0-.06,0S244.85,247.69,244.89,247.67Zm-.06-.93h-.07s0,0,0,.05h0a.06.06,0,0,0,.08,0S244.88,246.77,244.83,246.74Zm2.38.42c.09,0,.14-.17,0-.18l-.05,0C247.13,247,247.12,247.15,247.21,247.16Zm-2.32,1.07a0,0,0,0,0,0-.07h0s0,0,0,0S244.85,248.25,244.89,248.23Zm.18-.39c.11.09.35-.09.23-.18l-.08,0h-.05l0,0s0,0,0,0a0,0,0,0,0,0,0A.09.09,0,0,0,245.07,247.84Zm3.27-1.46a.1.1,0,0,0,0,0,.35.35,0,0,0,.08-.1h0a.05.05,0,0,0,.08,0v0s0,0-.07,0h0v0s0,0,0,0-.07,0-.11,0a.58.58,0,0,0-.14.12.15.15,0,0,0-.08.12l-.05.14a.18.18,0,0,0,.1.23.22.22,0,0,0,.22-.06.45.45,0,0,0,.27.06c.05,0,.09,0,.07-.14a.32.32,0,0,0-.25-.24Zm-1.87,2c0,.08.17.15.2.06a.43.43,0,0,0,0-.05C246.62,248.29,246.49,248.27,246.47,248.34Zm1.48-1.49s0,0,0,.06a.05.05,0,0,0,.07,0v0S248,246.83,248,246.85Zm.85-.94a.1.1,0,0,0-.07,0c-.12,0-.25.12-.15.2S248.93,246,248.8,245.91Zm-.58-.34h0c0-.12-.12-.25-.27-.2s-.08.08-.08.14h0a.08.08,0,0,0-.06,0,0,0,0,0,0,0,.06h.07v0a.2.2,0,0,0,.08.19.28.28,0,0,0-.09.1.19.19,0,0,0,0,.07c0,.08.1.11.17.08a.35.35,0,0,0,.13-.08,2.09,2.09,0,0,0,.36-.37s0-.05,0-.07S248.28,245.53,248.22,245.57Zm-.06-.79c-.1,0-.1.19,0,.18l.05,0A.09.09,0,0,0,248.16,244.78Zm.34,1.54.07.09s0,0,0,0,.21.11.2,0a.08.08,0,0,0,0,0l-.07,0a.11.11,0,0,0,0-.12C248.59,246.2,248.48,246.24,248.5,246.32Zm-3.22,3.23a.06.06,0,0,0,.06-.06l0,0s0,0-.07,0S245.23,249.54,245.28,249.55Zm2.46-4.15c.08,0,.07-.08,0-.12s.36,0,.27-.13l-.07,0c-.11,0-.28.07-.2.17a.41.41,0,0,0-.14-.08h0l0,0a.11.11,0,0,0-.06-.13c-.07,0-.17,0-.12.08l0,.05-.13,0a1.67,1.67,0,0,0-.31,0h0a.12.12,0,0,0-.16,0c-.11.08,0,.3.17.22l.1,0a2.62,2.62,0,0,0,.56.09Zm-2.48,3.26a0,0,0,0,0,.07,0v0s0,0-.07,0S245.21,248.64,245.26,248.66Zm1.49-3a.22.22,0,0,0,0,.14.09.09,0,0,0,.09,0,.12.12,0,0,0,.07-.12A.08.08,0,0,0,246.75,245.61Zm.73-.06a.15.15,0,0,0-.08.08l-.08,0c-.22.17-.16.39,0,.21a.26.26,0,0,0,.09-.13.11.11,0,0,0,.07,0,.13.13,0,0,0,.07-.15l0,0A.12.12,0,0,0,247.48,245.55Zm0-.61,0,0s0,0-.06,0,0,.06,0,.05A0,0,0,0,0,247.49,244.94Zm-1.71,3.46a.17.17,0,0,0,0,.07.13.13,0,0,0,.2,0,.24.24,0,0,0,.07-.13,1.75,1.75,0,0,0,.12-.32h.11a.2.2,0,0,0,.13.08.66.66,0,0,0,.37,0s0-.08,0-.16a.35.35,0,0,0-.34-.1.21.21,0,0,0-.11.07l-.11,0v0a.09.09,0,0,0,0-.07c-.06-.14-.21,0-.24.09a.67.67,0,0,0-.1.23A1.29,1.29,0,0,0,245.78,248.4Zm2.63,3.48h0a.11.11,0,0,0,.12,0s.06.09.14.1a.71.71,0,0,0,.25,0,.1.1,0,0,0,0,.09c.08.11.36,0,.26-.13l0,0a.19.19,0,0,0,0-.12.05.05,0,0,0,0,0l-.06,0h0a.39.39,0,0,0-.26-.11.1.1,0,0,0-.06-.05h.05a.51.51,0,0,0,.34-.11s0-.09-.06-.15a.37.37,0,0,0-.23-.07.38.38,0,0,0,.15-.12c0-.05,0-.1-.11-.14h0A.67.67,0,0,0,249,251l.14-.09a.22.22,0,0,0,.09.08h0l0,0-.06.12c-.07,0-.15,0-.11.11l0,0v0a.43.43,0,0,0,.17.28c.05,0,.11,0,.17-.06a.25.25,0,0,0,.05-.18c.1-.13.11-.39-.09-.41h0a.09.09,0,0,0,0-.07h0a.42.42,0,0,0,.28-.24h0l.07,0a.14.14,0,0,0,0-.15h0c.14,0,.09-.3-.07-.26a.15.15,0,0,0-.06.05.17.17,0,0,0,0,.14.1.1,0,0,0-.09.08h-.06a.19.19,0,0,0,0-.08.24.24,0,0,0-.11-.15h0a0,0,0,0,0,0-.07s0,0-.05,0a.13.13,0,0,0-.14.08h0a.29.29,0,0,0-.18-.07.12.12,0,0,0-.05-.17.59.59,0,0,0,0-.13l0,0,.12-.08a.09.09,0,0,0,.06,0v0l.14-.11s0,0,0,.05a.13.13,0,0,0,0,.2.51.51,0,0,0,.3.17.11.11,0,0,0,.1-.06.08.08,0,0,0,.09,0s.07-.09.05-.13,0,0-.07,0l-.07,0a.14.14,0,0,0,0-.06.32.32,0,0,0,.16-.1h0a.53.53,0,0,0,.15-.26l.11,0s0,0,0,0h0c-.11,0-.21.16-.09.22h0a.16.16,0,0,0,.12,0,.44.44,0,0,0,.15,0l.09-.05a.19.19,0,0,0,.23,0,.08.08,0,0,0,0-.07l.14-.11a.1.1,0,0,0,.05-.06s0-.06,0-.07-.09-.17-.18-.12a.08.08,0,0,0-.05.05.17.17,0,0,0,0,.07h0l-.08,0h0l-.06-.05c.05-.09.06-.2-.05-.25s-.13,0-.18,0l-.14.09-.07.07a.3.3,0,0,0-.2,0,.58.58,0,0,0-.29.13h0c-.06,0-.12,0-.12.08l-.17.05-.2.14h0l0,0v0a.1.1,0,0,0,.09-.07.17.17,0,0,0-.08-.15h-.05a.08.08,0,0,0-.05.05.12.12,0,0,0,.05.16l0,0s0,0,0,0h-.08l0,0a.29.29,0,0,0,0-.31.53.53,0,0,0-.1-.12.12.12,0,0,0,.15,0c.07-.07,0-.2-.13-.22a.21.21,0,0,0,.06-.1.22.22,0,0,0,0-.16c0-.07,0-.16-.08-.16h0a.82.82,0,0,0-.21-.11h0a.38.38,0,0,0-.3,0,.19.19,0,0,0-.06.19.59.59,0,0,0,.45.42h.08v0s0,0,0,0h0a.35.35,0,0,0-.27-.05.23.23,0,0,0-.12.17.54.54,0,0,0,.22.44.09.09,0,0,0,0,.06l-.08-.07a.38.38,0,0,0-.36,0,.17.17,0,0,0-.07.21h0l-.06,0h0s-.05.05-.07.08a.47.47,0,0,0,0,.19l-.13.1s0,0-.1-.05-.32,0-.24.13h0c0-.06-.1-.12-.16-.07s0,.12.06.14a.1.1,0,0,0,0,.15.18.18,0,0,0,.22-.17.24.24,0,0,0,.14,0c0,.08.08.12.16.1a.37.37,0,0,0,.14-.07l.1-.07a.12.12,0,0,0,.16,0,.11.11,0,0,0,0-.13l.14-.14,0-.06v0h0a0,0,0,0,0,0,0s0,0,0,0,.06,0,.08,0l0,0a0,0,0,0,0,0,0s0,0,0,0h0a.22.22,0,0,0,.1-.09s0,0,0,0h0l.06,0a.11.11,0,0,0-.06.07c0,.09.05.25.13.22a.14.14,0,0,0,.07.11.19.19,0,0,0,.17,0s0,0,0,0a.15.15,0,0,0-.06.09.2.2,0,0,0-.11,0,0,0,0,0,1,0,0c-.08-.15-.32-.33-.48-.27a.22.22,0,0,0-.13.16.53.53,0,0,0,.18.45l-.09,0c-.09,0-.21,0-.3.07a.15.15,0,0,0-.06.05c-.06.06,0,.13.09.15a.45.45,0,0,0,.16,0,2.5,2.5,0,0,0,.54-.13h0c.1,0,.26,0,.23-.1a.1.1,0,0,0-.05-.06.16.16,0,0,0-.12,0,.13.13,0,0,0,0-.08.33.33,0,0,0,.18,0l0,0,.12,0h0a.09.09,0,0,0,0,.07.05.05,0,0,0,0,0h0a.08.08,0,0,0,.05-.07.06.06,0,0,0-.05-.06h.13l.13.13h-.07c-.11,0-.24,0-.24.13l-.06,0a1,1,0,0,0-.24.17l0,.06a.08.08,0,0,0,0,.09.34.34,0,0,0-.28.06.21.21,0,0,0,0,.12.07.07,0,0,0-.05.09s0,.05.05.07a.29.29,0,0,0,.16,0,.14.14,0,0,0,0,.06s0,0-.06,0-.16.09-.15.16A.13.13,0,0,0,248.41,251.88Zm-.17-.38h0a.08.08,0,0,0,.07-.05.05.05,0,0,0-.08-.06.07.07,0,0,0,0,.05A0,0,0,0,0,248.24,251.5Zm-.09-.1a.12.12,0,0,0,0-.11h0a.15.15,0,0,0,.17-.17h0s0,0,0-.06l0,0s0,0,0,0l-.06,0h-.08a.19.19,0,0,0-.1.16l0,0C247.94,251.31,248,251.49,248.15,251.4Zm0-.46a.15.15,0,0,0-.11-.13H248a.06.06,0,0,0,0,.06C248,251,248.16,251.09,248.17,250.94Zm-2.14.56s0,.05,0,.07h0s.07,0,.08,0,0-.1,0-.08S246.05,251.48,246,251.5Zm.69-.15a.11.11,0,0,0-.08,0c-.08,0-.13.17,0,.22a0,0,0,0,0,0,0s0,.06.06,0a0,0,0,0,0,0-.05C246.78,251.61,246.87,251.37,246.72,251.35Zm-.27.08h0s0,0,0,0a.12.12,0,0,0,.14-.08.38.38,0,0,0,.13-.12s0-.08-.07-.12a.08.08,0,0,0,0-.05.32.32,0,0,0-.13-.29l-.16-.09c0-.05,0-.1-.1-.11a.38.38,0,0,0-.22.07.2.2,0,0,0-.08,0h-.1c-.06,0-.08.09-.09.15v.1h-.12a.35.35,0,0,0-.18-.25h0a.11.11,0,0,0-.07-.12c-.07,0-.14,0-.13.07l-.16,0s0,0,0-.05H245a.22.22,0,0,0-.13.08v0s0-.07,0-.11l0,0,0,0s0,0,.05,0,.34,0,.2-.13c.06-.07.05-.14-.1-.13a.55.55,0,0,0-.19.09.76.76,0,0,0,0-.26.14.14,0,0,0,0-.07c-.09-.13-.2.06-.22.13a1,1,0,0,0,0,.25s0,.11,0,.16a.12.12,0,0,0-.08,0c-.09,0-.15.07-.07.12a.27.27,0,0,0,.15.05h0a.08.08,0,0,0,0,0,.13.13,0,0,0,.2,0s0,0,0,0,0,0,.05.07a.15.15,0,0,0,0,.11.3.3,0,0,0,.07.1c-.11,0-.32.06-.2.17a.17.17,0,0,0,.1,0,.24.24,0,0,0,.21-.11.59.59,0,0,0,.38.12l.07,0v0a.18.18,0,0,0,.08.24.23.23,0,0,0,.3-.23h0a.24.24,0,0,0,.2-.07l.12.08C246.17,251.32,246.27,251.48,246.45,251.43Zm4.84,1.53s0,0,.06,0,0-.05,0-.07l0,0S251.29,252.93,251.29,253Zm.37.38a.28.28,0,0,0,.09-.07.06.06,0,0,0,0,.07s.11,0,.1,0,0,0,0-.06h-.07a.22.22,0,0,0,.05-.19c-.05-.16-.32-.2-.37,0a.38.38,0,0,0,0,.31S251.57,253.4,251.66,253.34Zm.35-1.08v0s-.05,0-.07,0,0,0,0,.06S252,252.29,252,252.26Zm-3.23.59a.06.06,0,0,0-.06,0s-.06,0,0,.06h.05s0,0,.06,0,0,0,0-.07Zm2.85-.11c0-.09-.1-.28-.22-.17a.11.11,0,0,0,0,.08C251.39,252.79,251.63,253,251.63,252.74Zm-6,.25a.1.1,0,0,0-.06,0,.11.11,0,0,0,0,.08l0,0s0,.05,0,.06h0a.12.12,0,0,0,.14.05C245.81,253.2,245.73,252.93,245.58,253Zm3.54,0s0,.06,0,0a0,0,0,0,0,0-.06c.14.06.12-.15.1-.21a.65.65,0,0,0-.08-.17,2.14,2.14,0,0,0,.43-.21.1.1,0,0,0,0,0,.09.09,0,0,0,.07,0s.07,0,.13,0a.1.1,0,0,0,0-.09.23.23,0,0,0,0-.25h0a.08.08,0,0,0,.09,0,0,0,0,0,0,0-.08s0,0-.06,0,0,0,0,0a.22.22,0,0,0-.27-.05l0,0a.09.09,0,0,0-.07,0c-.11,0-.26.1-.17.19a.2.2,0,0,0,.2,0v0h-.12l-.27.11-.12.06-.06-.09-.07-.05a.14.14,0,0,0-.09,0c0-.06,0-.12,0-.15a.14.14,0,0,0-.09,0c-.11,0-.2.16-.08.22a.13.13,0,0,0,.13,0s0,0,0,.05a.33.33,0,0,0,0,.13,1.73,1.73,0,0,0,.27.43l0,0A0,0,0,0,0,249.12,253Zm-6.63-1c-.16,0-.13.24,0,.18a.13.13,0,0,0,.08-.14.05.05,0,0,0,0,0S242.52,251.92,242.49,251.93Zm-1.05-2.31a.11.11,0,0,0,0-.13c0-.07-.15-.07-.16,0a.23.23,0,0,0,0,.14A.07.07,0,0,0,241.44,249.62Zm.06,1.1c.09,0,.21-.1.12-.14h-.06C241.49,250.59,241.42,250.68,241.5,250.72Zm-.18-.35h0a.08.08,0,0,0,.08,0,.06.06,0,0,0,0-.06h.1c.05,0,.08-.06.06-.15a.3.3,0,0,0-.26-.22c-.16,0-.28.11-.22.22a.12.12,0,0,0-.06.1s0,0,0,0a.15.15,0,0,0,.07.12s.05,0,.08,0a.19.19,0,0,0,0-.08l0,0,.11,0,0,0S241.29,250.35,241.32,250.37Zm10.79,2.7a0,0,0,0,0,0,0c0-.06-.15-.1-.18,0S252.08,253.16,252.11,253.07Zm-10.45-1.86s0,0,0,0-.18,0-.14.09S241.72,251.29,241.66,251.21Zm.17-1.81.06,0a.08.08,0,0,0,0,.12c.11.09.35-.09.22-.18a.11.11,0,0,0-.08,0l-.08,0v-.08h0a.1.1,0,0,0,0-.05h0c.09-.13-.16-.12-.23-.11a1.52,1.52,0,0,0-.28.09,1.62,1.62,0,0,0-.28.11s0,0,0,.06,0,.08,0,.11a.17.17,0,0,0-.11.09.08.08,0,0,0,0-.08l-.07,0c-.11,0-.27.06-.2.16s.23,0,.28,0a.08.08,0,0,0,0,.13c.12.05.27-.13.19-.21l.11,0a2.35,2.35,0,0,0,.37-.14S241.74,249.4,241.83,249.4Zm3.47,3.73h-.09a.17.17,0,0,0-.13.11l.5.05a.09.09,0,0,0,0-.05.3.3,0,0,0-.13-.09S245.35,253.11,245.3,253.13Zm-.38-.13a1.88,1.88,0,0,0-.16-.23.18.18,0,0,0-.07-.05c-.15-.07-.13.14-.11.2a1,1,0,0,0,.12.23h0a.12.12,0,0,0,0,.05l.39,0s0,0,0-.05l0,0c.1-.06.14-.15,0-.17Zm.32-.86c-.12,0-.24.14-.14.21s.35-.1.21-.19Zm.14.47a0,0,0,0,0,0,0c-.07,0-.13.12,0,.15S245.48,252.64,245.38,252.61ZM244.25,251a.06.06,0,0,0,.05.06c.1,0,.17-.15.06-.17h-.05l0,0a.3.3,0,0,0-.05-.24l-.08-.09h0l0,0h.08a.23.23,0,0,0,.19-.24.16.16,0,0,0,0-.08l.06,0,.05-.06v0h0s0,0,0-.07h0s0,0,0,0a.47.47,0,0,0-.21,0h0a.66.66,0,0,0-.2-.06h.18a.06.06,0,0,0,.06-.05.21.21,0,0,0,.1-.25.25.25,0,0,0-.08-.12.92.92,0,0,0,.25.06.07.07,0,0,0,.11.07l.07,0a.26.26,0,0,0,.24-.07h0l0,0a.17.17,0,0,0,0,.19.44.44,0,0,0,.09.11c0,.21.15.33.18.11a.53.53,0,0,0,.31.06.24.24,0,0,0,.18-.17c.11-.07.17-.25,0-.19a.4.4,0,0,0-.16-.13.74.74,0,0,0-.39-.07.12.12,0,0,0-.06-.06h0a.33.33,0,0,0-.06-.25c-.11-.14-.38-.29-.52-.21a.12.12,0,0,0-.07.07.63.63,0,0,0-.22.09h0s0,0,0,0v0a.05.05,0,0,0,0,0c0,.05,0,.1.08.17l-.05,0a.64.64,0,0,0-.2,0,.45.45,0,0,0-.14-.1s0,0,0,0a.38.38,0,0,0,.16-.06.21.21,0,0,0,0-.29.42.42,0,0,0-.32-.14h-.12s0,0,0,0v0s-.05,0-.07,0,0,.05,0,.06h0l-.07,0c-.13,0-.2.09-.16.14a.18.18,0,0,0-.05.11c0,.05,0,.11.12.17l.06,0a1.05,1.05,0,0,0-.21.12l-.08,0c-.08-.1-.2-.17-.31-.1s0,.11,0,.16l0,.1s0,0,0,0l-.08,0c-.11,0-.26.1-.16.18s.27,0,.26-.11v0a.21.21,0,0,0,.21.17.17.17,0,0,0,.15-.12h0a2.31,2.31,0,0,0,.45-.29.18.18,0,0,0,0,.14l0,0,0,0a.07.07,0,0,0,0,.05c-.07.08-.05.16.06.13h0a.65.65,0,0,0,.38.18c-.14,0-.28,0-.33.09s0,.1,0,.19l.08.1,0,.05v0l-.06,0a.2.2,0,0,0-.08.08.08.08,0,0,0-.07,0c-.11,0-.24.13-.13.21a.15.15,0,0,0,.18,0,.33.33,0,0,0,0,.13h0s0,0,0,.05a0,0,0,0,0,0,0c0,.09.11.24.21.16h0l.09,0A.29.29,0,0,0,244.25,251Zm-1.38.88a.17.17,0,0,0,0-.2c-.06-.14-.46-.28-.53-.08s0,.11.08.15l.13.1A.25.25,0,0,0,242.87,251.84Zm1-.56a.14.14,0,0,0,.12-.12s0,0,0,0,0,0-.07,0S243.7,251.3,243.87,251.28Zm-2.42.29a.13.13,0,0,0,.07-.15.05.05,0,0,0,0,0h-.08C241.26,251.44,241.29,251.63,241.45,251.57Zm2.57,1.08a.56.56,0,0,0,.35.11s.09,0,.07-.15a.39.39,0,0,0-.06-.11.24.24,0,0,0,.09-.2.33.33,0,0,0-.2-.25l-.05,0a.5.5,0,0,0,0-.13h.08v0c0,.15.2.21.21.07s-.06-.11-.12-.13.08-.07,0-.13-.29-.08-.28,0H244a.05.05,0,0,0-.05,0,1.63,1.63,0,0,0,0-.31h0a.26.26,0,0,0,.18-.12s0,0,0,0a0,0,0,0,0,0-.07h0a.19.19,0,0,0-.1,0,.44.44,0,0,0-.16.06.17.17,0,0,0-.12.07c0-.14,0-.31-.22-.29s-.09.07-.11.12l-.05.14a.18.18,0,0,0,.09.24.22.22,0,0,0,.22-.06.65.65,0,0,0,0,.19l0,.11h0s0,0,0,0l0,0s-.05,0-.06,0h-.06c-.19,0-.24.26,0,.31a1.26,1.26,0,0,0,.28,0,.51.51,0,0,0,0,.09.62.62,0,0,0,.27.22C243.93,252.53,243.94,252.6,244,252.65Zm6.82-1.84s0,0,0,.05,0,.06.06,0a0,0,0,0,0,0-.07Zm3-6.2c0,.08.16.1.24.06h0s0,0,0,.06a0,0,0,0,0,.06,0v0h0s0,0,0-.07,0,0,0,.05.24,0,.26,0l-.3-.05h0l-.26,0A.1.1,0,0,0,253.85,244.61Zm-1.36-.07h-.05a2.82,2.82,0,0,0-.31.07l-.06,0c-.06.06,0,.14.09.15a.86.86,0,0,0,.16,0,3.52,3.52,0,0,0,.49-.11c.12,0,.33-.11.2-.2l-.07,0a.14.14,0,0,0-.09,0h0v-.11l-.42,0s0,0,0,0A.51.51,0,0,0,252.49,244.54Zm1.7.34s0,.05.05.05a.06.06,0,0,0,0-.07l0,0S254.21,244.85,254.19,244.88Zm-.71-.41-.45-.05h0a.64.64,0,0,0,.31.11l0,0a.12.12,0,0,0,.08.16c-.08.07-.08.25.05.24a.11.11,0,0,0,.08,0,.15.15,0,0,0,0-.2l0,0a.2.2,0,0,0,0-.07.19.19,0,0,0-.16-.12s0,0,0,0Zm1.13,1.64a.13.13,0,0,0,.09,0c.15,0,.39-.15.13-.19C254.74,245.94,254.5,246,254.61,246.11Zm-10.15,7s0,0,0,0-.19,0-.18,0h0l.2,0S244.47,253.17,244.46,253.15Zm3.62-1a.12.12,0,0,0-.07,0,1.21,1.21,0,0,0,.2-.19s0,0,0-.06-.19-.08-.26,0a1.82,1.82,0,0,0-.23.15v0h0a.1.1,0,0,0-.06,0,.11.11,0,0,0-.08,0,.24.24,0,0,0-.08.06l-.12,0a.17.17,0,0,0-.1,0,.08.08,0,0,0,0-.07l0,0s0-.09-.08-.14a.25.25,0,0,0-.14,0,.13.13,0,0,0-.12,0,.25.25,0,0,0-.11,0,.17.17,0,0,0-.07.1s-.08.05,0,.11a.13.13,0,0,0,.09,0h0a.17.17,0,0,0,.14,0l.08,0,0,0h0l-.06,0a.06.06,0,0,0,0,.09.31.31,0,0,0-.25-.08l-.05,0h0s0,0,0,0a.23.23,0,0,0-.07.11.4.4,0,0,0,0,.28s-.05.08,0,.11h0a.4.4,0,0,0,.15.14.29.29,0,0,0,.32-.07.3.3,0,0,0,.07-.15l0,0a.05.05,0,0,0-.05-.07,0,0,0,0,0,0,0l.1.06a.55.55,0,0,0,.36,0h0a.55.55,0,0,0,.23.07c.06,0,.09,0,.08-.15a.32.32,0,0,0-.13-.21l.06,0C248,252.28,248.15,252.25,248.08,252.13Zm-.35,1.29a0,0,0,0,0,0-.07h0s-.05,0-.05,0S247.69,253.44,247.73,253.42Zm.1-.82a.12.12,0,0,0-.05.05,0,0,0,0,0,0,.06h0a.07.07,0,0,0,.08,0A.05.05,0,0,0,247.83,252.6Zm-.14.05c-.12-.13-.38-.08-.34.1a.45.45,0,0,0,.18.28c.05,0,.11,0,.17-.07A.23.23,0,0,0,247.69,252.65ZM246.5,252c.08,0,.16,0,.17-.08a.15.15,0,0,0,0-.07.23.23,0,0,0-.18-.05.19.19,0,0,0-.23-.13l-.09,0-.13,0c0-.15-.2-.31-.35-.22s-.06.1,0,.16v.07a.53.53,0,0,0-.34,0,1.18,1.18,0,0,0,0-.37.09.09,0,0,0,0-.06.09.09,0,0,0-.09,0h0c-.1,0-.27.05-.21.15s.08.05.13.05a1,1,0,0,0,0,.25c0,.08,0,.18,0,.26a.16.16,0,0,0,0,.07.11.11,0,0,0,.14,0,.64.64,0,0,0,.18.19.08.08,0,0,0,0,.1c0,.05.13,0,.19,0h0a.18.18,0,0,0,.23.11c.1,0,.25-.12.28-.2v0l0,0a.14.14,0,0,0,0,.15.2.2,0,0,0-.09.09.35.35,0,0,0-.33,0,.16.16,0,0,0-.1.11.09.09,0,0,0-.08-.07.11.11,0,0,0-.08,0c-.09.05-.14.21,0,.24a.15.15,0,0,0,.16-.11.16.16,0,0,0,.13.12.09.09,0,0,0-.07,0c-.15.08-.08.26.06.18a.13.13,0,0,0,.05-.16l0,0h0a.55.55,0,0,0,.34-.1.05.05,0,0,0,0,0c.11,0,.22-.16.12-.22a.17.17,0,0,0,.06-.16l.05-.06Zm12.11-6a.08.08,0,0,0,.07,0l0,0s0,0,0,0l-.05,0S258.61,246,258.61,246Zm.61,1.29a.09.09,0,0,0,0-.07c-.07-.08-.26-.1-.28,0S259.2,247.43,259.22,247.29Zm-1.24.23s-.07,0-.05,0a.06.06,0,0,0,.07,0l0,0S258,247.53,258,247.52Zm1.68-.25v0h0l0,0,0,0s-.05,0-.07,0,0,0,0,.06h.08a.48.48,0,0,0,.11.48.31.31,0,0,0,.25,0c.06,0,.14,0,.17,0a.11.11,0,0,0,0-.07l0-.05a.2.2,0,0,0,0-.08.11.11,0,0,0,.06.13.07.07,0,0,0,.06,0h0a0,0,0,0,0,0,0h0a.14.14,0,0,0,0-.21.08.08,0,0,0,0-.13h-.08l-.08,0a.56.56,0,0,0-.09-.17.16.16,0,0,0,.06-.15h0a.06.06,0,0,0,0,0V247a.28.28,0,0,0,0-.13h.16l-.18-.12s0,0,0,0h0l-.05,0a.14.14,0,0,0-.12,0,.1.1,0,0,0-.05,0s0,0,0,0a.06.06,0,0,0-.07,0h0a.06.06,0,0,0,0,.07h0s0,.05,0,.07a.19.19,0,0,0,.1.08.35.35,0,0,0,0,.2A.29.29,0,0,0,259.66,247.27Zm-1.89.54a.4.4,0,0,0-.24,0,.22.22,0,0,0-.13-.05.18.18,0,0,0-.22,0,.39.39,0,0,0-.15.11.22.22,0,0,0-.13-.09l0,0v0s0,0-.07,0a.11.11,0,0,0,0-.14s-.11,0-.17,0l-.08-.1-.06-.05h0s0,0,0-.06a.17.17,0,0,0,0-.12h.06s0,0,0-.06-.06,0-.07,0h0a.12.12,0,0,0-.15,0c-.06,0-.06.1,0,.16h0a.15.15,0,0,0-.08.12.15.15,0,0,0-.11.06.08.08,0,0,0,0,0s0,0,.05,0a.19.19,0,0,0,.17,0,.15.15,0,0,1,0,.06.08.08,0,0,1,0,0h0s0,0,0,0-.06,0-.08.07a.28.28,0,0,0-.09.18h-.06a.13.13,0,0,0-.08.15,0,0,0,0,0,0,0,0,0,0,0,0,0,.07h.06a.12.12,0,0,0,.1,0,.09.09,0,0,0,.06,0,.15.15,0,0,0,0-.13.26.26,0,0,0,.1-.07h0a.26.26,0,0,0,.14,0h0a.46.46,0,0,0,.09.15l.07,0a.1.1,0,0,0,.09,0,.1.1,0,0,1,0,0h0a.22.22,0,0,0,.1.17h0c-.16.2,0,.4.1.2a.23.23,0,0,0,.05-.15.41.41,0,0,0,.32-.09.57.57,0,0,0,.18-.33.48.48,0,0,0,.17,0h0a.35.35,0,0,0,0,.2s.08.07.18,0l.11-.05a.09.09,0,0,0,.1,0,.1.1,0,0,0,.05,0l.11,0a.22.22,0,0,0,0,.11h0a.1.1,0,0,0-.06.05s-.05,0-.07,0-.15.34.06.22a.17.17,0,0,0,.06-.06.1.1,0,0,0,.09,0s.05,0,.06,0h0c.13.07.29,0,.3-.11a.19.19,0,0,0,.09-.05s0,0,0,0a.06.06,0,0,0,0,0,.3.3,0,0,0,.05.15.39.39,0,0,0,.1.08s0,0,0,0h0s0,0,0,0l.1,0a.15.15,0,0,0-.09.06.2.2,0,0,0,0,.29.46.46,0,0,0,.33.09.7.7,0,0,0,.14,0c0,.07.11.08.14,0h.07c.09,0,.26-.19.09-.24h0v0a.2.2,0,0,0-.14-.15.71.71,0,0,0-.22,0,.27.27,0,0,0,.18-.18s0,0,0,0a.28.28,0,0,0,0-.09c0-.17-.13-.42-.3-.42a.24.24,0,0,0-.2.1.44.44,0,0,0-.08.22.34.34,0,0,0-.17.05.09.09,0,0,0,0-.05s0,0-.07,0,0,.05,0,.06h0a.21.21,0,0,0-.07.13c0-.09-.13-.21-.23-.13a.05.05,0,0,0,0,0,.31.31,0,0,0-.13-.08h-.05s0,0,0,0h0a.32.32,0,0,0-.13-.08l-.07,0c.05,0,.06-.12,0-.15a.18.18,0,0,0-.1,0,.67.67,0,0,1-.22.16Zm-5.1,4.27c.09-.15.09-.42-.06-.49a.29.29,0,0,0-.22,0l0,0a.08.08,0,0,0-.07,0l0,0a.85.85,0,0,0-.14.19.64.64,0,0,0-.17,0h-.3c-.09,0-.21,0-.31,0l0,0,0,0h0s0-.08,0-.08a.07.07,0,0,0-.06,0l0,0c-.12.08-.05.24.06.19h.08a.11.11,0,0,0,.08.07.34.34,0,0,0,.14,0h0s0,.05.07,0,0,0,0,0a2.11,2.11,0,0,0,.36,0c.06.19.23.27.25.15s0,0,0,0a.33.33,0,0,0,.2,0A.34.34,0,0,0,252.67,252.08Zm3.83,1.16v0s0,0-.07,0h0a.41.41,0,0,0,0-.16.1.1,0,0,0,0,0,.08.08,0,0,0-.06-.11v0c0-.1-.16-.2-.25-.11v0s0,0-.05,0a.35.35,0,0,0,0,.13l0,.07h-.13a.2.2,0,0,0,0-.08s.06,0,.09-.06a.06.06,0,0,0,.08,0v0s0,0-.07,0h0c0-.09,0-.24-.16-.18a.13.13,0,0,0-.06.07.2.2,0,0,0,0,.18s-.05,0-.09,0a.11.11,0,0,0,0,.08h0a0,0,0,0,1,0,0c-.1,0-.16.16-.05.17h0a.22.22,0,0,0,0,.15.32.32,0,0,0,.08.09l.7,0,0-.09S256.49,253.26,256.5,253.24Zm2-6.63a.09.09,0,0,0,.06,0c.12-.11,0-.28-.12-.16a.12.12,0,0,0,0,.16S258.44,246.61,258.46,246.61Zm.27,1.21h0s-.05,0-.06.05,0,.09.09.06a.11.11,0,0,0,0-.06S258.77,247.82,258.73,247.82Zm.07-.43a.11.11,0,0,0-.07-.08c0-.08-.18-.14-.25-.05s.06.17.15.19S258.83,247.49,258.8,247.39Zm-6.66,5.44a.06.06,0,0,0,.08,0l0,0s0,0-.05-.05S252.13,252.79,252.14,252.83Zm6.1-6.17-.15.06a.13.13,0,0,0-.1,0,.16.16,0,0,0-.14.11h0s0,0,0,0,0,.06,0,.09a.39.39,0,0,0,.22.15.18.18,0,0,0,0,.09s0,.09.14.1h.13s0,0,0,0a.26.26,0,0,0,.18-.11.16.16,0,0,0-.06-.24C258.52,246.78,258.43,246.61,258.24,246.66Zm-3.52-.85a.06.06,0,0,0-.07,0s-.06,0-.05,0h0a.09.09,0,0,0,.08,0S254.77,245.84,254.72,245.81Zm3.58,1.94a0,0,0,0,0,0,.07h0s0,0,0-.06A0,0,0,0,0,258.3,247.75Zm-14.79,4.57s0,0,0,0,0,.16.1.13S243.61,252.28,243.51,252.32Zm14.43.05h0a0,0,0,0,0,0,0,.26.26,0,0,0,.1-.11s.07,0,.09-.08,0-.29-.15-.21h0l0,0a.13.13,0,0,0,0-.06s0,0,0,0h0a.16.16,0,0,0,.14-.06.08.08,0,0,0-.11-.1l0,0v-.07a.14.14,0,0,0-.1-.24.61.61,0,0,0-.36,0c-.05,0-.05.09,0,.16l.06.06c-.06,0-.09,0-.06.11l0,0a.3.3,0,0,0-.22.05.07.07,0,0,0,0-.06c-.06-.12-.36-.2-.26,0,0,.06.15.16.23.13a.2.2,0,0,0,0,.13.64.64,0,0,0,.54.33Zm.23.71c0-.12-.08-.2-.17-.2a.18.18,0,0,0-.19.11.22.22,0,0,0,0,.21h.07l.34,0-.05,0Zm1.73-.38-.2.14,0-.11v0c.08-.13.08-.36-.12-.37s-.11.06-.14.11l-.08.12a.24.24,0,0,0,0,.15.44.44,0,0,0,0,.16h0a1.61,1.61,0,0,0-.31,0l-.07,0c-.06,0,0,.1,0,.13a9.75,9.75,0,0,0,1.19-.27s0,0,0,0S260,252.67,259.9,252.7Zm-2.48-.34s-.06.08,0,.09a.08.08,0,0,0,.08,0s0,0,0-.05h0A.1.1,0,0,0,257.42,252.36Zm3.18-.13s0,.05,0,.06a.06.06,0,0,0,.07,0v0S260.62,252.21,260.6,252.23Zm-3.3-.2a.25.25,0,0,0-.22,0l-.1,0h0a.3.3,0,0,0-.23,0,.44.44,0,0,0-.15.1.17.17,0,0,0-.14-.09.21.21,0,0,0-.15.07c-.09,0-.23-.06-.22.06s0,0,.05.07a.25.25,0,0,0,.13.05.25.25,0,0,0,0,.11s0,0,0,.06,0,.12.1.18a.47.47,0,0,0,.14,0,.19.19,0,0,0,0,.08c0,.17.11.41.28.42a.15.15,0,0,0,.11,0s-.05.1,0,.12H257c.07,0,.13-.12.05-.15a.06.06,0,0,0-.06,0l0,0,0,0c.09,0,.17-.13.08-.19h0a.61.61,0,0,0,0-.27.33.33,0,0,0,.13-.07C257.32,252.39,257.42,252.14,257.3,252Zm2.35-2.95c-.06-.05-.19,0-.18,0a.11.11,0,0,0,.07.06.08.08,0,0,0,.06.13l0,0v0l.08,0a.41.41,0,0,0,.36,0,.17.17,0,0,0-.17-.28.6.6,0,0,0-.25.13h0S259.67,249.09,259.65,249.08Zm-.7-.65v0s0,0-.07,0-.05,0,0,.06A.07.07,0,0,0,259,248.43Zm-.15.5a.14.14,0,0,0,0,.09c.08.12.38.18.27,0S258.85,248.78,258.8,248.93Zm-.54-.13s0,0,.06,0,.12.1.19,0a.07.07,0,0,0,0-.06.12.12,0,0,0,0-.08h.05c.08,0,.11-.11,0-.13h0s0-.05,0-.05a0,0,0,0,0,0,0l-.08,0s0,0,0,0a.18.18,0,0,0-.1,0,.09.09,0,0,0,0,.1h0S258.23,248.77,258.26,248.8Zm2.29-1.55,0,.06a.38.38,0,0,0,.23.11.13.13,0,0,0-.06.18.56.56,0,0,0,.19.22l0,0a.08.08,0,0,0,.07,0,.17.17,0,0,0,.08-.1s0,0,0-.05a.14.14,0,0,0,.09,0c-.1-.1-.21-.18-.31-.27l-.5-.39a.11.11,0,0,0-.1.06C260.3,247.17,260.45,247.26,260.55,247.25Zm-5.06,3.94a.21.21,0,0,0,.15.05v0l0,0a.09.09,0,0,0,.07,0,.22.22,0,0,0,.08-.09l.13-.07a.43.43,0,0,0,.22.27.37.37,0,0,0,.18,0l.06,0h0l.09.11,0,0s0,0,0,0a.08.08,0,0,0,0,0c.06,0,.19,0,.18,0a.07.07,0,0,0,0,0,.23.23,0,0,0,0-.14c.12,0,.21-.12.16-.23s-.11-.06-.18-.06h-.1a.41.41,0,0,0,.1-.13.94.94,0,0,0,.06-.24,1.6,1.6,0,0,0,.05-.21.14.14,0,0,0,.09.05h0a.08.08,0,0,0,.09,0,.62.62,0,0,0,.43.39h.08a.29.29,0,0,0-.25.19.18.18,0,0,0,.31.16.45.45,0,0,0,.14-.27h0a.06.06,0,0,0,.05,0,.15.15,0,0,0,.06,0,0,0,0,0,0,0-.06h0a1.63,1.63,0,0,0,.09-.19c0-.08.1-.16.1-.25a.09.09,0,0,0,0-.07l.06,0a.15.15,0,0,0,.14-.08c0-.06-.06-.14-.13-.08a.2.2,0,0,0-.08.12h0c0-.07-.13-.06-.19,0l-.06.07h0l0-.06a.33.33,0,0,0,.24-.09,0,0,0,0,0,0-.05l-.07,0a.43.43,0,0,0,0-.07.25.25,0,0,0-.1-.3c-.15-.1-.38,0-.29.17s0,0,0,.06a.1.1,0,0,0,0,.09h.05a.1.1,0,0,0,.05,0c-.16,0-.23.12-.1.15a0,0,0,0,1,0,0,.51.51,0,0,0-.45-.09.21.21,0,0,0-.08-.18c-.12-.09-.3,0-.33.06a.09.09,0,0,0,0,.09.05.05,0,0,0,0,0,0,0,0,0,0,0,0h0a.52.52,0,0,0-.06.13l0,.11a.34.34,0,0,0-.11-.23.3.3,0,0,0-.21,0,.05.05,0,0,0,0,0v0s-.05,0-.07,0,0,0,0,.06a.2.2,0,0,0-.08,0,.27.27,0,0,0-.11.15.39.39,0,0,0-.28.08.25.25,0,0,0,0-.24l0,0h0c0,.09.05.19.15.16a.1.1,0,0,0,.06-.05.14.14,0,0,0-.06-.2.11.11,0,0,0-.15-.05.11.11,0,0,0-.14-.08c-.07,0-.09.09-.07.16h-.06l-.07,0a.2.2,0,0,0-.21-.06c0-.07,0-.12-.09-.13h.08a.1.1,0,0,0,0-.17A.4.4,0,0,0,255,250l-.14,0c.07-.06,0-.2-.11-.15a.05.05,0,0,0,0,0,.13.13,0,0,0,0,.06l-.27-.06h-.09c-.16,0,0,.19.09.22a1.08,1.08,0,0,0,.27.1,1.42,1.42,0,0,0,.29.1h0a.14.14,0,0,0-.09.07c-.06.07-.1.28.07.24h0a.07.07,0,0,0,0,0l0,0,0,0a.26.26,0,0,0-.13.2.13.13,0,0,0,0,.06.2.2,0,0,0,.11.16l0,0s0,0,0,0l.05,0a.45.45,0,0,0,.28-.07A.23.23,0,0,0,255.49,251.19Zm1.71-1.63c-.13.09.1.17.17.18a1.51,1.51,0,0,0,.3,0,1.61,1.61,0,0,0,.31,0,.09.09,0,0,0,.07,0c.08-.05,0-.13,0-.17a.44.44,0,0,0-.16,0h-.18c.17-.16.12-.35-.08-.18a.24.24,0,0,0-.09.18l-.22,0Zm3.67,2.38a.21.21,0,0,0,.14-.15.19.19,0,0,0,0-.08,1.08,1.08,0,0,0,.27-.1l0,0,.05,0a.09.09,0,0,0,0-.07l0,0c.08-.11-.11-.12-.2-.12l-.05,0a.23.23,0,0,0,.12-.12.28.28,0,0,0-.05-.3.64.64,0,0,0-.37-.22.41.41,0,0,0,0-.16s0,0,0,0h0v0h0a.09.09,0,0,0,0-.06c-.12-.1-.43-.07-.24.09h0l-.05.07a.2.2,0,0,0-.11-.08h0a.07.07,0,0,0,.07,0,0,0,0,0,0,0-.05c0-.06-.15-.1-.18,0s0,.09.08.1a.65.65,0,0,0-.24,0c-.05-.07-.24,0-.19.06a.05.05,0,0,0,.05,0h0a.16.16,0,0,0,0,.08.39.39,0,0,0,.1.08c0,.14.06.29.22.27a.14.14,0,0,0,.11-.1l0,0a.12.12,0,0,0,.1,0,.66.66,0,0,0,.15.27l0,0a.29.29,0,0,0-.32.07.41.41,0,0,0,0,.09c-.06,0-.11.07-.07.13s0,0,.07.05a.08.08,0,0,0,0,0C260.48,251.79,260.7,252,260.87,251.94Zm-11.11-.05s0,.05.07,0a0,0,0,0,0,0-.07h0S249.75,251.86,249.76,251.89Zm.38,1.08,0,0s0,0,0,.06,0,.05.06,0A0,0,0,0,0,250.14,253Zm.89-.46c.05,0,.1,0,.05-.07h0c.08-.1-.14-.13-.21-.13a1.36,1.36,0,0,0-.29,0,1.55,1.55,0,0,0-.31.06l-.07,0h0a.06.06,0,0,0-.07,0c-.08,0,0,.2.11.15v0l0,0h.16a2,2,0,0,0,.55-.11Zm-.84-1a.26.26,0,0,0,.22,0s0,0,0,0l-.05,0,.06,0s.05,0,.06-.06-.17-.1-.24-.08a.81.81,0,0,0-.27.11,1.34,1.34,0,0,0-.27.13s0,0,0,.06,0,.07,0,.1a.08.08,0,0,0,0,.07c.05.12.34.23.27,0l-.06-.08,0,0Zm-.42-.67h-.08c-.1,0-.17.19-.05.23S249.93,250.89,249.77,250.85Zm.13.24a.11.11,0,0,0-.08,0c-.11,0-.24.12-.14.2S250,251.18,249.9,251.09Zm4.19.06c0,.13.15.35.22.14,0-.06,0-.2-.08-.22h0a.09.09,0,0,0,0-.07.07.07,0,0,0-.07,0h0a.06.06,0,0,0,0,.07l0,0h0A.13.13,0,0,0,254.09,251.15Zm-3.7,2.23c.13,0,.23-.31.12-.42.05,0,.06-.06,0-.15a.34.34,0,0,0-.26-.1s0,0,0,0a.16.16,0,0,0,.05.09.52.52,0,0,0,.11.1h0s0,0,0,0a.07.07,0,0,0-.07,0s0,0,0,.06h0l-.09.11a.17.17,0,0,0,0,.25A.25.25,0,0,0,250.39,253.38Zm4.09-2.91c.16-.05,0-.18-.11-.2a1.47,1.47,0,0,0-.28-.08,2.84,2.84,0,0,0-.31-.06l-.08,0a.09.09,0,0,0,0,.16l-.05,0-.11.08h0a0,0,0,0,0-.07,0h0a.08.08,0,0,0,0,.08.34.34,0,0,0-.1.21h0l0,0s-.05,0-.07,0a.24.24,0,0,0-.06.09.48.48,0,0,0-.18.43.29.29,0,0,0,.29.15.37.37,0,0,0,.19-.08.25.25,0,0,0,0,.07.29.29,0,0,0,.13.08l.17.07c-.12,0-.18.12-.1.16h0l0,0a.09.09,0,0,0,.08.15.09.09,0,0,0,0-.16h0a.14.14,0,0,0,.14-.11,0,0,0,0,0,0,0,1,1,0,0,0,.25.07h.08c.17,0,0-.18-.07-.22a1.23,1.23,0,0,0-.26-.12,1.66,1.66,0,0,0-.29-.1h-.07a.48.48,0,0,0,.06-.18c.11.12.25.11.17-.07l0-.06a.24.24,0,0,0,.17.06.39.39,0,0,0,.29-.18s0,0,.06,0,0,0,0-.05a.13.13,0,0,0-.06-.13h0a.19.19,0,0,0,0-.08,1.09,1.09,0,0,0,.26,0Zm-2.57,1c.13.06.31-.16.16-.22H252l0,0h0s-.06,0-.05,0h0C251.84,251.4,251.83,251.47,251.91,251.51Zm2.17.69s0,.06,0,.06a.06.06,0,0,0,.06,0l0,0S254.1,252.18,254.08,252.2Zm-1.66-1.45c.13-.1-.12-.15-.19-.15l-.3,0h-.09a.13.13,0,0,0,0-.12l0,0a.15.15,0,0,0-.07,0,.14.14,0,0,0,0,.14l0,0-.07,0s0,.07,0,.1h0a.28.28,0,0,0-.19-.12s0,0,0,0,0,.06,0,.1l.09.12v0h0a.13.13,0,0,0-.11.14s0,0-.05,0,0,0,0,.06h.06a.11.11,0,0,0,.08,0h0s.08.06.18,0a.33.33,0,0,0,.17-.16h0a.11.11,0,0,0,.08,0c.11,0,.21-.16.09-.22h0a1.7,1.7,0,0,0,.45-.08Zm-1,1a0,0,0,0,0,0,.05h0a.08.08,0,0,0,.08,0s.09,0,0-.08A.11.11,0,0,0,251.45,251.73Zm4.2-6.23c-.07.13.1.47.32.37a.13.13,0,0,0,0-.15v-.15a.19.19,0,0,0-.18-.19C255.77,245.37,255.7,245.41,255.65,245.5Zm-3.75-.93s0,0,0-.06-.32,0-.2.07a.17.17,0,0,0,.18,0S251.9,244.59,251.9,244.57Zm-5.39,1.84a.54.54,0,0,0,.12.09l.13.06c-.07.07,0,.18.07.15a.22.22,0,0,0,0,.22.19.19,0,0,0-.06.07,1.63,1.63,0,0,0-.11.23,2.5,2.5,0,0,0-.09.25.22.22,0,0,0,0,.08c0,.07.14.06.2,0a.42.42,0,0,0,.08-.12A1.63,1.63,0,0,0,247,247a.09.09,0,0,0,0-.07l0,0h0a.25.25,0,0,0,.05-.2l.09,0a.67.67,0,0,0,.21.09.13.13,0,0,0,0,.18l0,0c-.07.06-.1.16,0,.2s.27-.15.16-.22h0a.33.33,0,0,0,.14-.29v0a0,0,0,0,1,0,0v0h0v0a.33.33,0,0,0-.22-.24h0a.15.15,0,0,0-.09-.15.24.24,0,0,0-.18.05l-.08.06h-.06c-.06,0-.14,0-.13.07s0,0,0,0h0l-.24-.11a0,0,0,0,0,0,0,.1.1,0,0,0-.05-.13c-.07,0-.17,0-.12.08a.19.19,0,0,0,.06.07h0C246.47,246.26,246.46,246.35,246.51,246.41Zm11,2.46a.11.11,0,0,0,.08,0s.05,0,.05,0h0a.07.07,0,0,0-.08,0C257.49,248.8,257.45,248.84,257.49,248.87Zm-5.81-4.07s.06.1.1.11.05,0,.07,0a.13.13,0,0,0,0-.14C251.76,244.68,251.65,244.72,251.68,244.8Zm.6.9c.07.11.37,0,.28-.1l0,0h.14s0,.05.06,0,0,0,0,0a.33.33,0,0,0,.18-.08s0-.07,0-.11l.13,0a.24.24,0,0,0,.24-.21.31.31,0,0,0-.15-.27c-.15-.12-.45-.19-.57-.08a.19.19,0,0,0,0,.19.46.46,0,0,0,.19.24h-.11l0,0s0,0,0,0h0a.16.16,0,0,0,0,.29C252.38,245.53,252.22,245.6,252.28,245.7Zm-.76-.39a.66.66,0,0,0,.36.06.1.1,0,0,0,.05,0h.1a.05.05,0,0,0,0,0c.09,0,.21-.1.11-.14h0l0,0a.14.14,0,0,0-.15-.05,0,0,0,0,0,0,0,.18.18,0,0,0,0-.07h0s0,0,0,0,0-.05-.07,0,0,0,0,.06a.33.33,0,0,0-.23-.1C251.44,245,251.33,245.22,251.52,245.31Zm1-.37,0,0s-.05,0-.07,0,0,0,0,.06A.06.06,0,0,0,252.52,244.94Zm-11.83,5.57a.2.2,0,0,0,.18-.13.33.33,0,0,0-.18-.37l0,0c.07,0,.12-.11.05-.15h-.05a.08.08,0,0,0-.15,0l0,.07c-.16-.06-.38-.08-.47,0a.19.19,0,0,0,0,.2.38.38,0,0,0,.1.13.11.11,0,0,0-.09.07c-.13.07-.15.25,0,.29a.61.61,0,0,0,.36,0l0,0h0s0,0,.08,0a.15.15,0,0,0,.06,0A.18.18,0,0,0,240.69,250.51Zm3.89-4.27c-.18-.06-.5-.05-.56.08s0,.11,0,.19a.68.68,0,0,0,.62.22.21.21,0,0,0,.13-.13l0,0a.05.05,0,0,0,0,0,.14.14,0,0,0,.15,0h.1c.05,0,.07-.07,0-.16a.34.34,0,0,0-.29-.19.19.19,0,0,0-.13.05Zm-4,5.06,0,0s0,0-.06,0,0,.05,0,.05A.06.06,0,0,0,240.54,251.3Zm5.74-4.46a.14.14,0,0,0-.11,0,0,0,0,0,1,0,0l-.07,0-.11,0h-.17s0-.08,0-.09h-.06a.12.12,0,0,0-.06.1.3.3,0,0,0-.21.16.2.2,0,0,0,.08.18.74.74,0,0,0,.66.11l0,0a.23.23,0,0,0,.18-.06,0,0,0,0,0,0,0h0a.1.1,0,0,0,.09,0s0-.09,0-.09h0a.09.09,0,0,0,0-.06l-.06,0A.13.13,0,0,0,246.28,246.84Zm-1.37-.72a.09.09,0,0,0,0-.05c0-.06-.11-.13-.17-.07S244.84,246.19,244.91,246.12Zm.43-.45a.32.32,0,0,0-.21-.06c-.19,0-.28.23-.08.3a.88.88,0,0,0,.29,0,.2.2,0,0,0,.18.17s0,0,0,0l0,0c-.18.18-.09.39.08.2a.21.21,0,0,0,.05-.23s0,0,0,0h0v0a.26.26,0,0,0,.11-.1v0h0s.06,0,.05,0l0,0s-.05,0-.06,0a.34.34,0,0,0-.23-.31h0a.05.05,0,0,0,0-.09l-.06,0s0,0,0,.06h0Zm3.42-1a.14.14,0,0,0-.11,0c-.06,0-.07.09-.07.15V245a.19.19,0,0,0,.36.09.23.23,0,0,0,0-.12l0,0a.29.29,0,0,0,0-.14,2,2,0,0,0,.28-.23h.08l.08,0a.22.22,0,0,0,.13.08.14.14,0,0,0,.09,0,.14.14,0,0,0,0,.1c0,.06.06.11.17.14a.25.25,0,0,0,.15,0,.44.44,0,0,0,.32,0,.59.59,0,0,0,.25-.27s0,0,0,0a.2.2,0,0,0,0,.19.58.58,0,0,0,.2.22.08.08,0,0,0,0,.09c0,.09.21.07.27,0h.1a.23.23,0,0,0,.21-.22.33.33,0,0,0-.17-.27.76.76,0,0,0-.37-.1h0s0,0,0-.05a.07.07,0,0,0-.06,0,.17.17,0,0,0-.15,0,.14.14,0,0,0,0-.07l0,0c-.17,0-.34,0-.5,0a.51.51,0,0,0-.22.18l-.08,0a.05.05,0,0,0,0-.06v0a.2.2,0,0,0-.11-.13l-.57.06-.12.09Zm7.39,1.69s.06,0,.06,0v0h0v0s0,0-.06,0,0,0-.06,0a0,0,0,0,0,0,.07h.06S256.1,246.33,256.15,246.35Zm-15.73,5.47h0a.08.08,0,0,0,.09,0s0-.08,0-.08a.07.07,0,0,0-.06,0S240.4,251.8,240.42,251.82Zm15.48-5.16s-.05,0-.06,0a.12.12,0,0,0,0,.14.13.13,0,0,0,.12,0s0,.08.13.1a.34.34,0,0,0,.34-.09.17.17,0,0,0-.22-.25.56.56,0,0,0-.23.18v0A.27.27,0,0,0,255.9,246.66Zm.1-.62a.16.16,0,0,0,.12,0,.12.12,0,0,0,.09.08l0,.05a.35.35,0,0,0,.25.12s0,0,0,0,0-.06,0-.09l0,0a.26.26,0,0,0,.12-.05.17.17,0,0,0-.17-.28,1,1,0,0,0-.21.1.08.08,0,0,0-.06-.08h-.08C256,245.84,255.88,246,256,246Zm1.48,2.5s-.1,0-.08.05,0,0,.05,0a.08.08,0,0,0,.08,0h0A.08.08,0,0,0,257.48,248.54Zm-1.38-1.26a.15.15,0,0,0,.07,0,.14.14,0,0,0,0-.1.2.2,0,0,0,.11,0,0,0,0,0,0,0,0s0,0,0-.06a.2.2,0,0,0-.19,0c-.1,0-.17.07-.15.12S256,247.29,256.1,247.28Zm-1.88-.94,0,0s0,0-.06,0,0,.05,0,.05A.06.06,0,0,0,254.22,246.34Zm-.45,1.11c-.1.08-.11.19-.05.24a.21.21,0,0,0,.23,0,.35.35,0,0,0,.21-.23h0c.14,0,.26-.21.1-.25h-.08l-.07.06a.13.13,0,0,0-.07-.05c-.06,0-.13,0-.18.07Zm.25-.59v0s0,0-.07,0,0,0,0,.06A.06.06,0,0,0,254,246.86Zm-1-.26a.09.09,0,0,0-.07,0c-.07.07-.05.24.09.23h0v0s-.05.06,0,.15a.28.28,0,0,0,.21.16s0,0,.05,0a.11.11,0,0,0,0-.09s0,0,0,0,.13-.06.11-.12,0,0-.06-.05l0,0c0-.07-.06-.13-.14-.1h0C253.2,246.68,253.16,246.58,253.06,246.6Zm2,0c-.12-.05-.23,0-.2.1s-.12.17,0,.21h0a.18.18,0,0,0,.12.07.63.63,0,0,0,.33,0,.1.1,0,0,0,.1.05c.14,0,.16-.28,0-.26a.09.09,0,0,0-.07,0h0a.38.38,0,0,0-.24-.13s0,0,0,0A.08.08,0,0,0,255,246.55Zm.68.85a1.18,1.18,0,0,0-.21-.18,1.37,1.37,0,0,0-.24-.18l-.09,0a.1.1,0,0,0-.09.15.27.27,0,0,0,.1.11h0a.39.39,0,0,0,0,.13s0,.07,0,.11-.13.08-.09.15a.18.18,0,0,0,.13,0,.73.73,0,0,0,.06.21l.06.06h0c-.07.12-.05.23,0,.26l0,.05v0s0,0,0,0,0,.06.05,0a.05.05,0,0,0,0,0l.05,0a.08.08,0,0,0,0-.07.17.17,0,0,0,.07-.09.2.2,0,0,0,0-.21l0,0a.29.29,0,0,0,0-.13,1.59,1.59,0,0,0-.06-.3.59.59,0,0,0,.17.1.11.11,0,0,0,.08,0s.07,0,.08,0l0,0a.13.13,0,0,0,.12,0,.12.12,0,0,0,.14.09.15.15,0,0,0,.06-.05c.05-.08,0-.22-.11-.21l0,0h0c0-.08-.07-.17-.17-.14s-.08.17,0,.23h0A.35.35,0,0,0,255.72,247.4Zm-2.53-2.87,0,0s0,0-.06,0,0,.06,0,.05S253.21,244.55,253.19,244.53Zm3.93,7.43a.06.06,0,0,0,.06-.05l0,0s-.05,0-.07,0S257.07,252,257.12,252Zm-13.74-2.3c-.1,0-.33.05-.22.16a.15.15,0,0,0,.09,0C243.41,249.88,243.63,249.69,243.38,249.66Zm-1.63,2s.07,0,.07,0v0s0,0-.08,0S241.71,251.69,241.75,251.7Zm1.52-.75a.21.21,0,0,0,.13-.26.35.35,0,0,0-.25-.22.64.64,0,0,0-.2,0,.24.24,0,0,0-.15-.13.67.67,0,0,0,.5-.07h0s.06,0,.11,0a.12.12,0,0,0,0-.15.08.08,0,0,0,0,0,.07.07,0,0,0-.06,0,.2.2,0,0,0-.05-.09.41.41,0,0,0-.32-.13.88.88,0,0,0-.27.06l0,0a.05.05,0,0,0-.06-.08l-.06.05a0,0,0,0,0,0,.06h.06a.43.43,0,0,0-.15.09h0c-.08,0-.19,0-.14.11s.06,0,.1,0a.23.23,0,0,0,.13.16.53.53,0,0,0,.15.05h-.08a.14.14,0,0,0-.08.14v.07l0,0a.19.19,0,0,0,0,.19l.05.05c0,.06.06.09.11.07A.62.62,0,0,0,243.27,251Zm2.3-.66c.06.07.24,0,.17-.1l-.05,0C245.61,250.16,245.51,250.23,245.57,250.29Zm-1.18,1.17a0,0,0,0,0,0-.06l0,0s0,0-.06,0S244.34,251.47,244.39,251.46Zm1-1.11h0s0,0,0,0,0,.05.06,0,0,0,0,0h0a.06.06,0,0,0,.06,0v0S245.42,250.33,245.4,250.35Zm-1.06.17s0,0,0,.06.07,0,.07,0v0S244.36,250.5,244.34,250.52Zm-1.4.86,0,0c-.08,0-.18,0-.13.11S243,251.45,242.94,251.38Zm-.09.79a.06.06,0,0,0,.08,0,0,0,0,0,0-.05-.08.08.08,0,0,0,0,.05s0,0,0,.06Zm-.8-1.65s.06-.08,0-.09a.09.09,0,0,0-.07,0,0,0,0,0,0,0,.06h0A.09.09,0,0,0,242.05,250.52Zm0,1.33a.09.09,0,0,0-.07,0c-.12,0-.26.1-.17.19S242.19,252,242.07,251.85Zm.12-2.09s0,0,0,0a.2.2,0,0,0-.11,0c-.28,0-.37.26-.09.2A.27.27,0,0,0,242.19,249.76Zm.41-.45s0,.05.06,0a.05.05,0,0,0,0-.08h0S242.6,249.28,242.6,249.31Zm.13-.14a.22.22,0,0,0,.2-.23.31.31,0,0,0-.18-.26c-.16-.1-.47-.14-.57,0a.2.2,0,0,0,0,.2A.67.67,0,0,0,242.73,249.17Zm1.89,1.9h-.08c-.11,0-.2.17-.08.22S244.77,251.13,244.62,251.07Zm3.52-.71v0s0,0-.07,0,0,0,0,.07A.06.06,0,0,0,248.14,250.36Zm-.49.34h0c.08.05.22-.08.13-.13h0a.12.12,0,0,0-.11.09.08.08,0,0,0-.08,0l-.07,0c-.09.07-.1.23,0,.24A.15.15,0,0,0,247.65,250.7Zm-.05-.16h0a.08.08,0,0,0,0-.07.06.06,0,0,0-.1,0,.06.06,0,0,0,0,.06A0,0,0,0,0,247.6,250.54Zm-3,.32s0,0,0-.06l0,0s0,0-.05,0S244.57,250.88,244.62,250.86Zm4.54,1.33s0,0,0,.05,0,0,0,.06h0a.07.07,0,0,0,.07,0S249.22,252.17,249.16,252.19Zm.14-.11s0,0,.06,0,0,0,0-.07h0S249.29,252.05,249.3,252.08Zm-1.48-.69a.08.08,0,0,0,.08,0v0s0,0-.07,0S247.78,251.37,247.82,251.39Zm1.75,1.73a.14.14,0,0,0,.18-.05h0s0,0,0,0,0-.1,0-.12a.11.11,0,0,0-.08,0C249.55,252.92,249.45,253.06,249.57,253.12ZM245,251.88a.11.11,0,0,0-.08,0c-.14.08-.07.27.07.18a.12.12,0,0,0,0-.15Zm-.37.35c-.05.24.15.39.19.15a.25.25,0,0,0-.09-.23s0,0-.05,0A.16.16,0,0,0,244.59,252.23Zm.26-.67c-.08,0-.18.06-.13.12s.24,0,.17-.1A.05.05,0,0,0,244.85,251.56Zm2-.82h0s0,0,0-.06h0s0,0,0,0,0,0,0-.06a.19.19,0,0,0-.1-.13h0a.06.06,0,0,0,0-.06l0,0s-.05,0-.07,0,0,0,0,0a.15.15,0,0,0-.11,0c-.07.08,0,.21.15.22a0,0,0,0,0,0,0A.05.05,0,0,0,246.84,250.74Zm.34.6a.28.28,0,0,0,.3-.12.29.29,0,0,0,0-.31c-.1-.15-.36-.3-.51-.23s-.09.07-.11.17A.55.55,0,0,0,247.18,251.34Zm.3.51c.11,0,.12-.19.05-.25a0,0,0,0,0,0-.06,0,0,0,0,0-.05,0c-.07,0-.14.08-.09.13A.13.13,0,0,0,247.48,251.85Zm8.41-4.13c-.12,0-.25.12-.14.2h0v0s0,.05.06.05h0s0,0,0,0,.22-.13.12-.2A.08.08,0,0,0,255.89,247.72Zm.26.68h0a.09.09,0,0,0-.08-.05c0-.08-.13-.09-.16.06a.2.2,0,0,0,.07.23s0,0,0,0h0s.09,0,.12-.07a.2.2,0,0,0,0-.09l0,0s0-.05,0-.07Zm-1.55-1.17h0c-.11,0-.26.1-.17.19a.2.2,0,0,0,.24,0l0,0a.11.11,0,0,0,.08,0c.1-.05.14-.21,0-.24A.15.15,0,0,0,254.6,247.23Zm-.29.27s0,0,0,.06h0a.08.08,0,0,0,.08,0,0,0,0,0,0,0-.08A.08.08,0,0,0,254.31,247.5Zm0-.79s0,.12,0,.15,0,0,0,0,0,.06.06,0a0,0,0,0,0,0-.07h0l0,0C254.5,246.76,254.43,246.67,254.35,246.71Zm1.6,2.63a.31.31,0,0,0,.27,0s0,0,0,0-.05,0-.09-.06C255.9,249.12,255.68,249.24,256,249.34Zm-1.78-1.76a0,0,0,0,0,0,.07h0s0,0,0-.07A0,0,0,0,0,254.17,247.58Zm2.65,1.62,0,0s0,0,0-.05,0,0-.06,0A0,0,0,0,0,256.82,249.2Zm.23-.47c0-.1-.11-.18-.17-.07s0,.11,0,.15,0,0,0,0a.07.07,0,0,0,.06,0h0a.06.06,0,0,0,.05,0s.05,0,0-.06l0,0S257.06,248.72,257.05,248.73Zm-.39.93c-.11-.09-.36-.11-.24.07l0,0a.11.11,0,0,0,0,.07q0,.09.15.15a0,0,0,0,0,0,0c0,.07.1.14.16.08s0-.07,0-.1c.18,0,.39-.16.28-.3s-.11-.05-.18,0Zm0-1.06a.09.09,0,0,0-.07,0c-.1.06-.13.22,0,.24S256.85,248.62,256.68,248.6Zm-.35.32c-.06.06.07.18.14.12s.2-.1.13-.18a.09.09,0,0,0-.07,0,.25.25,0,0,0-.19.07Zm-.05-.7a.12.12,0,0,0,0,.16l0,0s.05.07.09,0a.06.06,0,0,0,0-.07h0C256.49,248.28,256.4,248.13,256.28,248.22ZM253.5,248a0,0,0,0,0,0,0l0,0s-.05,0-.05,0h0a.2.2,0,0,0-.1,0,.35.35,0,0,0-.34.1.16.16,0,0,0,.14.26c-.09.1,0,.24.12.15l0-.06.05,0,.15,0,0,0c-.1,0-.14.12-.07.16-.12.1-.09.22.1.13a.24.24,0,0,0,.16-.19s0,0,0,0h0s0,0,0,0a.08.08,0,0,0,0-.08.08.08,0,0,0,0-.08h.07a1.1,1.1,0,0,0,.26.06l0,0a1.07,1.07,0,0,0,.18.19h-.11c-.1,0-.21,0-.31,0l-.07,0c-.08.05,0,.13,0,.16a.41.41,0,0,0,.16,0,2.63,2.63,0,0,0,.56,0h0a.1.1,0,0,0,.11-.14.42.42,0,0,0-.08-.12l-.16-.16c.08,0,.16-.11.07-.15h-.05c0-.08,0-.19-.08-.19l-.07,0a.15.15,0,0,0-.06.16h0l0,0a.39.39,0,0,0-.15-.06l-.11,0a.09.09,0,0,0-.06-.12h-.08a.16.16,0,0,0-.08.06h-.06A.21.21,0,0,0,253.5,248ZM246,246.22a0,0,0,0,0-.07,0h0a.06.06,0,0,0,0,.08s.09,0,.1,0A.09.09,0,0,0,246,246.22Zm-4.16,5.11a.06.06,0,0,0,0-.07l0,0s-.05,0-.06,0S241.78,251.33,241.83,251.33Zm2.68-5.45s0,.05,0,.06.07,0,.07,0v0S244.53,245.86,244.51,245.88Zm1.64-.24c-.06,0-.19,0-.22.09s-.2.11-.13.18a.09.09,0,0,0,.09,0c-.06.11.05.24.15.13h0a.08.08,0,0,0,.08,0v0s0,0-.05,0,0,0,0,0,.3-.12.19-.2C246.29,245.71,246.3,245.65,246.15,245.64ZM240,251c0-.07-.16-.06-.16,0a.13.13,0,0,0,0-.1h0a.08.08,0,0,0,0-.08l-.07,0h0a1.35,1.35,0,0,0,.11.34.14.14,0,0,0,.06-.11s0,.11,0,.13,0,0,.08,0A.1.1,0,0,0,240,251Zm4.51-5.34h0a.08.08,0,0,0,.07,0s0,0,0,0l-.11.05S244.45,245.66,244.47,245.66Zm1.46.69s0,0,0,.06a.06.06,0,0,0,.08,0v0S246,246.33,245.93,246.35Zm6.25-.33c0-.15-.23-.19-.21,0s.05.08.11.1,0,0-.06.07l-.06.13a.17.17,0,0,0,0,.25.25.25,0,0,0,.23,0,.32.32,0,0,0,.1-.21c.08,0,.18,0,.2,0h0a.18.18,0,0,0,.17-.08s0,0,0,0a.16.16,0,0,0,.11,0s0,0,0-.07a.18.18,0,0,0-.16,0,.08.08,0,0,0,0,.08.14.14,0,0,0-.11.06.19.19,0,0,0-.2,0,.19.19,0,0,0-.12-.07Zm1.24.19c-.11,0-.27.08-.19.17s.36,0,.26-.13Zm-1.18-.89s-.05,0-.06,0,0,.06,0,0,.05,0,0-.06Zm-4.69-.51.06,0,0,0s0,.11,0,.14,0,0,.08,0a.1.1,0,0,0,0-.13s0,0,0,0,.17-.11.1-.18h0l-.21,0A.09.09,0,0,0,247.55,244.81Zm1-.19a.33.33,0,0,0,.26-.08s0,0,0,0h0l-.39.06S248.41,244.6,248.51,244.62Zm2.3-.28h0a.14.14,0,0,0,.09,0Zm2.6,8.65s0,0,0-.06,0-.05-.07,0a0,0,0,0,0,0,.07Zm-13-1.25a.38.38,0,0,0-.15-.27s0,0,0,0a.15.15,0,0,0-.05-.14c-.08,0-.18,0-.13.09l0,0a.14.14,0,0,0-.11,0,.27.27,0,0,0,0-.09s0,0,0,0a.16.16,0,0,0-.1.05l0,0a2.3,2.3,0,0,0,.45.49A.24.24,0,0,0,240.42,251.74Zm5.52-6.6a.2.2,0,0,0,.19.12h.06l.14.07s0,0,0,.07.36,0,.26-.14h0a.11.11,0,0,0,0,0,.31.31,0,0,0,0-.1l0,0a.25.25,0,0,0,0-.17l-.63.18A0,0,0,0,0,245.94,245.14Zm5.73-.8h-.16A.16.16,0,0,0,251.67,244.34Zm-10.19,8c.07,0,.13,0,.17,0a.08.08,0,0,0,.12,0,.13.13,0,0,0-.05-.16h0a.43.43,0,0,0-.38-.21l0-.05c.09,0,.17-.17.06-.22h-.07a.18.18,0,0,0-.11-.07l-.08,0a1.72,1.72,0,0,0,0-.32,0,0,0,0,1,0,0,.4.4,0,0,0,.16-.2.27.27,0,0,0,.08-.2s0,0,0,0a.21.21,0,0,0-.1,0l0,0a.21.21,0,0,0-.18.06l-.12.1c-.1.08-.11.18-.06.24a.19.19,0,0,0,.09.05.11.11,0,0,0,0,.07s0,.07,0,.1h-.07a.07.07,0,0,0,0,.13h0c0,.05,0,.11,0,.17s-.13,0-.12.07.09.07.14.06l0,0,0,0a.12.12,0,0,0,.05.09.22.22,0,0,0,.2,0s0,.08.07.11l0,0a.32.32,0,0,0-.13.13l0,.09.25.12c0-.05,0-.1,0-.15S241.47,252.33,241.48,252.31Zm4.66.71c.12.06.33-.1.21-.19l-.08,0h0c-.09,0-.32,0-.24.13l-.1.07a1,1,0,0,0-.15.21l-.06.08.3,0a1.18,1.18,0,0,0,.16-.29Zm-3.18-.16,0,0s0,0,0-.05l0,0a.42.42,0,0,0,0-.1.11.11,0,0,0,0-.08c0-.14-.21,0-.25,0l-.05.06h-.08l0-.06a.48.48,0,0,0-.31-.07l0,0v0c.05,0,.07-.13,0-.16h-.08l-.06,0s0,0,0,0l0,0s-.05,0-.06,0,0,.06,0,.05-.06.13,0,.17a.17.17,0,0,0,.1,0,.77.77,0,0,0-.24.12c.3.09.61.17.9.23Zm.26-.15a.06.06,0,0,0-.05,0,.16.16,0,0,0,0,.09.27.27,0,0,0,0,.22l.13,0a.34.34,0,0,0,0-.08A.24.24,0,0,0,243.22,252.71Zm9.75-8.27a0,0,0,0,0,0,0h-.11a0,0,0,0,0,0,0S253,244.49,253,244.44Zm1.24,1.73c0,.06,0,.11.08.15l.12.1.07,0h0s0,0,.07,0h0a.15.15,0,0,0,.13,0c.05,0,.07-.1,0-.19a.21.21,0,0,0-.1-.11l0,0C254.46,246.07,254.26,246,254.21,246.17Zm-.1-.55a0,0,0,0,0-.05,0c-.08,0-.15.1-.07.14S254.21,245.67,254.11,245.62Zm0,.36s0,.11.05.13,0,0,.08,0a.12.12,0,0,0,0-.14C254.22,245.9,254.1,245.9,254.1,246Zm-.36-.45a1.42,1.42,0,0,0-.29,0,1.55,1.55,0,0,0-.31,0l-.07,0c-.07.06,0,.14.06.16a.43.43,0,0,0,.16,0h.14l0,0,.09.12c-.11,0-.23,0-.16.14l.09.05h.11s-.05.11,0,.14a.17.17,0,0,0,.22-.09s0,0,0,0a.2.2,0,0,0,0-.11.25.25,0,0,0,.05-.16.3.3,0,0,0-.06-.11h0a.2.2,0,0,0,.08,0C254.06,245.6,253.82,245.54,253.74,245.53Zm-.5-1s0,0,0,.05,0,0,.06,0a0,0,0,0,0,0-.07Zm1.58,1s0,0,0,0a.05.05,0,0,0,.06,0c.17,0,.28-.12.12-.15A.16.16,0,0,0,254.82,245.53Zm-.06-.85a.67.67,0,0,0-.14.09,1.07,1.07,0,0,0-.25.16s0,0,0,.06v0l0,0,0,0h0a.74.74,0,0,0-.4-.1c0-.07-.11-.12-.18,0a.16.16,0,0,0,0,.09l0,.05a.19.19,0,0,0-.2.16h0l-.09.11c-.08.1-.07.2,0,.25a.23.23,0,0,0,.23,0,.33.33,0,0,0,.14-.18l.11,0a.6.6,0,0,0,.36.12.24.24,0,0,0,.22-.22.22.22,0,0,0,0-.13.14.14,0,0,0,.09,0,.44.44,0,0,0,.15,0l.14-.09a.2.2,0,0,0,.14-.09.5.5,0,0,0,.12-.08l.09,0-.36-.08Zm2.7.77a.14.14,0,0,0,.15.06h0a.83.83,0,0,0,.08.45c-.05,0-.09.07-.05.11l.05,0,.09,0a.44.44,0,0,0,.24.1.54.54,0,0,0,.54-.26l-.5-.22Q257.76,245.56,257.46,245.45Zm-9.4,7.17c.11.08.33-.12.19-.2a.09.09,0,0,0-.07,0C248.06,252.42,248,252.55,248.06,252.62Zm-.05.82s0,0,0,0a0,0,0,0,0,0,0c0-.06-.14-.1-.18,0s0,0,0,0l-.08.05H248Zm-.46,0a.06.06,0,0,0,0-.08.06.06,0,0,0-.06,0,.36.36,0,0,0-.07-.1.09.09,0,0,0,0-.14.11.11,0,0,0-.08,0,.19.19,0,0,0-.12.09h0l-.09-.08h0c.11,0,.28-.07.21-.16l-.07,0c-.11,0-.27.06-.21.15s0,0,0,0h0a.2.2,0,0,0-.11,0h-.05l0,0c.05,0,.05-.08,0-.16a.35.35,0,0,0-.34-.1c-.18.05-.21.28,0,.31h0s0,0,0,.06a.18.18,0,0,0,.17.11.15.15,0,0,0,.1.09.77.77,0,0,0,.27,0v0l0,0,.39,0s0,0,0,0Zm11.36-7.17a.09.09,0,0,0,0,.06c0,.12.28.2.3.06a.07.07,0,0,0,0-.07l0,0h0l.05,0s0,0,0,0a.42.42,0,0,0,.08.31s.1,0,.19,0l.06-.06a.15.15,0,0,0,.17,0l-.69-.38A.24.24,0,0,0,258.91,246.23Zm-15.21,6.68s0,0,0,0h0a.11.11,0,0,0,.08,0s0-.09-.05-.08,0,0-.06,0v0c0-.08-.06-.13-.16,0s-.13.16-.09.22l.14,0,0,0A.3.3,0,0,0,243.7,252.91Zm5,.34a.12.12,0,0,0,.06.06.1.1,0,0,0,0,.05s.1,0,.18,0,0,0,.05-.05h0c.15,0,.2-.26,0-.26h0a.21.21,0,0,0-.34,0c-.09,0-.22,0-.22.12h0a1.12,1.12,0,0,0-.22.16c-.07.06-.17.1-.22.18h.38A2.75,2.75,0,0,0,248.73,253.25Zm-.67-.09s.06,0,.08,0v0s0,0-.06,0S248,253.12,248.06,253.16Zm3.92.33a.12.12,0,0,0-.15-.1.1.1,0,0,0-.07.09s0,0,0,0H252Zm.78-.38h-.1l0,0-.07,0a.43.43,0,0,0-.12.11.29.29,0,0,0-.11-.11h-.06a.15.15,0,0,0,0,.1.25.25,0,0,0,0,.08h0c-.12,0-.18.13-.16.2l.84,0C252.93,253.35,252.89,253.16,252.76,253.11Zm1.13.33a.06.06,0,0,0,0,0h.21A.14.14,0,0,0,253.89,253.44Zm-4.34-.78c-.13,0-.29.18-.13.23a.11.11,0,0,0,.08,0C249.6,252.85,249.68,252.7,249.55,252.66Zm5.36.48-.07,0h-.07a.22.22,0,0,0-.12.09l0,0c0,.07.09.16.16.12h0v0l.59,0C255.28,253.25,255.06,253.09,254.91,253.14Zm-4-5.75c.08,0,.16-.09.09-.14s-.22.06-.14.12Zm3.4,5.63c0-.09-.06-.29-.19-.19a.09.09,0,0,0,0,.08C254.1,253,254.32,253.23,254.35,253Zm-.91.34a0,0,0,0,0-.05,0s0,0,0,.09v0h.19A.23.23,0,0,0,253.44,253.36Zm.75-.75c.17,0,0-.18,0-.22a1.49,1.49,0,0,0-.25-.13l-.07,0a.08.08,0,0,0-.05-.12h-.1a.22.22,0,0,0-.13,0h0a.07.07,0,0,0-.07,0l0,0v0l0,0,0,0c.05,0,0-.16-.06-.15a.07.07,0,0,0-.06,0v0a.08.08,0,0,0,0,0,.11.11,0,0,0-.08,0c-.14,0-.14.21,0,.2h0a.11.11,0,0,0,0,.08s0,0,.08,0h.08l0,.06a.18.18,0,0,0-.24.06.56.56,0,0,0-.05.23H253c-.13,0-.07.31.08.26a.1.1,0,0,0,.06-.05.11.11,0,0,0,0-.08.2.2,0,0,0,.1,0l0,0a.3.3,0,0,0,.27.11.4.4,0,0,0,.27-.2.36.36,0,0,0,0-.11,1.17,1.17,0,0,0,.26.1A.12.12,0,0,0,254.19,252.61Zm1,0a.47.47,0,0,0,.17,0h0l0,0v0l.07-.07a.54.54,0,0,0,.09-.22h0l0,0s0,0,0-.06h0l0,0v0s0,0,0,0a.31.31,0,0,0,0-.1.29.29,0,0,0,.18-.24.24.24,0,0,0-.07-.12.15.15,0,0,0,.12-.05h0s0,0,0-.05a0,0,0,0,0,0,0s0-.05-.1-.05a.14.14,0,0,0-.13.11,0,0,0,0,0,0,0,.17.17,0,0,0-.2.08.45.45,0,0,0,0,.28h0c-.18.05-.39.31-.35.48A.26.26,0,0,0,255.18,252.63Zm-.78-.63a.17.17,0,0,0,.09.11.27.27,0,0,0,.22,0,.56.56,0,0,0,.28-.27c.13,0,.25-.19.11-.24H255a.29.29,0,0,0-.28-.15.4.4,0,0,0-.29.17.48.48,0,0,0-.08.27h-.06a.13.13,0,0,0-.09.11c0,.07.12.11.16,0Zm-3.46,1.44a.18.18,0,0,0-.05-.07s0,0,0,0a.1.1,0,0,0,0-.15l0,0h0a.11.11,0,0,0-.08,0,.06.06,0,0,0-.06,0h0l0,0a.1.1,0,0,0,0,.11h0a.15.15,0,0,0,0,.1l0,.11h.34A.38.38,0,0,0,250.94,253.44Zm.22-.65a.33.33,0,0,0-.28,0s0,0,0,0h0c-.05,0-.1,0-.12.06s.23.24.28.11a.08.08,0,0,0,0-.07l0,0C251.24,253,251.4,252.88,251.16,252.79Zm4.3-.19s0,.05,0,.06.07,0,.07,0v0S255.49,252.58,255.46,252.6Zm-.43-7.35s0,.05,0,.06.07,0,.06-.05v0S255.05,245.23,255,245.25Zm-6.15,8.17h0a0,0,0,0,0,0,0h-.07a.15.15,0,0,0-.12.08h.28S248.93,253.41,248.88,253.42Zm3.81-.44c.15,0,.12-.3,0-.26a.1.1,0,0,0-.07,0C252.52,252.84,252.56,253,252.69,253Zm.13.08.06,0a.18.18,0,0,0,.17-.08.06.06,0,0,0,0,0s0,0-.06,0a.19.19,0,0,0-.19,0s0,0,0,0Zm.45.41a.23.23,0,0,0,.09-.25h0s.06,0,.05-.05l0,0s0,0-.06,0h0c-.1-.1-.29-.1-.33.05a.48.48,0,0,0,0,.29h.25A0,0,0,0,0,253.27,253.47Zm3.33-8.14-.17.08,0,0h-.07a.2.2,0,0,0-.1.07c-.05-.09-.15-.1-.16.06a.23.23,0,0,0,.1.22.07.07,0,0,0,.06,0s0-.06,0-.09a.22.22,0,0,0,0-.08h0s.07.08.14.07a.42.42,0,0,0,.15,0,2.37,2.37,0,0,0,.47-.26l0,0-.26-.09Zm.9,1h0s0,0-.06,0,0,0,0,.09c0,.25.24.36.22.11l0-.08a.09.09,0,0,0,0,0C257.61,246.35,257.55,246.32,257.5,246.33ZM255.93,245l-.13,0A.09.09,0,0,0,255.93,245Zm1.32,1.16c0,.13.25.23.29.09a.2.2,0,0,0,0-.07C257.47,246.05,257.28,246,257.25,246.11ZM255.33,245s0,.05,0,.07.06,0,.07,0v0S255.36,244.94,255.33,245Zm-.4.8,0,.07c0,.08.09.12.17.09a.11.11,0,0,0,.07,0s0,.05.05.05a.05.05,0,0,0,0-.07l0,0h0l.08-.06v.07a1.61,1.61,0,0,0,.08.48s0,0,0,.06.14,0,.17-.09a.08.08,0,0,0,.08,0c.09,0,.14-.08.14-.15a.26.26,0,0,0,.13.09.06.06,0,0,0,.06,0,.17.17,0,0,0,0-.1c0-.24-.29-.32-.23-.08l-.05,0a.11.11,0,0,0-.08,0l0,0a1.09,1.09,0,0,0,0-.18,1.19,1.19,0,0,0,0-.26.16.16,0,0,0,0-.07h0l.14-.15a.08.08,0,0,0,0,0s.09,0,.06-.06l-.06,0,0-.06a.17.17,0,0,0-.06-.24.23.23,0,0,0-.23,0,.31.31,0,0,0-.06.36.83.83,0,0,0-.15.11A1.9,1.9,0,0,0,254.93,245.75Zm2.71.4a.15.15,0,0,0-.06,0,0,0,0,0,0,0,.06h0a.1.1,0,0,0,.08,0S257.69,246.14,257.64,246.15Zm-.79,0s0,0,0-.07-.05,0-.07,0,0,0,0,.06Zm3.46,6.13h-.08s0,0,0,0-.24,0-.18.07l0,0a.13.13,0,0,0,0,.18.68.68,0,0,0,.25.14l.16,0a.15.15,0,0,0,0-.07A.28.28,0,0,0,260.31,252.31Zm-1.68.69c.05,0,.05-.1-.08-.12s-.34,0-.23.16l0,0,0,0a.08.08,0,0,0,0,0l.53-.09Zm-1.05.08v0h0s0,0,0-.06a.16.16,0,0,0-.06-.08l0-.07a.16.16,0,0,0-.05-.24.22.22,0,0,0-.23,0,.26.26,0,0,0-.1.22.25.25,0,0,0,0,.07.15.15,0,0,0,0,.07.05.05,0,0,0-.06,0c0,.05.05.09.11.1a.39.39,0,0,0,.17.14l.17,0S257.59,253.13,257.58,253.08Zm-.43-7c.06,0,.07-.15,0-.16s-.14.16,0,.17Zm-.27.7a.19.19,0,0,0,.05.09l0,0c.11.12.32,0,.2-.07l-.06,0,0,0a.22.22,0,0,0-.15-.06S256.88,246.74,256.88,246.78Zm.28,2.2c-.14,0-.08.3.08.26s0,0,.06-.05S257.29,249,257.16,249Zm-3.35.77a.11.11,0,0,0-.08,0c-.15.07-.08.26.06.18a.13.13,0,0,0,.05-.16Zm-.17.26,0,0s-.05,0-.06,0,0,.06,0,.06S253.65,250,253.64,250Zm1.08-1.56h.05c0,.06,0,.12.11.09s0,0,0,0a.07.07,0,0,0,0-.05.38.38,0,0,0,.16,0s.06-.07,0-.16a.37.37,0,0,0-.33-.14C254.58,248.17,254.52,248.39,254.72,248.45Zm-.86,1.67c.14,0,.24-.22.08-.25h-.08C253.77,249.94,253.73,250.1,253.86,250.12Zm.54,1.18a.05.05,0,0,0,0-.06l0,0s-.05,0-.06,0S254.35,251.29,254.4,251.3Zm.15,0h0l0,0h.05a0,0,0,0,0,0,0,.26.26,0,0,0,.14,0s0,0,0,0a.23.23,0,0,0-.09-.06l-.08,0a.1.1,0,0,0-.14,0C254.42,251.12,254.37,251.2,254.55,251.26Zm-.65-1.75a.21.21,0,0,0,.21.08c.17,0,.44-.29.24-.41h-.06c0-.07-.15-.11-.21,0s0,.08,0,.12l-.06,0C253.9,249.34,253.86,249.44,253.9,249.51Zm-1.2,1.73h0a.09.09,0,0,0,.08.09c.12,0,.22-.17.13-.23.07-.1.09-.21,0-.27a.22.22,0,0,0-.19,0l-.14.08c-.11.07-.15.16-.11.23A.23.23,0,0,0,252.7,251.24Zm-.13-1.58c.08,0,.14-.08.1-.15a.13.13,0,0,0-.09,0,.43.43,0,0,0,0-.16l0,0v0l0,0c.06-.1-.05-.12-.15-.12a.24.24,0,0,0-.13-.09.24.24,0,0,0-.21.07.36.36,0,0,0-.12.15.58.58,0,0,0-.18.08l0,0a.15.15,0,0,0-.11-.07c-.06,0-.12,0-.16.08l-.07.07c-.06,0-.12,0-.15,0a.1.1,0,0,0,0,.09l0,0a.13.13,0,0,0,0,.11.22.22,0,0,0,.23,0,.35.35,0,0,0,.19-.27.11.11,0,0,0,.08,0H252a.34.34,0,0,0,0,.14h0s-.07,0-.07.07,0,.06.08.06a.06.06,0,0,0,0,.07.17.17,0,0,0,.15,0c.09,0,.1-.12,0-.14h0v0a.4.4,0,0,0,.19,0l0,0s0,.06.05.07A.1.1,0,0,0,252.57,249.66Zm-1,.13s-.06,0-.09.06c-.17.2-.06.4.09.2a.22.22,0,0,0,0-.24Zm1.45,2.45a.06.06,0,0,0-.07,0l0,0s0,0,.05,0S253.05,252.28,253,252.24Zm-.13.22h0a.1.1,0,0,0,0-.05c0-.15-.17-.24-.19-.09S252.84,252.43,252.9,252.46Zm.08-.3a0,0,0,0,0,0,0c0-.06-.15-.1-.18,0S253,252.25,253,252.16Zm2.29-3.45s0,0-.05-.05-.28,0-.25.1S255.32,248.85,255.27,248.71Zm.63,1.15a.06.06,0,0,0,0-.06s0-.05-.06,0h0a.05.05,0,0,0,0,.07A.05.05,0,0,0,255.9,249.86Zm.42-.12a.22.22,0,0,0,0-.08c0-.07-.14-.07-.2,0a.5.5,0,0,0-.08.12,1.57,1.57,0,0,0-.16.46s0,.06,0,.08.17,0,.23-.05.11,0,.14-.09a.29.29,0,0,0,0-.16h0C256.25,249.91,256.32,249.82,256.32,249.74Zm-.81.08c-.1.05-.15.21,0,.24s.26-.22.1-.25A.11.11,0,0,0,255.51,249.82Zm.09-.85c-.08,0-.22.14-.24.23s0,.09.13.11a.34.34,0,0,0,.34-.1C255.94,249.07,255.79,248.88,255.6,249Zm-.6.66c-.09,0-.08.19,0,.17s0,0,0,0S255.09,249.61,255,249.63Zm.81,0s0,0,0,0,.19,0,.17-.06S255.78,249.56,255.81,249.65Zm-1.07-1.1h0a.07.07,0,0,0,0,.07s.07.07.1,0a.06.06,0,0,0,0-.07A.07.07,0,0,0,254.74,248.55Zm.32-1.5a0,0,0,0,0,0-.07l0,0s0,0-.05,0S255,247.06,255.06,247.05Zm-3.54,3.17a.1.1,0,0,0,0,.09c0,.13.33.24.26,0S251.6,250.09,251.52,250.22Zm3.33-2.15a.12.12,0,0,0,.07-.12c0-.07-.13-.1-.16,0s0,.11,0,.14S254.81,248.09,254.85,248.07Zm-.13,1.49h.05a.07.07,0,0,0,0,0,0,0,0,0,0,0,0,.32.32,0,0,0,.18.11s0,0,0,0,0-.06,0-.09a.31.31,0,0,0-.21-.2.08.08,0,0,0-.13,0,.06.06,0,0,0,0,0,.07.07,0,0,0,0,0A.13.13,0,0,0,254.72,249.56Zm.51-.52s-.06,0-.07,0a.06.06,0,0,0,.06.05h0S255.25,249.06,255.23,249Zm-.56-1.59h-.08c-.12,0-.22.15-.11.22a.11.11,0,0,0,.11,0h0v0C254.71,247.58,254.75,247.5,254.67,247.45Zm1.09,2.15a.06.06,0,0,0,0,.07l0,0s0,0,.06,0S255.81,249.6,255.76,249.6Zm-5.91-3.51a.09.09,0,0,0-.07,0c-.11,0-.26.09-.18.18l0,0a.28.28,0,0,0-.12.15c-.12,0-.2.05-.22.12s0,.12.11.17,0,0,.08,0,.06.06.12,0l.05,0a.34.34,0,0,0,.2-.09.5.5,0,0,0,.21,0h0s0,.05,0,.07h0s.06,0,.09,0,0-.08,0-.08a.46.46,0,0,0,.18-.11.21.21,0,0,0,0-.28l-.12-.07a.19.19,0,0,0-.2-.14A.12.12,0,0,0,249.85,246.09Zm.59-1.07c-.07,0-.23-.09-.28,0h0a.11.11,0,0,0-.08,0s0,0,0,.06h0a.1.1,0,0,0,.09,0h0l.05.06C250.33,245.22,250.64,245.16,250.44,245Zm-.85,2.54s-.05,0-.06,0-.13,0-.16,0,.1.14.16.11h0c.08,0,.21-.09.12-.14Zm.73-2.1s0,0,0,0,0,.05.07,0a0,0,0,0,0,0-.07Zm-.53,2.61s0,0,0,.05a.06.06,0,0,0,.08,0v0S249.83,248.06,249.79,248.07Zm.14-1.13s0,0,0-.05-.17-.08-.18,0S249.92,247,249.93,246.94Zm.07.68a.24.24,0,0,0,.23,0c.14-.09.18-.46-.07-.46l-.07,0a.08.08,0,0,0,0,0c-.06-.05-.17,0-.15.06a.21.21,0,0,0,.08.11l-.05.09A.16.16,0,0,0,250,247.62Zm1.85-.91a0,0,0,0,0,0-.07l0,0s0,0,0,.06S251.81,246.73,251.85,246.71Zm.58,0a.27.27,0,0,0-.22.08l0,0h-.07a.15.15,0,0,0-.12.14s-.1,0-.09.06a.16.16,0,0,0,.06.13s.05,0,.08,0a.11.11,0,0,0,0-.11h0a.14.14,0,0,0,.08-.09s0,0,0,0a.14.14,0,0,0,.09,0C252.49,247,252.69,246.76,252.43,246.76ZM251,247.9c.12.09.43.07.25-.09s-.3-.14-.29,0A.12.12,0,0,0,251,247.9Zm-.32-1.13-.07,0c-.11,0-.28.06-.21.16S250.74,246.89,250.65,246.77Zm1.49,3.75c0,.08.2.12.21,0a.08.08,0,0,0,0-.05C252.28,250.45,252.15,250.44,252.14,250.52Zm-1.41-5.34a.14.14,0,0,0-.11.13l0,.12c-.11,0-.22.09-.15.17s.11.05.17,0l.08.05a.23.23,0,0,0,.22-.07C251,245.5,251,245.13,250.73,245.18Zm1.17,1.71s-.05,0,0,.06a.06.06,0,0,0,.08,0v0S251.93,246.88,251.9,246.89Zm-.17,3s0,0-.06,0v0h0c-.07.06,0,.21.13.15s0,0,0,0a.11.11,0,0,0,0-.07h0S251.79,249.85,251.73,249.86Zm-.84-.79s.05,0,.08,0a.1.1,0,0,0,0-.13h.09l.15,0c.12.08.35.09.23-.07l0,0a.11.11,0,0,0,0-.07.19.19,0,0,0-.14-.14,1.42,1.42,0,0,0,.25-.24l0-.06c0-.15-.2-.07-.27,0a1.12,1.12,0,0,0-.22.16,1,1,0,0,0-.22.19l0,.07a.08.08,0,0,0,0,.05.12.12,0,0,0,0,.15h0a.07.07,0,0,0-.07.07A.22.22,0,0,0,250.89,249.07Zm0-1.3a.11.11,0,0,0,.06-.13c0-.07-.15-.08-.16,0a.15.15,0,0,0,0,.13A.06.06,0,0,0,250.87,247.77Zm1.2,2.2,0,0s0,0-.06,0,0,0,.05,0A0,0,0,0,0,252.07,250Zm-.29.36s.11.06.17.06h.17c.14,0,.23-.06.24-.14a.19.19,0,0,0-.14-.16C252.07,250,251.67,250.14,251.78,250.33Zm-1.47-2a.06.06,0,0,0,.06-.05.05.05,0,0,0-.08-.06.07.07,0,0,0,0,.06.05.05,0,0,0,0,.06Zm-1-.92s-.07,0,0,0a.08.08,0,0,0,.08,0l0,0S249.32,247.42,249.29,247.42Zm.77,1.49h0a.24.24,0,0,0,.23,0c.15-.08.22-.44,0-.46-.06,0-.11.05-.14.1l-.08.12a.14.14,0,0,0-.11,0C249.83,248.73,249.93,249,250.06,248.91Zm-.31-3.44a.12.12,0,0,0,0,.15c0,.07,0,.14.13.09h0s0,0,0,0a.07.07,0,0,0,0-.06C250,245.51,249.85,245.39,249.75,245.47Zm.13.49a.11.11,0,0,0,0-.13c-.07-.05-.18,0-.15.06s.06.1.1.11S249.86,246,249.88,246Zm-.72-.72,0,0a.08.08,0,0,0-.06,0c-.11,0-.28.05-.21.15a.16.16,0,0,0,.21,0s.09.09.13,0,0,0,0,0A.13.13,0,0,0,249.16,245.24Zm-.23.26s0,.05,0,.07h0a.07.07,0,0,0,.09,0s.05-.08,0-.09Zm.57.83a0,0,0,0,0,0-.07h0s0,0,0,.06A0,0,0,0,0,249.5,246.33Zm7.88,5.18s0,0,0,0,.06.16.13.11S257.46,251.45,257.38,251.51Zm2.91-3.23a.23.23,0,0,0-.14.15v0a.11.11,0,0,0-.13,0c0,.06,0,.14.09.18a.07.07,0,0,0,.07.05.44.44,0,0,0,.21.25h0s0,0,0,0h0a.14.14,0,0,0,0,.14.24.24,0,0,0,.06.09l-.12,0a.1.1,0,0,0,0-.1l0,0s0,0,0,0,0,0,0,0a.09.09,0,0,0-.09-.14c-.07,0-.06.14,0,.17s-.1,0-.08.09l.05.06a.4.4,0,0,0-.16.1.19.19,0,0,0,0,.12c-.1,0-.24,0-.22.1s.22.11.28.05a0,0,0,0,1,0,0,.36.36,0,0,0,.17.07h0c.1.08.33.07.29,0,.17-.06.33-.19.3-.3a.14.14,0,0,0-.05-.08h0a.62.62,0,0,0,.27-.05s0,.07,0,.1-.1.11,0,.14l0,0c-.07,0-.14,0-.11.1s.21,0,.2-.05.05,0,.05,0a.46.46,0,0,0,.18.16.3.3,0,0,0,.32-.1.27.27,0,0,0,0-.3.55.55,0,0,0-.39-.29.21.21,0,0,0-.1-.12.67.67,0,0,0-.31-.09v0a.11.11,0,0,0-.08-.09.07.07,0,0,0,0-.06,1.59,1.59,0,0,0,.13-.13c.05-.07.15-.14.18-.22a.14.14,0,0,0,0-.07c0-.08-.11-.1-.18-.07l-.05,0h-.05a0,0,0,0,0,0,0l0,0c-.07-.06-.23-.07-.27,0s-.06,0-.11,0a.12.12,0,0,0-.06.06v0A.24.24,0,0,0,260.29,248.28Zm2,3a.24.24,0,0,0-.06.08.08.08,0,0,0,0,0c-.06,0-.13,0-.13.06a.24.24,0,0,0-.13-.15l-.06,0h-.05c-.13,0-.24.11-.15.23a.47.47,0,0,0,.28.2c.06,0,.11,0,.13-.12a.49.49,0,0,0,0-.12h0s.08.09.13.09,0,0,0,0a.2.2,0,0,0,0,.08h0a2.25,2.25,0,0,0,.24-.36A.4.4,0,0,0,262.34,251.24Zm-1.9-3.25h0c.1.09.36.12.24-.06s-.24-.2-.28-.05v0l0,0A0,0,0,0,0,260.44,248Zm-.06.06s0,0,.06,0,.06,0,0-.06a.06.06,0,0,0-.08,0Zm-.35.06A.1.1,0,0,0,260,248c-.13,0-.29.19-.13.24h.08a.16.16,0,0,0,.11-.1h0s0,0,0-.05S260.06,248.09,260,248.11Zm-.29,1.57s-.05,0,0,.06a.06.06,0,0,0,.08,0v0S259.77,249.67,259.74,249.68Zm2.57,1.41a.16.16,0,0,0,.18-.05.05.05,0,0,0,0,0,.09.09,0,0,0-.06,0C262.3,250.89,262.15,251,262.31,251.09Zm-3.07-.77s0,0,0,.06v0h0a.06.06,0,0,0,0-.07.1.1,0,0,0,0-.06c-.09-.06-.28,0-.26.09s.14.09.22.07,0,0,0,.05a.28.28,0,0,0,0,.23.79.79,0,0,0-.41,0,.06.06,0,0,0,0-.1h0l0,0,0-.07c0-.08-.09-.12-.17-.1a.33.33,0,0,0-.13.07l-.13.1-.08,0h0c-.05,0-.09,0-.08.1h0s0,0,0,0h0a.08.08,0,0,0-.05,0h0l0,.07c0,.1.07.1.15.07s.28.1.32,0a.23.23,0,0,0,.07.19.41.41,0,0,0,.34.09h0a.38.38,0,0,0,0,.15c-.07,0-.18,0-.14.1s0,0,0,0a.18.18,0,0,0,.12,0v0a.1.1,0,0,0,.08,0c-.11,0-.18.14-.09.24h0c0,.1.11.19.23.21a.44.44,0,0,0,.33-.1c.14-.12.24-.37.12-.48a.25.25,0,0,0-.22,0,.69.69,0,0,0-.32.16h0a.25.25,0,0,0,.12-.15.74.74,0,0,0,.05-.25v0a.23.23,0,0,0,.12-.2.19.19,0,0,0-.08-.11.14.14,0,0,0,.06-.08h0v0a.21.21,0,0,0,.1,0s0,0,0,.06a.06.06,0,0,0,0,.06.25.25,0,0,0,0,.12.19.19,0,0,0,.09.15.08.08,0,0,0,.09,0,.18.18,0,0,0,.16-.08.39.39,0,0,0,.06-.31h0s0,0,0,0h-.07a.66.66,0,0,0,.12-.17,1,1,0,0,0,.15-.23.11.11,0,0,0,0-.08c0-.08-.12-.09-.18,0a.55.55,0,0,0-.11.1v0a.11.11,0,0,0-.08,0,.11.11,0,0,0-.09.06l-.08-.05S259.29,250.23,259.24,250.32Zm2.5.18h0s0,0,0-.06,0,0-.06,0S261.72,250.48,261.74,250.5Zm.2,0c.18.08.49.1.57,0a.17.17,0,0,0,0-.19.28.28,0,0,0-.07-.09l.16,0a.14.14,0,0,0,.06.12.15.15,0,0,0,.1,0,2.11,2.11,0,0,0,0-.25,2,2,0,0,0-.06-.35l0,0,0,0c-.06,0-.15,0-.15,0l0,0a.11.11,0,0,0,.08,0,.13.13,0,0,0,0,.06l-.23-.06a1.7,1.7,0,0,0-.31-.06l-.08,0a.08.08,0,0,0,0,.12.23.23,0,0,0-.18.24A.35.35,0,0,0,261.94,250.51Zm-.47.38c-.13.06-.21.32,0,.23s.26-.19.09-.24A.21.21,0,0,0,261.47,250.89Zm.48.8a.19.19,0,0,0-.19,0l-.06,0a.2.2,0,0,0-.09-.07.05.05,0,0,0,0-.05c0-.08-.22-.09-.21,0s0,0,0,0l0,0,0,0s0,.09,0,.13-.06.1,0,.14a.15.15,0,0,0,.08.08l-.08.05h0l0,0c-.08,0-.32-.07-.27.08a.14.14,0,0,0,.07.06h0l0,0,0,.06a.08.08,0,0,0,0,.07,4,4,0,0,0,.81-.52A.12.12,0,0,0,262,251.69Zm-.83.52s-.07-.09-.12-.09-.05,0-.06,0a.14.14,0,0,0,.05.13C261.06,252.34,261.16,252.29,261.12,252.21ZM259,250.05a.17.17,0,0,0,.17.07l.05,0a.09.09,0,0,0,0-.07C259.16,249.89,258.93,249.92,259,250.05Zm-.9-1.23c-.1,0-.07.2,0,.17l.05,0C258.23,248.91,258.19,248.8,258.11,248.82Zm.2,1h0c.08.08.31.05.27-.07s0,0,0-.06h0s-.07,0-.11,0C258.17,249.62,258,249.81,258.31,249.81Zm.11-.38a.51.51,0,0,0,.24.24s.11,0,.14-.1a.25.25,0,0,0-.08-.31C258.57,249.16,258.33,249.26,258.42,249.43Zm.12-.49c-.09.1.12.3.22.19a.06.06,0,0,0,0-.07C258.78,249,258.63,248.86,258.54,248.94ZM258,249s0,0,0,.06a.07.07,0,0,0,.07,0h0a.06.06,0,0,0,0-.08S258,249,258,249Zm1.25,2.05s0,.1.09.11a.06.06,0,0,0,.07,0,.11.11,0,0,0,0-.14C259.32,250.94,259.21,251,259.23,251.05Zm-1.29-2.37s-.07.1-.06.13,0,0,.08,0a.13.13,0,0,0,.12-.09A.08.08,0,0,0,257.94,248.68Zm1,1.23c.09-.09-.12-.29-.22-.18a.09.09,0,0,0,0,.06C258.74,249.89,258.89,250,259,249.91Zm-.68.39v0s0,0-.06,0-.06,0,0,.06S258.28,250.32,258.3,250.3Zm.48.93s0,0,0-.06,0,0-.07,0a0,0,0,0,0,0,.07Zm.43-1.4c-.09,0,0,.2.06.17a0,0,0,0,0,0,0A.09.09,0,0,0,259.21,249.83Zm2.72-.46c0,.12.34.11.3,0s0,0,0-.06S261.91,249.26,261.93,249.37Zm-2.64-.14a.17.17,0,0,0-.1,0c-.12.08-.12.35.08.21S259.46,249.24,259.29,249.23Zm1.47,1a.18.18,0,0,0,.19,0l0,0s0,0,0-.06S260.64,250.13,260.76,250.23Zm-4.61,1.31a.06.06,0,0,0-.08,0l0,0s0,0,0,.05S256.16,251.58,256.15,251.54Zm2.29-.11s0,0,.05,0a.09.09,0,0,0,0,0,.15.15,0,0,0-.14,0v0a.11.11,0,0,0-.07-.12c-.08,0-.17,0-.11.1a.35.35,0,0,0,.13.08h0a.08.08,0,0,0,0,.07c-.06,0-.1.08-.05.12S258.48,251.5,258.44,251.43Zm-2,.38a.13.13,0,0,0,.07.15h0a.07.07,0,0,0,.05,0C256.64,251.79,256.46,251.67,256.4,251.81Zm-.58.61c.13.07.33-.14.18-.21h-.08C255.81,252.22,255.71,252.36,255.82,252.42Zm2.56.29c.06.14.46.29.53.09s0-.11-.08-.15l-.12-.1a.35.35,0,0,0-.18-.06s-.1-.06-.13,0,0,0,0,.06A.19.19,0,0,0,258.38,252.71Zm3.92-3h0s0,0,0,.06.06,0,.07,0A.06.06,0,0,0,262.3,249.74ZM257,250a.07.07,0,0,0,0,.06c0,.1.09.23.2.16S257.07,249.87,257,250Zm.37,1.14v0s0,0-.05,0a0,0,0,0,0,0,0l0,0s0,0,0,.05h0s0,0,0,0A.05.05,0,0,0,257.32,251.1ZM257,249a.06.06,0,0,0-.07,0h0a.08.08,0,0,0,0,.08.07.07,0,0,0,.11,0A.09.09,0,0,0,257,249Zm2.06,3.32c-.07,0-.08.09-.09.14v.08h0c-.07,0-.13.11-.05.15H259a.19.19,0,0,0,.13.14.24.24,0,0,0,.21-.1C259.4,252.61,259.3,252.24,259.07,252.31ZM257.35,250c.06-.12-.22-.26-.27-.13a.08.08,0,0,0,0,.07C257.12,250,257.3,250.1,257.35,250Zm.54-1.78c-.1,0-.1.19,0,.18l0,0C258,248.32,258,248.21,257.89,248.22Zm0,2a.08.08,0,0,0,0,.08s.1,0,.1,0v0c.09,0,.21,0,.2-.09s-.32-.14-.3,0,0,0,0,0h0Zm1.79,1.88h-.11c-.28.07-.34.29-.07.21a.38.38,0,0,0,.15-.09v0c0,.06.17.08.19,0s-.09-.1-.15-.09h0A0,0,0,0,0,259.67,252.09Zm3-1.31a.18.18,0,0,0-.15.15.22.22,0,0,0,.05.18,1.17,1.17,0,0,0,.11-.33Zm-1-1.65a.14.14,0,0,0,0,.07c.06.1.15,0,.19-.06s0,0,0,0l0,0a1,1,0,0,0,.05-.24.13.13,0,0,1,0-.06l.05-.07.1.07h0a.1.1,0,0,0-.1.11.33.33,0,0,0,0,.13,1.92,1.92,0,0,0,.25.44.18.18,0,0,0,.07.05c.12.06.13-.07.12-.15a3.6,3.6,0,0,0-.29-.55l0,0h0l-.28-.39-.05,0h0c-.09-.12-.27-.08-.23,0h-.14a.05.05,0,0,0,0,0s-.05,0-.07,0a.05.05,0,0,0,0,.05.34.34,0,0,0-.22.12.09.09,0,0,0,0,.07s0,.07,0,.08a.22.22,0,0,0,.08.13.43.43,0,0,0,.35.08h0A.61.61,0,0,0,261.66,249.13Zm-.49,1.52a.46.46,0,0,0,.14.07,2.38,2.38,0,0,0,.54.14h.09c.16,0,0-.18-.1-.21l-.13-.05s0-.07,0-.12-.29-.12-.29,0l-.11,0h-.08C261.1,250.51,261.11,250.6,261.17,250.65Zm.33-.38c.06,0,.11,0,.13-.11a.25.25,0,0,0-.13-.29c-.16-.09-.38,0-.28.19A.53.53,0,0,0,261.5,250.27Zm-.36-2.27s0,0,0,0,.22.07.2,0a.25.25,0,0,0,.22.22.38.38,0,0,0,.23,0c-.13-.13-.25-.27-.39-.39h0C261.2,247.85,261.11,248,261.14,248Zm1.41,2.5a.22.22,0,0,0,0,.14s0,0,.08,0l.06,0h0l0,0s0-.06,0-.09h0v0A.09.09,0,0,0,262.55,250.5Zm-2.76,1a.11.11,0,0,0-.08,0,0,0,0,0,0,0,0h0a.08.08,0,0,0,.08,0C259.8,251.58,259.84,251.53,259.79,251.5Zm-1,.4s-.05,0-.05,0h0a.06.06,0,0,0,.07,0c.05,0,.1,0,.05-.08A.11.11,0,0,0,258.79,251.9Zm1.6-.15a.09.09,0,0,0,0-.07c0-.1-.17-.19-.25-.1S260.3,251.86,260.39,251.75Zm.48-1.77c.07,0,.12-.13,0-.16s-.19.13-.09.16Zm-.92,1.66c-.05,0-.07.05-.09.09h0c0-.08-.23-.07-.2,0l0,0a.15.15,0,0,0,.17,0h0l0,.15a.18.18,0,0,0,.13.22.2.2,0,0,0,.21-.08C260.27,252,260.19,251.58,260,251.64Zm-2.67-2.25s0,0,0-.06-.28,0-.26.08S257.31,249.53,257.28,249.39Zm3,.73v0s0,0-.07,0-.05,0,0,.05S260.23,250.14,260.24,250.12Z" transform="translate(-239.58 -236.66)"/><path class="cls-9" d="M262.73,250.12a4.51,4.51,0,0,0-1.79-2.71,8.11,8.11,0,0,0-.89-.65l.1.07a4.2,4.2,0,0,1,1.65,2.49,2.19,2.19,0,0,1-1.57,2.14,10.66,10.66,0,0,1-2.9.68,61.43,61.43,0,0,1-12.63,0c-1.59-.18-4.73-.83-4.09-3.11a4.51,4.51,0,0,1,1.65-2.21c-.19.12-.37.24-.55.38a5.29,5.29,0,0,0-2,2.6c-.69,2.49,2.73,3.19,4.46,3.39a66.49,66.49,0,0,0,13.75,0,11.39,11.39,0,0,0,3.15-.74A2.36,2.36,0,0,0,262.73,250.12Z" transform="translate(-239.58 -236.66)"/><g class="cls-10"><path class="cls-11" d="M242.58,250a4.79,4.79,0,0,0,.36,1,.77.77,0,0,0,1,.28c.15-.1.24-.28.38-.41a1.7,1.7,0,0,1,1.23-.36,11.67,11.67,0,0,1,1.56.1c.93.12,2.09.47,2.38,1.47a3.9,3.9,0,0,1,.13.76,2.4,2.4,0,0,0,.09.8.48.48,0,0,0,.85,0,9.31,9.31,0,0,0,.14-1.06c.11-.44.54-.68.81-.2a1.13,1.13,0,0,0,.28.37,1,1,0,0,0,.3.12,1.16,1.16,0,0,0,.72-.2c.31-.24.33-.71.55-1a2.55,2.55,0,0,1,1.92-1,1.2,1.2,0,0,1,1.13.67,4.81,4.81,0,0,1,.25,1.5.63.63,0,0,0,.13.3.42.42,0,0,0,.36.14c.61-.07.69-1,.67-1.51a2.56,2.56,0,0,1,.14-1.13c.41-.92,1.52-1,2.32-1.41,1.12-.54.69-1.77.14-2.57a4,4,0,0,0-.65-.77c-.79-.66-1.94-.59-2.92-.93-.41-.14-.79-.36-1.2-.48a12.05,12.05,0,0,0-2.69-.16c-.9,0-1.79-.31-2.69-.27a7.91,7.91,0,0,0-2.08.46,16.41,16.41,0,0,0-1.71.59,10.29,10.29,0,0,1-2.54.69,3.68,3.68,0,0,0-1.67.38,2.48,2.48,0,0,0-.92,1.46,1.71,1.71,0,0,0-.1.5,1.61,1.61,0,0,0,.4.89c.24.31.62.58.83.9A.65.65,0,0,1,242.58,250Z" transform="translate(-239.58 -236.66)"/></g><path class="cls-12" d="M251,244.21c-5.19,0-9.59,2-9.59,3.52,0,.52.48,1,1.32,1.43l.13.12c.35.4.09.94.3,1.38s.6.12.79-.19.34-.63.82-.58c1.15.12,2.29.47,3.46.57a1.54,1.54,0,0,1,1.41,1.5V252c0,.4,0,.81,0,1.2a.84.84,0,0,0,.07.5.45.45,0,0,0,.51.2c.46-.13.3-.81.3-1.16v-.84a1.6,1.6,0,0,1,.25-1.07.5.5,0,0,1,.92.26c.06.36-.06.72,0,1.08h0a.51.51,0,0,0,1,.06,2.57,2.57,0,0,0,.08-.4,1.73,1.73,0,0,1,1.52-1.46l.74-.1c.42-.06,1.09-.25,1.45,0,.59.47.31,1.42.24,2a1.06,1.06,0,0,0,0,.47.44.44,0,0,0,.33.3c.38.06.51-.43.51-.7a4.82,4.82,0,0,1,.18-2.27,1.61,1.61,0,0,1,.87-.71c1.42-.5,2.29-1.14,2.29-1.81C261,246.09,256.22,244.21,251,244.21Z" transform="translate(-239.58 -236.66)"/><g class="cls-13"><g class="cls-14"><ellipse cx="11.63" cy="10.89" rx="10.19" ry="3.32"/><ellipse class="cls-15" cx="11.63" cy="10.47" rx="9.04" ry="2.93"/><ellipse class="cls-16" cx="11.63" cy="10.04" rx="7.89" ry="2.55"/><ellipse class="cls-17" cx="11.62" cy="9.61" rx="6.73" ry="2.17"/><path class="cls-18" d="M256.78,245.84c0,1-2.5,1.78-5.58,1.78s-5.58-.79-5.58-1.78,2.5-1.78,5.58-1.78S256.78,244.86,256.78,245.84Z" transform="translate(-239.58 -236.66)"/><path class="cls-19" d="M255.62,245.41c0,.77-2,1.4-4.42,1.4s-4.43-.63-4.43-1.4,2-1.4,4.43-1.4S255.62,244.64,255.62,245.41Z" transform="translate(-239.58 -236.66)"/><path class="cls-20" d="M254.46,245c0,.56-1.46,1-3.27,1s-3.27-.46-3.27-1,1.46-1,3.27-1S254.46,244.42,254.46,245Z" transform="translate(-239.58 -236.66)"/><path class="cls-21" d="M253.3,244.55c0,.35-.94.64-2.11.64s-2.12-.29-2.12-.64,1-.63,2.12-.63S253.3,244.2,253.3,244.55Z" transform="translate(-239.58 -236.66)"/></g></g><path class="cls-22" d="M244,246c1.14,1.47,4,2.28,7.62,2.11,1.41-.07,5.9-.35,7-2.15.74-1.22-1-1.91-1.95-2.12-2.93-.67-6.09.34-9.08-.12-.87-.13-1.26-.65-2.11-.34C243.81,244,243.7,245.54,244,246Z" transform="translate(-239.58 -236.66)"/><path class="cls-23" d="M256.68,243.81a11.48,11.48,0,0,0-2.81-.23,7.07,7.07,0,0,1,.2,1.84s1.87.17,1.28,1.41c-.35.73-3.1.84-3.82.88-4.68.23-7.32-1.7-7.37-3.29A1.58,1.58,0,0,0,244,246c1.14,1.47,4,2.28,7.62,2.11,1.41-.07,5.9-.35,7-2.15C259.37,244.71,257.63,244,256.68,243.81Z" transform="translate(-239.58 -236.66)"/><path class="cls-24" d="M245.33,243.34c.15,1.43,2.58,2.1,5.2,2.3,3.09.23,6.75-.7,7-1.66a1.52,1.52,0,0,0-1.15-2.09c-1.67-.52-4.32.38-6.1-.13C247.06,240.82,245.18,241.93,245.33,243.34Z" transform="translate(-239.58 -236.66)"/><path class="cls-23" d="M256.43,241.89a4.22,4.22,0,0,0-.74-.14l.19.27L254,243c1,.43,1.21,1.78-.62,2-3.14.4-7-.08-8-1.91a2.26,2.26,0,0,0,0,.26c.15,1.43,2.58,2.1,5.2,2.3,3.09.23,6.75-.7,7-1.66A1.52,1.52,0,0,0,256.43,241.89Z" transform="translate(-239.58 -236.66)"/><path class="cls-25" d="M250.47,238.11c-.32.76-1.27,1.08-2,1.4-1.14.51-1.87,1.26-1.89,2.11,0,1.62,5.21,1.61,7.29,1.42.49,0,2.7-.55,2.37-1.42a4.24,4.24,0,0,0-1.33-1.5c-.56-.46-1.19-.75-1.72-1.25a12,12,0,0,1-1.63-1.79c-.38-.55-.94-.6-1.08.11,0,.24.09.46.05.67A1.83,1.83,0,0,1,250.47,238.11Z" transform="translate(-239.58 -236.66)"/><path class="cls-23" d="M256.26,241.62a4.24,4.24,0,0,0-1.33-1.5c-.56-.46-1.19-.75-1.72-1.25a12,12,0,0,1-1.63-1.79c.78,1.68,4.08,4.62.87,4.91-1.68.15-5.76.42-5.12-1.75a1.94,1.94,0,0,0-.73,1.38c0,1.62,5.21,1.61,7.29,1.42C254.38,243,256.59,242.49,256.26,241.62Z" transform="translate(-239.58 -236.66)"/><path class="cls-26" d="M252.38,239.83a1.12,1.12,0,0,1-1.51-.15c-.4-.57.06-1,.6-1.14a10.64,10.64,0,0,1-.77-1.41s-.06,0-.06,0c.18,1.24-.09,1.39-.28,1.56-.87.79-3.31,1.35-2.87,2.2a.25.25,0,0,1,.08-.15,1,1,0,0,1,1.09-.14.79.79,0,0,1,.28.69,15.92,15.92,0,0,0,1.83.13c.54,0,2.43.07,2.28-.93C253,240.39,252.49,239.75,252.38,239.83Z" transform="translate(-239.58 -236.66)"/><path class="cls-27" d="M253.65,244.35c.33-.07.43-.48.35-.8a.22.22,0,0,0-.26-.17,12.17,12.17,0,0,1-1.59.13c0,.54-.68.81-1.16.79a.86.86,0,0,1-.72-.33.74.74,0,0,1-.08-.52,19.67,19.67,0,0,1-2.09-.29c-1-.2-1.78-.89-2.12-.51-.11.13,0,.37.09.51a.61.61,0,0,1,.77-.29.63.63,0,0,1,.26.15.55.55,0,0,1,.19.42.79.79,0,0,1-.08.45,12.93,12.93,0,0,0,6.39.48Z" transform="translate(-239.58 -236.66)"/><path class="cls-28" d="M250.27,244a.78.78,0,0,1-.09-.24c-.64-.06-1.3-.16-2-.29a5.52,5.52,0,0,1-1-.34.52.52,0,0,1,.12.33,10.7,10.7,0,0,0,3.11.68A.43.43,0,0,1,250.27,244Z" transform="translate(-239.58 -236.66)"/><path class="cls-28" d="M254,243.66a15.52,15.52,0,0,1-2,.15.92.92,0,0,1-.39.34,14.38,14.38,0,0,0,2.34-.23A1.15,1.15,0,0,0,254,243.66Z" transform="translate(-239.58 -236.66)"/><path class="cls-27" d="M248.81,246l-.95-.15a4.84,4.84,0,0,1-.91-.28.4.4,0,0,1,0,.26.67.67,0,0,1-.48.35.92.92,0,0,1-.33,0l.29.17a8.58,8.58,0,0,0,2.17.66A1,1,0,0,1,248.81,246Z" transform="translate(-239.58 -236.66)"/><path class="cls-27" d="M254.08,246a16.33,16.33,0,0,1-3.58.15,1.76,1.76,0,0,1,.15,1.06,15,15,0,0,0,2.77-.14c0-.44.18-1,.69-1h0Z" transform="translate(-239.58 -236.66)"/><path class="cls-28" d="M248.63,246.22l-.66-.11a4.8,4.8,0,0,1-1.05-.33l0,0a.42.42,0,0,1-.14.18,7.66,7.66,0,0,0,1.76.55A1.21,1.21,0,0,1,248.63,246.22Z" transform="translate(-239.58 -236.66)"/><path class="cls-28" d="M253.6,246.39a16.4,16.4,0,0,1-1.8.09c-.39,0-.79,0-1.19,0a2.2,2.2,0,0,1,.06.37l.71,0a16.61,16.61,0,0,0,2.1-.15A1.26,1.26,0,0,1,253.6,246.39Z" transform="translate(-239.58 -236.66)"/><path class="cls-29" d="M251,242.86a.81.81,0,0,0-.67.94.79.79,0,0,0,.08.26,1.27,1.27,0,0,0,.82.11,1.43,1.43,0,0,0,.67-.26,1.27,1.27,0,0,0,0-.34A.82.82,0,0,0,251,242.86Z" transform="translate(-239.58 -236.66)"/><path class="cls-30" d="M251.32,243.3a.38.38,0,1,1-.38-.34A.36.36,0,0,1,251.32,243.3Z" transform="translate(-239.58 -236.66)"/><path class="cls-31" d="M254.59,240.59a.66.66,0,0,0-.64.67.52.52,0,0,0,0,.21,1,1,0,0,0,.63.18,1.26,1.26,0,0,0,.56-.12.86.86,0,0,0,0-.27A.65.65,0,0,0,254.59,240.59Z" transform="translate(-239.58 -236.66)"/><path class="cls-30" d="M254.79,241a.29.29,0,0,1-.34.22.29.29,0,0,1-.26-.31.29.29,0,0,1,.34-.23A.3.3,0,0,1,254.79,241Z" transform="translate(-239.58 -236.66)"/><path class="cls-32" d="M257,244.49a.84.84,0,0,0-.83.86.81.81,0,0,0,0,.27,1.29,1.29,0,0,0,.82.24,1.47,1.47,0,0,0,.72-.17.94.94,0,0,0,.07-.34A.84.84,0,0,0,257,244.49Z" transform="translate(-239.58 -236.66)"/><path class="cls-30" d="M257.25,245a.37.37,0,0,1-.44.29.37.37,0,0,1-.34-.4.37.37,0,0,1,.44-.29A.37.37,0,0,1,257.25,245Z" transform="translate(-239.58 -236.66)"/><path class="cls-33" d="M246,245.1a.62.62,0,0,0-.55.68.41.41,0,0,0,0,.19.85.85,0,0,0,.61.12,1,1,0,0,0,.51-.16.52.52,0,0,0,0-.25A.61.61,0,0,0,246,245.1Z" transform="translate(-239.58 -236.66)"/><path class="cls-30" d="M246.23,245.45a.27.27,0,0,1-.3.23.26.26,0,1,1,0-.51A.28.28,0,0,1,246.23,245.45Z" transform="translate(-239.58 -236.66)"/><path class="cls-34" d="M246.75,243a.48.48,0,0,0-.59.35.41.41,0,0,0,0,.16.71.71,0,0,0,.41.25.81.81,0,0,0,.43,0,.51.51,0,0,0,.09-.18A.48.48,0,0,0,246.75,243Z" transform="translate(-239.58 -236.66)"/><path class="cls-30" d="M246.81,243.3a.22.22,0,0,1-.29.1.22.22,0,0,1-.12-.28.21.21,0,0,1,.29-.09A.21.21,0,0,1,246.81,243.3Z" transform="translate(-239.58 -236.66)"/><path class="cls-35" d="M255.17,243.59a.48.48,0,0,0-.33.6.51.51,0,0,0,.07.15.74.74,0,0,0,.49,0,.81.81,0,0,0,.37-.2.47.47,0,0,0,0-.2A.48.48,0,0,0,255.17,243.59Z" transform="translate(-239.58 -236.66)"/><path class="cls-30" d="M255.39,243.82a.22.22,0,0,1-.2.23.21.21,0,0,1-.25-.17.21.21,0,0,1,.2-.23A.22.22,0,0,1,255.39,243.82Z" transform="translate(-239.58 -236.66)"/><path class="cls-36" d="M257,242.05a.48.48,0,0,0-.49.48.41.41,0,0,0,0,.16.7.7,0,0,0,.46.14.85.85,0,0,0,.42-.08.65.65,0,0,0,0-.2A.47.47,0,0,0,257,242.05Z" transform="translate(-239.58 -236.66)"/><path class="cls-30" d="M257.11,242.34a.22.22,0,0,1-.26.16.23.23,0,0,1-.19-.24.23.23,0,0,1,.45.08Z" transform="translate(-239.58 -236.66)"/><path class="cls-37" d="M244.48,244a.52.52,0,0,0-.11.73.49.49,0,0,0,.13.12.78.78,0,0,0,.49-.17,1,1,0,0,0,.31-.35.72.72,0,0,0-.09-.2A.52.52,0,0,0,244.48,244Z" transform="translate(-239.58 -236.66)"/><path class="cls-30" d="M244.79,244.11a.24.24,0,0,1-.12.31.24.24,0,0,1-.32-.08.25.25,0,0,1,.44-.23Z" transform="translate(-239.58 -236.66)"/><path class="cls-38" d="M249.7,245.93a1,1,0,0,0-1,.86.85.85,0,0,0,0,.32,1.47,1.47,0,0,0,.88.35,1.69,1.69,0,0,0,.82-.1.81.81,0,0,0,.12-.38A.94.94,0,0,0,249.7,245.93Z" transform="translate(-239.58 -236.66)"/><path class="cls-30" d="M249.94,246.51a.42.42,0,0,1-.53.27.41.41,0,0,1-.33-.48.42.42,0,0,1,.52-.28A.43.43,0,0,1,249.94,246.51Z" transform="translate(-239.58 -236.66)"/><path class="cls-39" d="M251.65,238.71a.67.67,0,0,0-.72.61.79.79,0,0,0,0,.22,1.08,1.08,0,0,0,.63.25,1.27,1.27,0,0,0,.58-.07.77.77,0,0,0,.08-.27A.66.66,0,0,0,251.65,238.71Z" transform="translate(-239.58 -236.66)"/><path class="cls-30" d="M251.81,239.12a.28.28,0,0,1-.36.19.29.29,0,0,1-.24-.34.3.3,0,0,1,.37-.2A.3.3,0,0,1,251.81,239.12Z" transform="translate(-239.58 -236.66)"/><path class="cls-40" d="M254.09,246.18a.67.67,0,0,0-.45.83.72.72,0,0,0,.09.2,1.09,1.09,0,0,0,.68,0,1.17,1.17,0,0,0,.51-.28.68.68,0,0,0,0-.28A.66.66,0,0,0,254.09,246.18Z" transform="translate(-239.58 -236.66)"/><path class="cls-30" d="M254.39,246.5a.29.29,0,0,1-.27.32.31.31,0,0,1-.35-.24.3.3,0,0,1,.28-.31A.29.29,0,0,1,254.39,246.5Z" transform="translate(-239.58 -236.66)"/><path class="cls-41" d="M248.31,240.67a.59.59,0,0,0-.66.52.67.67,0,0,0,0,.2.91.91,0,0,0,.55.24,1.06,1.06,0,0,0,.52,0,.92.92,0,0,0,.09-.23A.61.61,0,0,0,248.31,240.67Z" transform="translate(-239.58 -236.66)"/><path class="cls-30" d="M248.45,241a.28.28,0,0,1-.54-.15.28.28,0,0,1,.54.15Z" transform="translate(-239.58 -236.66)"/><path class="cls-42" d="M262.73,250.12a4.51,4.51,0,0,0-1.79-2.71l0,0c-.19-.59-1-1.19-2.16-1.72.26-.76-.45-1.28-1.21-1.59a.3.3,0,0,0,0-.1,1.56,1.56,0,0,0-.15-1.44.48.48,0,0,0-.46-.49h-.12a2.81,2.81,0,0,0-.42-.17l-.14,0a.47.47,0,0,0,0-.23,4.24,4.24,0,0,0-1.33-1.5c-.56-.46-1.19-.75-1.72-1.25a12,12,0,0,1-1.63-1.79c-.38-.55-.94-.6-1.08.11,0,.24.09.46.05.67a1.83,1.83,0,0,1-.08.25c-.32.76-1.27,1.08-2,1.4a4.52,4.52,0,0,0-1.16.73h0a2.37,2.37,0,0,0-.27.28l-.08.1-.12.16-.09.17,0,.09a1.13,1.13,0,0,0-.08.24s0,0,0,.06a1.33,1.33,0,0,0,0,.28v0a1.75,1.75,0,0,0-1.28,1.43,2.26,2.26,0,0,0,0,.26s0,0,0,.07a2.93,2.93,0,0,0-.77.5l-.09.05a.53.53,0,0,0-.19.25,2.39,2.39,0,0,0-.13.21h0a1.86,1.86,0,0,0-.27,1.1v0h0a4.65,4.65,0,0,0-2.32,1.71,5.14,5.14,0,0,0-1.9,2.49,1.89,1.89,0,0,0,.15,1.52L243.51,262c1.34,3,14.21,3,15.32,0l3.73-10.88A1.73,1.73,0,0,0,262.73,250.12Z" transform="translate(-239.58 -236.66)"/></g></g></g></svg>