<svg xmlns="http://www.w3.org/2000/svg" xmlns:xlink="http://www.w3.org/1999/xlink" viewBox="0 0 30.17 25.72"><defs><style>.cls-1{fill:none;}.cls-2{fill:url(#linear-gradient);}.cls-3{fill:url(#linear-gradient-2);}.cls-4{isolation:isolate;}.cls-5{fill:url(#linear-gradient-3);}.cls-6{fill:#f9e9bb;}.cls-13,.cls-7{opacity:0.8;}.cls-17,.cls-18,.cls-19,.cls-20,.cls-21,.cls-22,.cls-23,.cls-24,.cls-25,.cls-26,.cls-27,.cls-28,.cls-29,.cls-30,.cls-31,.cls-32,.cls-7,.cls-74{mix-blend-mode:screen;}.cls-7{fill:url(#linear-gradient-4);}.cls-10,.cls-13,.cls-8{fill:#e5cd91;}.cls-24,.cls-34,.cls-8{opacity:0.6;}.cls-10,.cls-13,.cls-34,.cls-8{mix-blend-mode:multiply;}.cls-9{opacity:0.7;}.cls-11{fill:#fff0ca;}.cls-12{clip-path:url(#clip-path);}.cls-14{fill:url(#linear-gradient-5);}.cls-15{fill:#ff8aa9;}.cls-15,.cls-33,.cls-74{opacity:0.5;}.cls-16{clip-path:url(#clip-path-2);}.cls-17{fill:url(#linear-gradient-6);}.cls-18{fill:url(#linear-gradient-7);}.cls-19{fill:url(#linear-gradient-8);}.cls-20{fill:url(#linear-gradient-9);}.cls-21{fill:url(#linear-gradient-10);}.cls-22{fill:url(#linear-gradient-11);}.cls-23{fill:url(#linear-gradient-12);}.cls-24{fill:url(#linear-gradient-13);}.cls-25{fill:url(#linear-gradient-14);}.cls-26{fill:url(#linear-gradient-15);}.cls-27{fill:url(#linear-gradient-16);}.cls-28{fill:url(#linear-gradient-17);}.cls-30{fill:url(#radial-gradient);}.cls-31{fill:url(#radial-gradient-2);}.cls-32{fill:url(#radial-gradient-3);}.cls-33{mix-blend-mode:overlay;fill:url(#radial-gradient-4);}.cls-34{fill:#ff166b;}.cls-35{clip-path:url(#clip-path-3);}.cls-36{fill:url(#linear-gradient-19);}.cls-37{fill:url(#linear-gradient-20);}.cls-38{fill:url(#linear-gradient-21);}.cls-39{fill:url(#linear-gradient-22);}.cls-40{fill:url(#linear-gradient-23);}.cls-41{fill:url(#linear-gradient-24);}.cls-42{fill:url(#linear-gradient-25);}.cls-43{fill:url(#linear-gradient-26);}.cls-44{fill:url(#linear-gradient-27);}.cls-45{fill:url(#linear-gradient-28);}.cls-46{fill:url(#linear-gradient-29);}.cls-47{fill:url(#linear-gradient-30);}.cls-48{fill:url(#linear-gradient-31);}.cls-49{fill:url(#linear-gradient-32);}.cls-50{fill:url(#linear-gradient-33);}.cls-51{fill:url(#linear-gradient-34);}.cls-52{fill:url(#linear-gradient-35);}.cls-53{fill:url(#linear-gradient-36);}.cls-54{fill:url(#linear-gradient-37);}.cls-55{fill:url(#linear-gradient-38);}.cls-56{fill:url(#linear-gradient-39);}.cls-57{fill:url(#linear-gradient-40);}.cls-58{fill:url(#linear-gradient-41);}.cls-59{fill:url(#linear-gradient-42);}.cls-60{fill:url(#linear-gradient-43);}.cls-61{fill:url(#linear-gradient-44);}.cls-62{fill:url(#linear-gradient-45);}.cls-63{fill:url(#linear-gradient-46);}.cls-64{fill:url(#linear-gradient-47);}.cls-65{fill:url(#linear-gradient-48);}.cls-66{fill:url(#linear-gradient-49);}.cls-67{fill:url(#linear-gradient-50);}.cls-68{fill:url(#linear-gradient-51);}.cls-69{fill:url(#linear-gradient-52);}.cls-70{fill:url(#linear-gradient-53);}.cls-71{fill:url(#linear-gradient-54);}.cls-72{fill:url(#linear-gradient-55);}.cls-73{fill:url(#linear-gradient-56);}.cls-75{fill:url(#linear-gradient-57);}.cls-76{fill:url(#linear-gradient-58);}.cls-77{fill:url(#linear-gradient-59);}.cls-78{fill:url(#linear-gradient-60);}.cls-79{fill:url(#linear-gradient-61);}.cls-80{fill:url(#linear-gradient-62);}.cls-81{fill:url(#linear-gradient-63);}.cls-82{fill:url(#linear-gradient-64);}.cls-83{fill:url(#linear-gradient-65);}.cls-84{fill:url(#linear-gradient-66);}.cls-85{fill:url(#linear-gradient-67);}.cls-86{fill:url(#linear-gradient-68);}.cls-87{fill:url(#linear-gradient-69);}.cls-88{fill:url(#linear-gradient-70);}.cls-89{fill:url(#linear-gradient-71);}.cls-90{fill:url(#linear-gradient-72);}.cls-91{fill:url(#linear-gradient-73);}.cls-92{fill:url(#linear-gradient-74);}.cls-93{fill:url(#linear-gradient-75);}.cls-94{fill:url(#linear-gradient-76);}.cls-95{fill:url(#linear-gradient-77);}.cls-96{fill:url(#linear-gradient-78);}.cls-97{fill:url(#linear-gradient-79);}.cls-98{clip-path:url(#clip-path-4);}.cls-99{fill:url(#linear-gradient-81);}.cls-100{fill:url(#linear-gradient-82);}.cls-101{fill:url(#linear-gradient-83);}.cls-102{fill:url(#linear-gradient-84);}.cls-103{fill:url(#linear-gradient-85);}.cls-104{fill:url(#linear-gradient-86);}.cls-105{fill:url(#linear-gradient-87);}.cls-106{fill:url(#linear-gradient-88);}.cls-107{fill:url(#linear-gradient-89);}.cls-108{fill:url(#linear-gradient-90);}.cls-109{fill:url(#linear-gradient-91);}.cls-110{fill:url(#linear-gradient-92);}.cls-111{fill:url(#linear-gradient-93);}.cls-112{fill:url(#linear-gradient-94);}.cls-113{fill:url(#linear-gradient-95);}.cls-114{fill:url(#linear-gradient-96);}.cls-115{fill:url(#linear-gradient-97);}.cls-116{fill:url(#linear-gradient-98);}.cls-117{fill:url(#linear-gradient-99);}.cls-118{fill:url(#linear-gradient-100);}.cls-119{fill:url(#linear-gradient-101);}.cls-120{fill:url(#linear-gradient-102);}.cls-121{fill:url(#linear-gradient-103);}.cls-122{fill:url(#linear-gradient-104);}.cls-123{fill:url(#linear-gradient-105);}.cls-124{fill:url(#linear-gradient-106);}.cls-125{fill:url(#linear-gradient-107);}.cls-126{fill:url(#linear-gradient-108);}.cls-127{fill:url(#linear-gradient-109);}.cls-128{fill:url(#linear-gradient-110);}.cls-129{fill:url(#linear-gradient-111);}.cls-130{fill:url(#linear-gradient-112);}.cls-131{fill:url(#linear-gradient-113);}.cls-132{fill:url(#linear-gradient-114);}.cls-133{fill:url(#linear-gradient-115);}.cls-134{fill:url(#linear-gradient-116);}.cls-135{fill:url(#linear-gradient-117);}.cls-136{fill:url(#linear-gradient-118);}.cls-137{fill:url(#linear-gradient-119);}.cls-138{fill:url(#linear-gradient-120);}.cls-139{fill:url(#linear-gradient-121);}.cls-140{fill:url(#linear-gradient-122);}.cls-141{fill:url(#linear-gradient-123);}.cls-142{fill:url(#linear-gradient-124);}.cls-143{fill:url(#linear-gradient-125);}.cls-144{fill:url(#linear-gradient-126);}.cls-145{fill:url(#linear-gradient-127);}.cls-146{fill:url(#linear-gradient-128);}.cls-147{fill:url(#linear-gradient-129);}.cls-148{fill:url(#linear-gradient-130);}.cls-149{fill:url(#linear-gradient-131);}.cls-150{fill:url(#linear-gradient-132);}.cls-151{fill:url(#linear-gradient-133);}.cls-152{fill:url(#linear-gradient-134);}.cls-153{fill:url(#linear-gradient-135);}.cls-154{fill:url(#linear-gradient-136);}.cls-155{fill:url(#linear-gradient-137);}.cls-156{fill:url(#linear-gradient-138);}.cls-157{fill:url(#linear-gradient-139);}.cls-158{fill:url(#linear-gradient-140);}.cls-159{fill:url(#linear-gradient-141);}</style><linearGradient id="linear-gradient" x1="254.33" y1="238.74" x2="254.31" y2="244.11" gradientUnits="userSpaceOnUse"><stop offset="0" stop-color="#ff335f"/><stop offset="1" stop-color="#b8000a"/></linearGradient><linearGradient id="linear-gradient-2" x1="248.87" y1="238.03" x2="248.85" y2="243.96" xlink:href="#linear-gradient"/><linearGradient id="linear-gradient-3" x1="250.68" y1="247.82" x2="251.95" y2="263.71" gradientUnits="userSpaceOnUse"><stop offset="0" stop-color="#ff0073"/><stop offset="0.03" stop-color="#ff0870"/><stop offset="0.39" stop-color="#ff5d52"/><stop offset="0.68" stop-color="#ff9c3c"/><stop offset="0.89" stop-color="#ffc22e"/><stop offset="1" stop-color="#ffd129"/></linearGradient><linearGradient id="linear-gradient-4" x1="243.34" y1="254.83" x2="257.56" y2="254.83" gradientUnits="userSpaceOnUse"><stop offset="0" stop-color="#ffe6a9"/><stop offset="1" stop-color="#b74800"/></linearGradient><clipPath id="clip-path" transform="translate(-236.54 -238.23)"><path class="cls-1" d="M265.35,259a4.58,4.58,0,0,0-.28-1.38c-.13-.37-3.62-10.78-4.08-12.16a3.68,3.68,0,0,0-.57-1.33,4.67,4.67,0,0,0-1.95-1.07,19,19,0,0,0-4.65-.85,30.08,30.08,0,0,0-4.65,0,18,18,0,0,0-4.66.87,4.83,4.83,0,0,0-1.69.9,2.76,2.76,0,0,0-.64,1.29c-.28.82-4.14,12.14-4.38,12.86-.63,1.95,3.83,4.77,14.1,4.77C263.54,262.87,265.34,259.77,265.35,259Z"/></clipPath><linearGradient id="linear-gradient-5" x1="250.66" y1="245.88" x2="253.96" y2="263.17" xlink:href="#linear-gradient-3"/><clipPath id="clip-path-2" transform="translate(-236.54 -238.23)"><path class="cls-1" d="M251.94,248.77c.07.58-.17,5.57-.08,6.2.06.42.21,1.14.81,1.15s.85-.9.85-1.29c0-.87,0-1.73,0-2.6a7.4,7.4,0,0,1,.19-2.58c.52-1.13,1.94-.81,2.38,1.08.23,1,1.34,12,1.34,12a10.92,10.92,0,0,0,2.15-.42s-2.41-10.75-2.64-14c0-.42,0-1,.43-1.08s.89.11,1.12.68.23,1.14.57,1.58a.72.72,0,0,0,.88.18c.35-.2.25-.92.2-1.28-.13-.94-.49-2.06.35-2.2a.83.83,0,0,1,.88.55l.33.74c-.06-.14-.53-2.9-1.08-3.6a4.51,4.51,0,0,0-2-1.21,25.63,25.63,0,0,0-12.58-.49c-1.63.37-3.2.85-3.93,2.69-.12.3-.94,2.91-1.41,4.81a21.36,21.36,0,0,1,1.58-3.07.65.65,0,0,1,1.15.22c.22.68-1.6,6.4-1.64,7.31-.06,1.09,1.2,1.21,1.43.47s1.25-4.41,1.64-5.78c.17-.56.43-1.64,1.26-1.7,1.3-.09.94,1.68.87,2.3s-.13,1.37-.24,2.05a2.11,2.11,0,0,0,0,.9.68.68,0,0,0,1.3,0c.25-.57.46-3.19.67-3.9C249,247.32,251.79,247.58,251.94,248.77Z"/></clipPath><linearGradient id="linear-gradient-6" x1="251.59" y1="246.1" x2="251.59" y2="241.09" gradientUnits="userSpaceOnUse"><stop offset="0" stop-color="#ffb959"/><stop offset="1" stop-color="#ff1a41"/></linearGradient><linearGradient id="linear-gradient-7" x1="251.64" y1="245.84" x2="251.64" y2="242.17" gradientUnits="userSpaceOnUse"><stop offset="0" stop-color="#ffb9c0"/><stop offset="1" stop-color="#ff1a41"/></linearGradient><linearGradient id="linear-gradient-8" x1="255.46" y1="248.66" x2="255.46" y2="251.75" gradientUnits="userSpaceOnUse"><stop offset="0" stop-color="#ffb9c0"/><stop offset="1" stop-color="#be4e5a"/></linearGradient><linearGradient id="linear-gradient-9" x1="256.63" y1="247.24" x2="256.63" y2="249.09" xlink:href="#linear-gradient-8"/><linearGradient id="linear-gradient-10" x1="251.8" y1="247.56" x2="251.8" y2="252.44" xlink:href="#linear-gradient-8"/><linearGradient id="linear-gradient-11" x1="247.2" y1="247.08" x2="247.2" y2="250.15" xlink:href="#linear-gradient-8"/><linearGradient id="linear-gradient-12" x1="248.68" y1="247.59" x2="248.68" y2="249.05" xlink:href="#linear-gradient-8"/><linearGradient id="linear-gradient-13" x1="257.09" y1="254.47" x2="257.71" y2="261.72" xlink:href="#linear-gradient-8"/><linearGradient id="linear-gradient-14" x1="243.5" y1="246.06" x2="243.5" y2="249.18" xlink:href="#linear-gradient-8"/><linearGradient id="linear-gradient-15" x1="245.24" y1="246.85" x2="245.24" y2="248.04" xlink:href="#linear-gradient-8"/><linearGradient id="linear-gradient-16" x1="258.63" y1="246.78" x2="258.63" y2="248.61" xlink:href="#linear-gradient-8"/><linearGradient id="linear-gradient-17" x1="259.68" y1="246.08" x2="259.68" y2="247.35" xlink:href="#linear-gradient-8"/><radialGradient id="radial-gradient" cx="255.4" cy="263.73" r="17.77" gradientUnits="userSpaceOnUse"><stop offset="0" stop-color="#ffa8a8"/><stop offset="0.1" stop-color="#ff9a9e"/><stop offset="0.52" stop-color="#ff6778"/><stop offset="0.83" stop-color="#ff4760"/><stop offset="1" stop-color="#ff3b57"/></radialGradient><radialGradient id="radial-gradient-2" cx="253.13" cy="263.59" r="17" xlink:href="#radial-gradient"/><radialGradient id="radial-gradient-3" cx="238.12" cy="259.97" r="1.17" xlink:href="#radial-gradient"/><radialGradient id="radial-gradient-4" cx="249.29" cy="239.96" r="26.23" gradientUnits="userSpaceOnUse"><stop offset="0" stop-color="#edddb4"/><stop offset="0.33" stop-color="#b49e82"/><stop offset="0.64" stop-color="#866b58"/><stop offset="0.87" stop-color="#694b3f"/><stop offset="1" stop-color="#5e3f35"/></radialGradient><clipPath id="clip-path-3" transform="translate(-236.54 -238.23)"><path class="cls-2" d="M251.7,242.13a.19.19,0,0,1,0-.11l.07,0a.55.55,0,0,1,0-.23.13.13,0,0,1,0-.06,2.33,2.33,0,0,1,0-.28.87.87,0,0,1,.07-.17.28.28,0,0,1,.12-.1.54.54,0,0,1-.06-.38,1,1,0,0,1,.17-.35l0-.06c0-.08.09-.19.21-.21h.07a.62.62,0,0,1,.3-.57h0c0-.15.25-.47.31-.5a.28.28,0,0,1,.17,0,.16.16,0,0,1,.13.08s0,0,0,0a.73.73,0,0,1,.48-.16.33.33,0,0,1,.15.05l.06.06a.18.18,0,0,1,.1-.09.64.64,0,0,1,.2,0,.44.44,0,0,1,.2.08l0,.06a.21.21,0,0,1,.21-.1c.26,0,.72.1.88.37a.4.4,0,0,1,0,.32h.1a.57.57,0,0,1,.3.15,1.61,1.61,0,0,1,.3.38.63.63,0,0,1,.07.51s0,0,0,0h0s.06,0,.08,0a.36.36,0,0,1,.16.12.9.9,0,0,1,.14.57.66.66,0,0,1-.07.32.53.53,0,0,1-.24.25.24.24,0,0,1,.17.19.86.86,0,0,1-.05.43.74.74,0,0,1-.08.15.38.38,0,0,1-.11.11s0,0,0,0c.07.17-.15.6-.21.65a.8.8,0,0,1-.17.15l-.16.1a.24.24,0,0,1-.12,0c0,.13-.21.28-.28.32h0a.53.53,0,0,1-.38.12.16.16,0,0,1-.12-.09l-.07,0-.14,0h0a1.21,1.21,0,0,1-.38,0,.32.32,0,0,1-.09,0,.31.31,0,0,1-.16-.11.19.19,0,0,1,0,.1l-.09.07a.72.72,0,0,1-.37.05h-.05a2.29,2.29,0,0,1-.28-.09.2.2,0,0,1-.11-.06.17.17,0,0,1-.07-.12.39.39,0,0,1-.33,0l-.11,0a.54.54,0,0,1-.32-.26.15.15,0,0,1,0-.11h-.09l-.12,0a.86.86,0,0,1-.3-.26,1,1,0,0,1-.11-.63.46.46,0,0,1,0-.09.31.31,0,0,1-.05-.1A1.72,1.72,0,0,1,251.7,242.13Z"/></clipPath><linearGradient id="linear-gradient-19" x1="531.68" y1="250.46" x2="531.68" y2="251.52" gradientTransform="matrix(-1, -0.09, -0.09, 1, 806.91, 40.97)" xlink:href="#linear-gradient"/><linearGradient id="linear-gradient-20" x1="532.33" y1="249.65" x2="532.33" y2="250.89" gradientTransform="matrix(-1, -0.09, -0.09, 1, 806.91, 40.97)" xlink:href="#linear-gradient"/><linearGradient id="linear-gradient-21" x1="533.06" y1="249.14" x2="533.06" y2="250.21" gradientTransform="matrix(-1, -0.09, -0.09, 1, 806.91, 40.97)" xlink:href="#linear-gradient"/><linearGradient id="linear-gradient-22" x1="532.1" y1="248.65" x2="532.1" y2="249.69" gradientTransform="matrix(-1, -0.09, -0.09, 1, 806.91, 40.97)" xlink:href="#linear-gradient"/><linearGradient id="linear-gradient-23" x1="533" y1="248.22" x2="533" y2="249.08" gradientTransform="matrix(-1, -0.09, -0.09, 1, 806.91, 40.97)" xlink:href="#linear-gradient"/><linearGradient id="linear-gradient-24" x1="531.88" y1="247.8" x2="531.88" y2="248.65" gradientTransform="matrix(-1, -0.09, -0.09, 1, 806.91, 40.97)" xlink:href="#linear-gradient"/><linearGradient id="linear-gradient-25" x1="532.86" y1="247.63" x2="532.86" y2="248.25" gradientTransform="matrix(-1, -0.09, -0.09, 1, 806.91, 40.97)" xlink:href="#linear-gradient"/><linearGradient id="linear-gradient-26" x1="533.64" y1="248.28" x2="533.64" y2="248.97" gradientTransform="matrix(-1, -0.09, -0.09, 1, 806.91, 40.97)" xlink:href="#linear-gradient"/><linearGradient id="linear-gradient-27" x1="533.46" y1="247.74" x2="533.46" y2="248.33" gradientTransform="matrix(-1, -0.09, -0.09, 1, 806.91, 40.97)" xlink:href="#linear-gradient"/><linearGradient id="linear-gradient-28" x1="533.65" y1="248.88" x2="533.65" y2="249.81" gradientTransform="matrix(-1, -0.09, -0.09, 1, 806.91, 40.97)" xlink:href="#linear-gradient"/><linearGradient id="linear-gradient-29" x1="533.21" y1="250.21" x2="533.21" y2="251.38" gradientTransform="matrix(-1, -0.09, -0.09, 1, 806.91, 40.97)" xlink:href="#linear-gradient"/><linearGradient id="linear-gradient-30" x1="531.21" y1="249.25" x2="531.21" y2="250.5" gradientTransform="matrix(-1, -0.09, -0.09, 1, 806.91, 40.97)" xlink:href="#linear-gradient"/><linearGradient id="linear-gradient-31" x1="532.53" y1="250.92" x2="532.53" y2="251.79" gradientTransform="matrix(-1, -0.09, -0.09, 1, 806.91, 40.97)" xlink:href="#linear-gradient"/><linearGradient id="linear-gradient-32" x1="533.77" y1="249.83" x2="533.77" y2="250.56" gradientTransform="matrix(-1, -0.09, -0.09, 1, 806.91, 40.97)" xlink:href="#linear-gradient"/><linearGradient id="linear-gradient-33" x1="530.99" y1="248.47" x2="530.99" y2="249.26" gradientTransform="matrix(-1, -0.09, -0.09, 1, 806.91, 40.97)" xlink:href="#linear-gradient"/><linearGradient id="linear-gradient-34" x1="531.29" y1="247.57" x2="531.29" y2="248.3" gradientTransform="matrix(-1, -0.09, -0.09, 1, 806.91, 40.97)" xlink:href="#linear-gradient"/><linearGradient id="linear-gradient-35" x1="532.18" y1="247.57" x2="532.18" y2="247.74" gradientTransform="matrix(-1, -0.09, -0.09, 1, 806.91, 40.97)" xlink:href="#linear-gradient"/><linearGradient id="linear-gradient-36" x1="530.31" y1="248.16" x2="530.31" y2="249.22" gradientTransform="matrix(-1, -0.09, -0.09, 1, 806.91, 40.97)" xlink:href="#linear-gradient"/><linearGradient id="linear-gradient-37" x1="533.79" y1="250.64" x2="533.79" y2="251.49" gradientTransform="matrix(-1, -0.09, -0.09, 1, 806.91, 40.97)" xlink:href="#linear-gradient"/><linearGradient id="linear-gradient-38" x1="534.18" y1="248.94" x2="534.18" y2="249.91" gradientTransform="matrix(-1, -0.09, -0.09, 1, 806.91, 40.97)" xlink:href="#linear-gradient"/><linearGradient id="linear-gradient-39" x1="530.33" y1="249.22" x2="530.33" y2="250.13" gradientTransform="matrix(-1, -0.09, -0.09, 1, 806.91, 40.97)" xlink:href="#linear-gradient"/><linearGradient id="linear-gradient-40" x1="530.64" y1="250.17" x2="530.64" y2="251.25" gradientTransform="matrix(-1, -0.09, -0.09, 1, 806.91, 40.97)" xlink:href="#linear-gradient"/><linearGradient id="linear-gradient-41" x1="531.14" y1="251.31" x2="531.14" y2="252.13" gradientTransform="matrix(-1, -0.09, -0.09, 1, 806.91, 40.97)" xlink:href="#linear-gradient"/><linearGradient id="linear-gradient-42" x1="532.1" y1="251.62" x2="532.1" y2="252.45" gradientTransform="matrix(-1, -0.09, -0.09, 1, 806.91, 40.97)" xlink:href="#linear-gradient"/><linearGradient id="linear-gradient-43" x1="533.06" y1="251.45" x2="533.06" y2="252.37" gradientTransform="matrix(-1, -0.09, -0.09, 1, 806.91, 40.97)" xlink:href="#linear-gradient"/><linearGradient id="linear-gradient-44" x1="533.76" y1="251.51" x2="533.76" y2="252.29" gradientTransform="matrix(-1, -0.09, -0.09, 1, 806.91, 40.97)" xlink:href="#linear-gradient"/><linearGradient id="linear-gradient-45" x1="534.15" y1="250.89" x2="534.15" y2="251.56" gradientTransform="matrix(-1, -0.09, -0.09, 1, 806.91, 40.97)" xlink:href="#linear-gradient"/><linearGradient id="linear-gradient-46" x1="534.24" y1="249.95" x2="534.24" y2="250.83" gradientTransform="matrix(-1, -0.09, -0.09, 1, 806.91, 40.97)" xlink:href="#linear-gradient"/><linearGradient id="linear-gradient-47" x1="529.65" y1="249.18" x2="529.65" y2="250.31" gradientTransform="matrix(-1, -0.09, -0.09, 1, 806.91, 40.97)" xlink:href="#linear-gradient"/><linearGradient id="linear-gradient-48" x1="529.8" y1="250.45" x2="529.8" y2="251.32" gradientTransform="matrix(-1, -0.09, -0.09, 1, 806.91, 40.97)" xlink:href="#linear-gradient"/><linearGradient id="linear-gradient-49" x1="530.38" y1="251.42" x2="530.38" y2="252.41" gradientTransform="matrix(-1, -0.09, -0.09, 1, 806.91, 40.97)" xlink:href="#linear-gradient"/><linearGradient id="linear-gradient-50" x1="531.31" y1="252.22" x2="531.31" y2="252.77" gradientTransform="matrix(-1, -0.09, -0.09, 1, 806.91, 40.97)" xlink:href="#linear-gradient"/><linearGradient id="linear-gradient-51" x1="532.35" y1="252.41" x2="532.35" y2="252.91" gradientTransform="matrix(-1, -0.09, -0.09, 1, 806.91, 40.97)" xlink:href="#linear-gradient"/><linearGradient id="linear-gradient-52" x1="533.25" y1="252.36" x2="533.25" y2="252.77" gradientTransform="matrix(-1, -0.09, -0.09, 1, 806.91, 40.97)" xlink:href="#linear-gradient"/><linearGradient id="linear-gradient-53" x1="534.03" y1="251.54" x2="534.03" y2="252.4" gradientTransform="matrix(-1, -0.09, -0.09, 1, 806.91, 40.97)" xlink:href="#linear-gradient"/><linearGradient id="linear-gradient-54" x1="534.42" y1="250.82" x2="534.42" y2="251.46" gradientTransform="matrix(-1, -0.09, -0.09, 1, 806.91, 40.97)" xlink:href="#linear-gradient"/><linearGradient id="linear-gradient-55" x1="529.86" y1="251.29" x2="529.86" y2="252.2" gradientTransform="matrix(-1, -0.09, -0.09, 1, 806.91, 40.97)" xlink:href="#linear-gradient"/><linearGradient id="linear-gradient-56" x1="530.51" y1="252.26" x2="530.51" y2="252.73" gradientTransform="matrix(-1, -0.09, -0.09, 1, 806.91, 40.97)" xlink:href="#linear-gradient"/><linearGradient id="linear-gradient-57" x1="531.72" y1="250.48" x2="531.72" y2="251.1" gradientTransform="matrix(-1, -0.09, -0.09, 1, 806.91, 40.97)" gradientUnits="userSpaceOnUse"><stop offset="0" stop-color="#ffa666"/><stop offset="1" stop-color="#b8000a"/></linearGradient><linearGradient id="linear-gradient-58" x1="532.36" y1="249.68" x2="532.36" y2="250.47" xlink:href="#linear-gradient-57"/><linearGradient id="linear-gradient-59" x1="533.12" y1="249.16" x2="533.12" y2="249.77" xlink:href="#linear-gradient-57"/><linearGradient id="linear-gradient-60" x1="532.16" y1="248.68" x2="532.16" y2="249.27" xlink:href="#linear-gradient-57"/><linearGradient id="linear-gradient-61" x1="533" y1="248.26" x2="533" y2="248.67" xlink:href="#linear-gradient-57"/><linearGradient id="linear-gradient-62" x1="531.97" y1="247.87" x2="531.97" y2="248.26" xlink:href="#linear-gradient-57"/><linearGradient id="linear-gradient-63" x1="532.85" y1="247.72" x2="532.85" y2="247.88" xlink:href="#linear-gradient-57"/><linearGradient id="linear-gradient-64" x1="533.58" y1="248.37" x2="533.58" y2="248.52" xlink:href="#linear-gradient-57"/><linearGradient id="linear-gradient-65" x1="533.71" y1="248.9" x2="533.71" y2="249.32" xlink:href="#linear-gradient-57"/><linearGradient id="linear-gradient-66" x1="533.27" y1="250.25" x2="533.27" y2="250.96" xlink:href="#linear-gradient-57"/><linearGradient id="linear-gradient-67" x1="531.25" y1="249.28" x2="531.25" y2="250.08" xlink:href="#linear-gradient-57"/><linearGradient id="linear-gradient-68" x1="532.5" y1="250.97" x2="532.5" y2="251.41" xlink:href="#linear-gradient-57"/><linearGradient id="linear-gradient-69" x1="530.9" y1="248.54" x2="530.9" y2="248.88" xlink:href="#linear-gradient-57"/><linearGradient id="linear-gradient-70" x1="530.44" y1="248.29" x2="530.44" y2="248.73" xlink:href="#linear-gradient-57"/><linearGradient id="linear-gradient-71" x1="530.44" y1="249.27" x2="530.44" y2="249.78" xlink:href="#linear-gradient-57"/><linearGradient id="linear-gradient-72" x1="530.68" y1="250.2" x2="530.68" y2="250.83" xlink:href="#linear-gradient-57"/><linearGradient id="linear-gradient-73" x1="531.22" y1="251.4" x2="531.22" y2="251.77" xlink:href="#linear-gradient-57"/><linearGradient id="linear-gradient-74" x1="531.99" y1="251.85" x2="531.99" y2="252.14" xlink:href="#linear-gradient-57"/><linearGradient id="linear-gradient-75" x1="533.05" y1="251.49" x2="533.05" y2="251.97" xlink:href="#linear-gradient-57"/><linearGradient id="linear-gradient-76" x1="533.86" y1="251.52" x2="533.86" y2="251.78" xlink:href="#linear-gradient-57"/><linearGradient id="linear-gradient-77" x1="534.28" y1="250.16" x2="534.28" y2="250.41" xlink:href="#linear-gradient-57"/><linearGradient id="linear-gradient-78" x1="529.89" y1="250.54" x2="529.89" y2="251.01" xlink:href="#linear-gradient-57"/><linearGradient id="linear-gradient-79" x1="530.25" y1="251.52" x2="530.25" y2="251.78" xlink:href="#linear-gradient-57"/><clipPath id="clip-path-4" transform="translate(-236.54 -238.23)"><path class="cls-3" d="M251.76,241.71a.19.19,0,0,0,0-.12.12.12,0,0,0-.08,0,.55.55,0,0,0,0-.26.17.17,0,0,0,0-.07c0-.1,0-.21-.07-.31a.71.71,0,0,0-.08-.18.23.23,0,0,0-.14-.1.55.55,0,0,0,.06-.42,1.36,1.36,0,0,0-.2-.4l0-.05a.35.35,0,0,0-.24-.23h-.08a.68.68,0,0,0-.35-.62h0c0-.17-.29-.51-.36-.54a.36.36,0,0,0-.19,0,.19.19,0,0,0-.14.09,0,0,0,0,0,0,0,.76.76,0,0,0-.53-.16.38.38,0,0,0-.17.06l-.06.06a.24.24,0,0,0-.12-.09.56.56,0,0,0-.22,0,.38.38,0,0,0-.21.1.19.19,0,0,0-.06.07.25.25,0,0,0-.24-.11c-.28,0-.79.13-1,.44a.43.43,0,0,0,0,.35h-.12a.7.7,0,0,0-.32.18,1.79,1.79,0,0,0-.32.43.7.7,0,0,0-.07.56s0,0,0,0h0l-.09,0a.45.45,0,0,0-.16.15.94.94,0,0,0-.14.63.8.8,0,0,0,.08.35.52.52,0,0,0,.27.26.27.27,0,0,0-.17.22,1,1,0,0,0,.07.48.51.51,0,0,0,.08.17.69.69,0,0,0,.13.11l0,0c-.07.2.19.66.25.72a1,1,0,0,0,.2.16l.17.11a.22.22,0,0,0,.14,0c0,.15.24.3.32.35h0a.65.65,0,0,0,.42.13.22.22,0,0,0,.14-.11l.08,0,.15,0h0a1.49,1.49,0,0,0,.42,0l.1,0a.3.3,0,0,0,.17-.14.25.25,0,0,0,.07.12l.1.07a.67.67,0,0,0,.41,0h.05l.31-.11a.33.33,0,0,0,.13-.07.27.27,0,0,0,.07-.14.39.39,0,0,0,.36.05l.12,0a.56.56,0,0,0,.35-.29.2.2,0,0,0,0-.13.34.34,0,0,0,.1,0l.14,0a.84.84,0,0,0,.32-.3,1.08,1.08,0,0,0,.1-.69.19.19,0,0,0,0-.1.24.24,0,0,0,.06-.11A1.85,1.85,0,0,0,251.76,241.71Z"/></clipPath><linearGradient id="linear-gradient-81" x1="-118.1" y1="205.75" x2="-118.1" y2="206.92" gradientTransform="translate(341.33 23.13) rotate(-6.83)" xlink:href="#linear-gradient"/><linearGradient id="linear-gradient-82" x1="-117.38" y1="204.86" x2="-117.38" y2="206.23" gradientTransform="translate(341.33 23.13) rotate(-6.83)" xlink:href="#linear-gradient"/><linearGradient id="linear-gradient-83" x1="-116.58" y1="204.3" x2="-116.58" y2="205.48" gradientTransform="translate(341.33 23.13) rotate(-6.83)" xlink:href="#linear-gradient"/><linearGradient id="linear-gradient-84" x1="-117.64" y1="203.76" x2="-117.64" y2="204.91" gradientTransform="translate(341.33 23.13) rotate(-6.83)" xlink:href="#linear-gradient"/><linearGradient id="linear-gradient-85" x1="-116.63" y1="203.27" x2="-116.63" y2="204.23" gradientTransform="translate(341.33 23.13) rotate(-6.83)" xlink:href="#linear-gradient"/><linearGradient id="linear-gradient-86" x1="-117.88" y1="202.82" x2="-117.88" y2="203.75" gradientTransform="translate(341.33 23.13) rotate(-6.83)" xlink:href="#linear-gradient"/><linearGradient id="linear-gradient-87" x1="-116.79" y1="202.62" x2="-116.79" y2="203.31" gradientTransform="translate(341.33 23.13) rotate(-6.83)" xlink:href="#linear-gradient"/><linearGradient id="linear-gradient-88" x1="-115.92" y1="203.34" x2="-115.92" y2="204.11" gradientTransform="translate(341.33 23.13) rotate(-6.83)" xlink:href="#linear-gradient"/><linearGradient id="linear-gradient-89" x1="-116.13" y1="202.74" x2="-116.13" y2="203.4" gradientTransform="translate(341.33 23.13) rotate(-6.83)" xlink:href="#linear-gradient"/><linearGradient id="linear-gradient-90" x1="-115.91" y1="204" x2="-115.91" y2="205.04" gradientTransform="translate(341.33 23.13) rotate(-6.83)" xlink:href="#linear-gradient"/><linearGradient id="linear-gradient-91" x1="-116.4" y1="205.48" x2="-116.4" y2="206.77" gradientTransform="translate(341.33 23.13) rotate(-6.83)" xlink:href="#linear-gradient"/><linearGradient id="linear-gradient-92" x1="-118.62" y1="204.42" x2="-118.62" y2="205.8" gradientTransform="translate(341.33 23.13) rotate(-6.83)" xlink:href="#linear-gradient"/><linearGradient id="linear-gradient-93" x1="-117.16" y1="206.26" x2="-117.16" y2="207.23" gradientTransform="translate(341.33 23.13) rotate(-6.83)" xlink:href="#linear-gradient"/><linearGradient id="linear-gradient-94" x1="-115.78" y1="205.05" x2="-115.78" y2="205.86" gradientTransform="translate(341.33 23.13) rotate(-6.83)" xlink:href="#linear-gradient"/><linearGradient id="linear-gradient-95" x1="-118.86" y1="203.55" x2="-118.86" y2="204.43" gradientTransform="translate(341.33 23.13) rotate(-6.83)" xlink:href="#linear-gradient"/><linearGradient id="linear-gradient-96" x1="-118.52" y1="202.56" x2="-118.52" y2="203.37" gradientTransform="translate(341.33 23.13) rotate(-6.83)" xlink:href="#linear-gradient"/><linearGradient id="linear-gradient-97" x1="-117.55" y1="202.56" x2="-117.55" y2="202.75" gradientTransform="translate(341.33 23.13) rotate(-6.83)" xlink:href="#linear-gradient"/><linearGradient id="linear-gradient-98" x1="-119.62" y1="203.21" x2="-119.62" y2="204.38" gradientTransform="translate(341.33 23.13) rotate(-6.83)" xlink:href="#linear-gradient"/><linearGradient id="linear-gradient-99" x1="-115.76" y1="205.95" x2="-115.76" y2="206.89" gradientTransform="translate(341.33 23.13) rotate(-6.83)" xlink:href="#linear-gradient"/><linearGradient id="linear-gradient-100" x1="-115.33" y1="204.07" x2="-115.33" y2="205.14" gradientTransform="translate(341.33 23.13) rotate(-6.83)" xlink:href="#linear-gradient"/><linearGradient id="linear-gradient-101" x1="-119.59" y1="204.38" x2="-119.59" y2="205.39" gradientTransform="translate(341.33 23.13) rotate(-6.83)" xlink:href="#linear-gradient"/><linearGradient id="linear-gradient-102" x1="-119.25" y1="205.44" x2="-119.25" y2="206.63" gradientTransform="translate(341.33 23.13) rotate(-6.83)" xlink:href="#linear-gradient"/><linearGradient id="linear-gradient-103" x1="-118.69" y1="206.69" x2="-118.69" y2="207.6" gradientTransform="translate(341.33 23.13) rotate(-6.83)" xlink:href="#linear-gradient"/><linearGradient id="linear-gradient-104" x1="-117.64" y1="207.04" x2="-117.64" y2="207.96" gradientTransform="translate(341.33 23.13) rotate(-6.83)" xlink:href="#linear-gradient"/><linearGradient id="linear-gradient-105" x1="-116.57" y1="206.85" x2="-116.57" y2="207.86" gradientTransform="translate(341.33 23.13) rotate(-6.83)" xlink:href="#linear-gradient"/><linearGradient id="linear-gradient-106" x1="-115.79" y1="206.92" x2="-115.79" y2="207.78" gradientTransform="translate(341.33 23.13) rotate(-6.83)" xlink:href="#linear-gradient"/><linearGradient id="linear-gradient-107" x1="-115.36" y1="206.23" x2="-115.36" y2="206.97" gradientTransform="translate(341.33 23.13) rotate(-6.83)" xlink:href="#linear-gradient"/><linearGradient id="linear-gradient-108" x1="-115.27" y1="205.19" x2="-115.27" y2="206.17" gradientTransform="translate(341.33 23.13) rotate(-6.83)" xlink:href="#linear-gradient"/><linearGradient id="linear-gradient-109" x1="-120.35" y1="204.34" x2="-120.35" y2="205.59" gradientTransform="translate(341.33 23.13) rotate(-6.83)" xlink:href="#linear-gradient"/><linearGradient id="linear-gradient-110" x1="-120.18" y1="205.74" x2="-120.18" y2="206.71" gradientTransform="translate(341.33 23.13) rotate(-6.83)" xlink:href="#linear-gradient"/><linearGradient id="linear-gradient-111" x1="-119.54" y1="206.81" x2="-119.54" y2="207.91" gradientTransform="translate(341.33 23.13) rotate(-6.83)" xlink:href="#linear-gradient"/><linearGradient id="linear-gradient-112" x1="-118.51" y1="207.7" x2="-118.51" y2="208.31" gradientTransform="translate(341.33 23.13) rotate(-6.83)" xlink:href="#linear-gradient"/><linearGradient id="linear-gradient-113" x1="-117.36" y1="207.92" x2="-117.36" y2="208.47" gradientTransform="translate(341.33 23.13) rotate(-6.83)" xlink:href="#linear-gradient"/><linearGradient id="linear-gradient-114" x1="-116.36" y1="207.86" x2="-116.36" y2="208.31" gradientTransform="translate(341.33 23.13) rotate(-6.83)" xlink:href="#linear-gradient"/><linearGradient id="linear-gradient-115" x1="-115.5" y1="206.95" x2="-115.5" y2="207.9" gradientTransform="translate(341.33 23.13) rotate(-6.83)" xlink:href="#linear-gradient"/><linearGradient id="linear-gradient-116" x1="-115.07" y1="206.15" x2="-115.07" y2="206.86" gradientTransform="translate(341.33 23.13) rotate(-6.83)" xlink:href="#linear-gradient"/><linearGradient id="linear-gradient-117" x1="-120.12" y1="206.68" x2="-120.12" y2="207.68" gradientTransform="translate(341.33 23.13) rotate(-6.83)" xlink:href="#linear-gradient"/><linearGradient id="linear-gradient-118" x1="-119.4" y1="207.74" x2="-119.4" y2="208.26" gradientTransform="translate(341.33 23.13) rotate(-6.83)" xlink:href="#linear-gradient"/><linearGradient id="linear-gradient-119" x1="-118.06" y1="205.78" x2="-118.06" y2="206.46" gradientTransform="translate(341.33 23.13) rotate(-6.83)" xlink:href="#linear-gradient-57"/><linearGradient id="linear-gradient-120" x1="-117.35" y1="204.89" x2="-117.35" y2="205.76" gradientTransform="translate(341.33 23.13) rotate(-6.83)" xlink:href="#linear-gradient-57"/><linearGradient id="linear-gradient-121" x1="-116.5" y1="204.32" x2="-116.5" y2="204.99" gradientTransform="translate(341.33 23.13) rotate(-6.83)" xlink:href="#linear-gradient-57"/><linearGradient id="linear-gradient-122" x1="-117.56" y1="203.78" x2="-117.56" y2="204.44" gradientTransform="translate(341.33 23.13) rotate(-6.83)" xlink:href="#linear-gradient-57"/><linearGradient id="linear-gradient-123" x1="-116.64" y1="203.32" x2="-116.64" y2="203.78" gradientTransform="translate(341.33 23.13) rotate(-6.83)" xlink:href="#linear-gradient-57"/><linearGradient id="linear-gradient-124" x1="-117.78" y1="202.89" x2="-117.78" y2="203.32" gradientTransform="translate(341.33 23.13) rotate(-6.83)" xlink:href="#linear-gradient-57"/><linearGradient id="linear-gradient-125" x1="-116.81" y1="202.73" x2="-116.81" y2="202.9" gradientTransform="translate(341.33 23.13) rotate(-6.83)" xlink:href="#linear-gradient-57"/><linearGradient id="linear-gradient-126" x1="-116" y1="203.44" x2="-116" y2="203.61" gradientTransform="translate(341.33 23.13) rotate(-6.83)" xlink:href="#linear-gradient-57"/><linearGradient id="linear-gradient-127" x1="-115.85" y1="204.03" x2="-115.85" y2="204.5" gradientTransform="translate(341.33 23.13) rotate(-6.83)" xlink:href="#linear-gradient-57"/><linearGradient id="linear-gradient-128" x1="-116.34" y1="205.52" x2="-116.34" y2="206.31" gradientTransform="translate(341.33 23.13) rotate(-6.83)" xlink:href="#linear-gradient-57"/><linearGradient id="linear-gradient-129" x1="-118.58" y1="204.45" x2="-118.58" y2="205.33" gradientTransform="translate(341.33 23.13) rotate(-6.83)" xlink:href="#linear-gradient-57"/><linearGradient id="linear-gradient-130" x1="-117.19" y1="206.32" x2="-117.19" y2="206.81" gradientTransform="translate(341.33 23.13) rotate(-6.83)" xlink:href="#linear-gradient-57"/><linearGradient id="linear-gradient-131" x1="-118.96" y1="203.62" x2="-118.96" y2="204.01" gradientTransform="translate(341.33 23.13) rotate(-6.83)" xlink:href="#linear-gradient-57"/><linearGradient id="linear-gradient-132" x1="-119.47" y1="203.35" x2="-119.47" y2="203.84" gradientTransform="translate(341.33 23.13) rotate(-6.83)" xlink:href="#linear-gradient-57"/><linearGradient id="linear-gradient-133" x1="-119.47" y1="204.44" x2="-119.47" y2="205.01" gradientTransform="translate(341.33 23.13) rotate(-6.83)" xlink:href="#linear-gradient-57"/><linearGradient id="linear-gradient-134" x1="-119.21" y1="205.46" x2="-119.21" y2="206.16" gradientTransform="translate(341.33 23.13) rotate(-6.83)" xlink:href="#linear-gradient-57"/><linearGradient id="linear-gradient-135" x1="-118.61" y1="206.79" x2="-118.61" y2="207.2" gradientTransform="translate(341.33 23.13) rotate(-6.83)" xlink:href="#linear-gradient-57"/><linearGradient id="linear-gradient-136" x1="-117.75" y1="207.29" x2="-117.75" y2="207.61" gradientTransform="translate(341.33 23.13) rotate(-6.83)" xlink:href="#linear-gradient-57"/><linearGradient id="linear-gradient-137" x1="-116.58" y1="206.9" x2="-116.58" y2="207.42" gradientTransform="translate(341.33 23.13) rotate(-6.83)" xlink:href="#linear-gradient-57"/><linearGradient id="linear-gradient-138" x1="-115.69" y1="206.93" x2="-115.69" y2="207.21" gradientTransform="translate(341.33 23.13) rotate(-6.83)" xlink:href="#linear-gradient-57"/><linearGradient id="linear-gradient-139" x1="-115.22" y1="205.43" x2="-115.22" y2="205.7" gradientTransform="translate(341.33 23.13) rotate(-6.83)" xlink:href="#linear-gradient-57"/><linearGradient id="linear-gradient-140" x1="-120.08" y1="205.84" x2="-120.08" y2="206.36" gradientTransform="translate(341.33 23.13) rotate(-6.83)" xlink:href="#linear-gradient-57"/><linearGradient id="linear-gradient-141" x1="-119.68" y1="206.93" x2="-119.68" y2="207.21" gradientTransform="translate(341.33 23.13) rotate(-6.83)" xlink:href="#linear-gradient-57"/></defs><title>pudding</title><g class="cls-4"><g id="Layer_1" data-name="Layer 1"><g id="_11" data-name="11"><path class="cls-5" d="M266.71,259.56c0-1-3.37-1.8-7.68-1.8s-4.35.79-4.35,1.83a1,1,0,0,0,.16.52c-.45,0-.89.08-1.29.13s-.81-.16-1.26-.22a.65.65,0,0,0,.12-.36c0-1-3.87-1.82-8.19-1.82s-7.68.75-7.68,1.79c0,.62,1.49,1.26,3.62,1.68a.48.48,0,0,0,0,.2c0,1,4.19,2.14,8.5,2.14a23.31,23.31,0,0,0,3-.19,13.22,13.22,0,0,0,4,.49c4.31,0,10-1.08,10-2.12,0-.24-.22-.47-.6-.68C266.23,260.73,266.71,260.13,266.71,259.56Z" transform="translate(-236.54 -238.23)"/><g id="_11-2" data-name="11"><path class="cls-6" d="M265.35,259a4.58,4.58,0,0,0-.28-1.38c-.13-.37-3.62-10.78-4.08-12.16a3.68,3.68,0,0,0-.57-1.33,4.67,4.67,0,0,0-1.95-1.07,19,19,0,0,0-4.65-.85,30.08,30.08,0,0,0-4.65,0,18,18,0,0,0-4.66.87,4.83,4.83,0,0,0-1.69.9,2.76,2.76,0,0,0-.64,1.29c-.28.82-4.14,12.14-4.38,12.86-.63,1.95,3.83,4.77,14.1,4.77C263.54,262.87,265.34,259.77,265.35,259Z" transform="translate(-236.54 -238.23)"/><path class="cls-7" d="M248.06,261.67a7.77,7.77,0,0,0,5.05-1.09c0-1.11-.06-2.52-.09-4a.68.68,0,0,1-.29,0c-.84,0-1-1.18-1-1.79,0-.81,0-1.61-.07-2.42-.09-4.5-1.94-4.17-2.58-3.53-.44.44-.5,1.82-.71,2.94-.11.62-.59,1.57-1.35,1.21s-.51-1.55-.5-2.2.18-3.12-.61-2.83c-.27.1-.54.65-.78,1.26l-3,11.58A34.79,34.79,0,0,0,248.06,261.67Z" transform="translate(-236.54 -238.23)"/><path class="cls-8" d="M265.07,257.59c-.13-.37-3.62-10.78-4.08-12.16a3.68,3.68,0,0,0-.57-1.33,4.67,4.67,0,0,0-1.95-1.07,19,19,0,0,0-4.65-.85,28.73,28.73,0,0,0-3.08-.08c3.26,3.46,4.8,9.49,4.59,14-.14,3.18-2.11,5.93-7.27,5.58-10.45-.72-10.25-3.6-10.26-3.57-.63,1.95,3.83,4.77,14.1,4.77,11.64,0,13.44-3.1,13.45-3.9A4.58,4.58,0,0,0,265.07,257.59Z" transform="translate(-236.54 -238.23)"/><g class="cls-9"><path class="cls-10" d="M265.07,257.59c-.13-.37-3.62-10.78-4.08-12.16a3.68,3.68,0,0,0-.57-1.33,4.67,4.67,0,0,0-1.95-1.07c-1-.34.11,2.66-1,2.52.81,3.55,2,10.95,1.12,16.87,5.65-.89,6.7-2.84,6.71-3.45A4.58,4.58,0,0,0,265.07,257.59Z" transform="translate(-236.54 -238.23)"/><path class="cls-10" d="M265.07,257.59c-.13-.37-3.62-10.78-4.08-12.16a3.68,3.68,0,0,0-.57-1.33,4.42,4.42,0,0,0-1.8-1c1.11-.14,3.93,11.6,4.12,18.24,2.11-.9,2.61-1.93,2.61-2.35A4.58,4.58,0,0,0,265.07,257.59Z" transform="translate(-236.54 -238.23)"/></g><path class="cls-11" d="M260.06,243.79a8.15,8.15,0,0,0-3.06-1.17,25.35,25.35,0,0,0-4.52-.52,29,29,0,0,0-5,.26,12.14,12.14,0,0,0-4,1.12c-.54.28-1.33.83-1.08,1.56s1.33,1.2,2,1.45a17.33,17.33,0,0,0,4,.84,30.7,30.7,0,0,0,4.89.12,25.52,25.52,0,0,0,3.59-.45,10.5,10.5,0,0,0,2.69-.89c.44-.24,1-.59,1.1-1.11s-.27-.93-.65-1.21Z" transform="translate(-236.54 -238.23)"/><g class="cls-12"><path class="cls-13" d="M251.69,252.4c0,.81.05,1.61.07,2.42,0,.61.13,1.78,1,1.79s1-1,1-1.31a21.32,21.32,0,0,1,.21-5,.7.7,0,0,1,1.35-.18c.53.8,1.62,8.32,2.31,10.91.79,3,1.16,1,1.1.75.05-1.19-1.26-10.71-1.34-11.48,0-.37-.34-1.92,0-2.2.91-.88,1,1,1.55,1.47s1.33.28,1.41-.59c.06-.62-.4-2.16.41-2.38.44-.11,1,.84,1,.84.32,0-.44-1.92-.67-2.17a4.76,4.76,0,0,0-2.12-1.12,30,30,0,0,0-13.11-.46c-1.7.34-3.33.78-4.09,2.49-.31.7-.53,1.45-.77,2.17a8.57,8.57,0,0,1-.53,1.33,1.74,1.74,0,0,0-.23.56c0,.13.15.1.09.18.51-.69,1.1-2.18,1.61-2.88s1.11-.36,1,.53c-.23,1.5-.87,4-1.14,5.42-.11.62-.39,1.27.08,1.83a.93.93,0,0,0,1.09.27,1.38,1.38,0,0,0,.62-.72c.28-.54.84-3.22,1.11-3.95.18-.51.79-2.73,1.35-2.94.79-.29.63,2.28.61,2.83s-.27,1.84.5,2.2,1.24-.59,1.35-1.21c.21-1.12.27-2.5.71-2.94C249.75,248.23,251.6,247.9,251.69,252.4Z" transform="translate(-236.54 -238.23)"/></g><path class="cls-14" d="M251.94,248.77c.07.58-.17,5.57-.08,6.2.06.42.21,1.14.81,1.15s.85-.9.85-1.29c0-.87,0-1.73,0-2.6a7.4,7.4,0,0,1,.19-2.58c.52-1.13,2-.66,2.27,1.41.15,1,1.45,11.66,1.45,11.66a10.92,10.92,0,0,0,2.15-.42s-2.41-10.75-2.64-14c0-.42,0-1,.43-1.08s.89.11,1.12.68.23,1.14.57,1.58a.72.72,0,0,0,.88.18c.35-.2.25-.92.2-1.28-.13-.94-.49-2.06.35-2.2a.83.83,0,0,1,.88.55l.33.74c-.06-.14-.53-2.9-1.08-3.6a4.51,4.51,0,0,0-2-1.21,25.63,25.63,0,0,0-12.58-.49c-1.63.37-3.2.85-3.93,2.69-.12.3-.94,2.91-1.41,4.81a21.36,21.36,0,0,1,1.58-3.07.65.65,0,0,1,1.15.22c.22.68-1.6,6.4-1.64,7.31-.06,1.09,1.2,1.21,1.43.47s1.25-4.41,1.64-5.78c.17-.56.43-1.64,1.26-1.7,1.3-.09.94,1.68.87,2.3s-.13,1.37-.24,2.05a2.11,2.11,0,0,0,0,.9.68.68,0,0,0,1.3,0c.25-.57.46-3.19.67-3.9C249,247.32,251.79,247.58,251.94,248.77Z" transform="translate(-236.54 -238.23)"/><path class="cls-15" d="M260.59,244.82c0,1.33-4,2.41-9,2.41s-9-1.08-9-2.41,4-2.42,9-2.42S260.59,243.48,260.59,244.82Z" transform="translate(-236.54 -238.23)"/><g class="cls-16"><path class="cls-17" d="M260.28,243.85c0,1.33-3.89,2.41-8.69,2.41s-8.7-1.08-8.7-2.41,3.89-2.41,8.7-2.41S260.28,242.52,260.28,243.85Z" transform="translate(-236.54 -238.23)"/></g><path class="cls-18" d="M259.12,244.74a9.72,9.72,0,0,1-1.68.46,30.84,30.84,0,0,1-5.78.51,31.5,31.5,0,0,1-5.79-.46,10.82,10.82,0,0,1-1.7-.43c-.39-.13-.59-.23-.62-.2s.16.19.54.39a8.32,8.32,0,0,0,1.7.59,25.29,25.29,0,0,0,5.87.62,23.8,23.8,0,0,0,5.86-.67,6.74,6.74,0,0,0,1.69-.64c.37-.21.53-.39.51-.42A4,4,0,0,0,259.12,244.74Z" transform="translate(-236.54 -238.23)"/></g><g class="cls-9"><path class="cls-19" d="M256.47,251.75c-.13,0-.2-.92-.65-1.89a2.2,2.2,0,0,0-.41-.59,1.45,1.45,0,0,0-.47-.33c-.31-.13-.54-.11-.55-.16s.22-.17.62-.09a1.38,1.38,0,0,1,.63.33,2.21,2.21,0,0,1,.51.68A3.09,3.09,0,0,1,256.47,251.75Z" transform="translate(-236.54 -238.23)"/><path class="cls-20" d="M256.58,247.43a1.26,1.26,0,0,0-.19.72c0,.57.24,1,.33.94s0-.45,0-.94a2.5,2.5,0,0,1,.06-.61c0-.15.08-.25,0-.29S256.7,247.27,256.58,247.43Z" transform="translate(-236.54 -238.23)"/><path class="cls-21" d="M252.59,249.66c0-.19,0-.38,0-.57a2.44,2.44,0,0,0-.12-.55,1.61,1.61,0,0,0-.59-.76c-.48-.29-.83-.23-.83-.18s.32.1.67.39a1.39,1.39,0,0,1,.43.66,3.87,3.87,0,0,1,.1,1,25.55,25.55,0,0,0,0,2.77A6.81,6.81,0,0,0,252.59,249.66Z" transform="translate(-236.54 -238.23)"/><path class="cls-22" d="M247.54,248.55a2.21,2.21,0,0,0-.21-1.2.56.56,0,0,0-.31-.26c-.1,0-.16,0-.16,0s.16.11.23.36a3,3,0,0,1,.08,1.06,5.76,5.76,0,0,0,0,1.62A2.91,2.91,0,0,0,247.54,248.55Z" transform="translate(-236.54 -238.23)"/><path class="cls-23" d="M248.87,247.62a.92.92,0,0,0-.56.46,1.19,1.19,0,0,0-.12.7c0,.18.1.28.15.27s.1-.42.3-.79.56-.51.53-.62S249.05,247.57,248.87,247.62Z" transform="translate(-236.54 -238.23)"/><path class="cls-24" d="M257.59,258.17a23.24,23.24,0,0,0-.76-4,46.19,46.19,0,0,0,1.16,8.12A22.14,22.14,0,0,0,257.59,258.17Z" transform="translate(-236.54 -238.23)"/><path class="cls-25" d="M243.87,247.55a2.62,2.62,0,0,0,0-.69,1.38,1.38,0,0,0-.23-.55.58.58,0,0,0-.34-.24c-.1,0-.16,0-.16,0s.17.11.28.35a2.15,2.15,0,0,1,.1,1.07,8.14,8.14,0,0,0-.16,1.66A2.78,2.78,0,0,0,243.87,247.55Z" transform="translate(-236.54 -238.23)"/><path class="cls-26" d="M245.53,246.86a.86.86,0,0,0-.57.32c-.34.41-.32.84-.22.86s.25-.31.5-.62.56-.37.57-.48S245.71,246.84,245.53,246.86Z" transform="translate(-236.54 -238.23)"/><path class="cls-27" d="M259.08,247.4a1.24,1.24,0,0,0-.3-.41.76.76,0,0,0-.38-.19c-.24-.05-.39,0-.38.08s.14.07.29.16a1.11,1.11,0,0,1,.44.52c.22.52.24,1.05.36,1.05S259.35,248.07,259.08,247.4Z" transform="translate(-236.54 -238.23)"/><path class="cls-28" d="M259.8,246.7c0-.33.15-.49.13-.58s-.13-.06-.25,0a.76.76,0,0,0-.25.51c0,.43.15.71.24.69S259.77,247,259.8,246.7Z" transform="translate(-236.54 -238.23)"/></g><g class="cls-29"><path class="cls-30" d="M240.3,261.56a5,5,0,0,0,1.65.92,16.09,16.09,0,0,0,3.79.83,30.28,30.28,0,0,0,3.86.13l1.62-.12C244.46,263.44,242.45,262.64,240.3,261.56Z" transform="translate(-236.54 -238.23)"/><path class="cls-31" d="M265.2,261.48c-.61.77-3.95,1.51-7,1.76a27.6,27.6,0,0,1-5.77.09c0,.16,2.25.55,7.42-.05C264.69,262.72,265.09,261.85,265.2,261.48Z" transform="translate(-236.54 -238.23)"/><path class="cls-32" d="M237.29,259c-.2.06-.5.22-.52.45a.81.81,0,0,0,.37.61,3.59,3.59,0,0,0,.87.45,10.91,10.91,0,0,0,1.46.4,18.35,18.35,0,0,1-2-.8,1.5,1.5,0,0,1-.34-.27.48.48,0,0,1-.14-.39A.72.72,0,0,1,237.29,259Z" transform="translate(-236.54 -238.23)"/></g><path class="cls-33" d="M266.71,259.56c0-.41-.52-.77-1.4-1.06a8.66,8.66,0,0,0-.24-.91l-3.45-10.29.07.16c-.06-.14-.53-2.9-1.08-3.6a4.51,4.51,0,0,0-2-1.21c-.6-.2-1.21-.36-1.82-.5a.19.19,0,0,0-.14-.12.53.53,0,0,0,.24-.25.66.66,0,0,0,.07-.32.9.9,0,0,0-.14-.57.36.36,0,0,0-.16-.12s-.05,0-.08,0h0s0,0,0,0a.63.63,0,0,0-.07-.51,1.61,1.61,0,0,0-.3-.38.57.57,0,0,0-.3-.15h-.1a.4.4,0,0,0,0-.32c-.16-.27-.62-.35-.88-.37a.21.21,0,0,0-.21.1l0-.06a.44.44,0,0,0-.2-.08.64.64,0,0,0-.2,0,.21.21,0,0,0-.1.08L254,239a.33.33,0,0,0-.15-.05.73.73,0,0,0-.48.16s0,0,0,0a.16.16,0,0,0-.13-.08.28.28,0,0,0-.17,0c-.06,0-.33.35-.31.5h0a.62.62,0,0,0-.3.57h-.07c-.12,0-.17.13-.21.21l0,.06a1,1,0,0,0-.17.35.54.54,0,0,0,.06.38.28.28,0,0,0-.12.1.87.87,0,0,0-.07.17,1.29,1.29,0,0,1,0,.19h-.09a.12.12,0,0,0-.08,0,.55.55,0,0,0,0-.26.17.17,0,0,0,0-.07c0-.1,0-.21-.07-.31a.71.71,0,0,0-.08-.18.23.23,0,0,0-.14-.1.55.55,0,0,0,.06-.42,1.36,1.36,0,0,0-.2-.4l0-.05a.35.35,0,0,0-.24-.23h-.08a.68.68,0,0,0-.35-.62h0c0-.17-.29-.51-.36-.54a.36.36,0,0,0-.19,0,.19.19,0,0,0-.14.09,0,0,0,0,0,0,0,.76.76,0,0,0-.53-.16.38.38,0,0,0-.17.06l-.06.06a.24.24,0,0,0-.12-.09.56.56,0,0,0-.22,0,.38.38,0,0,0-.21.1.19.19,0,0,0-.06.07.25.25,0,0,0-.24-.11c-.28,0-.79.13-1,.44a.43.43,0,0,0,0,.35h-.12a.7.7,0,0,0-.32.18,1.79,1.79,0,0,0-.32.43.7.7,0,0,0-.07.56s0,0,0,0h0l-.09,0a.45.45,0,0,0-.16.15.94.94,0,0,0-.14.63.8.8,0,0,0,.08.35.52.52,0,0,0,.27.26.27.27,0,0,0-.17.22.43.43,0,0,0,0,.16l-.14,0c-1.63.37-3.2.85-3.93,2.69-.12.3-.94,2.91-1.41,4.81l0-.08c-1.22,3.57-2.75,8.07-2.9,8.52a1.18,1.18,0,0,0,0,.53c-.77.28-1.22.62-1.22,1,0,.62,1.49,1.26,3.62,1.68a.48.48,0,0,0,0,.2c0,1,4.19,2.14,8.5,2.14a23.31,23.31,0,0,0,3-.19,13.22,13.22,0,0,0,4,.49c4.31,0,10-1.08,10-2.12,0-.24-.22-.47-.6-.68C266.23,260.73,266.71,260.13,266.71,259.56Z" transform="translate(-236.54 -238.23)"/><path class="cls-34" d="M254.22,243.47a7.47,7.47,0,0,0-2.09.25,7.38,7.38,0,0,0-2.76-.41c-1.69,0-3.06.32-3.06.71s1.37.71,3.06.71a8.06,8.06,0,0,0,2.63-.35,6.83,6.83,0,0,0,2.22.29c1.43,0,2.59-.27,2.59-.6S255.65,243.47,254.22,243.47Z" transform="translate(-236.54 -238.23)"/><path class="cls-2" d="M251.7,242.13a.19.19,0,0,1,0-.11l.07,0a.55.55,0,0,1,0-.23.13.13,0,0,1,0-.06,2.33,2.33,0,0,1,0-.28.87.87,0,0,1,.07-.17.28.28,0,0,1,.12-.1.54.54,0,0,1-.06-.38,1,1,0,0,1,.17-.35l0-.06c0-.08.09-.19.21-.21h.07a.62.62,0,0,1,.3-.57h0c0-.15.25-.47.31-.5a.28.28,0,0,1,.17,0,.16.16,0,0,1,.13.08s0,0,0,0a.73.73,0,0,1,.48-.16.33.33,0,0,1,.15.05l.06.06a.18.18,0,0,1,.1-.09.64.64,0,0,1,.2,0,.44.44,0,0,1,.2.08l0,.06a.21.21,0,0,1,.21-.1c.26,0,.72.1.88.37a.4.4,0,0,1,0,.32h.1a.57.57,0,0,1,.3.15,1.61,1.61,0,0,1,.3.38.63.63,0,0,1,.07.51s0,0,0,0h0s.06,0,.08,0a.36.36,0,0,1,.16.12.9.9,0,0,1,.14.57.66.66,0,0,1-.07.32.53.53,0,0,1-.24.25.24.24,0,0,1,.17.19.86.86,0,0,1-.05.43.74.74,0,0,1-.08.15.38.38,0,0,1-.11.11s0,0,0,0c.07.17-.15.6-.21.65a.8.8,0,0,1-.17.15l-.16.1a.24.24,0,0,1-.12,0c0,.13-.21.28-.28.32h0a.53.53,0,0,1-.38.12.16.16,0,0,1-.12-.09l-.07,0-.14,0h0a1.21,1.21,0,0,1-.38,0,.32.32,0,0,1-.09,0,.31.31,0,0,1-.16-.11.19.19,0,0,1,0,.1l-.09.07a.72.72,0,0,1-.37.05h-.05a2.29,2.29,0,0,1-.28-.09.2.2,0,0,1-.11-.06.17.17,0,0,1-.07-.12.39.39,0,0,1-.33,0l-.11,0a.54.54,0,0,1-.32-.26.15.15,0,0,1,0-.11h-.09l-.12,0a.86.86,0,0,1-.3-.26,1,1,0,0,1-.11-.63.46.46,0,0,1,0-.09.31.31,0,0,1-.05-.1A1.72,1.72,0,0,1,251.7,242.13Z" transform="translate(-236.54 -238.23)"/><g class="cls-35"><g class="cls-29"><path class="cls-36" d="M254,242.27h0l0,.15a.82.82,0,0,0,.1.26.51.51,0,0,0,.35.21.57.57,0,0,0,.41-.09.32.32,0,0,0,.1-.1.33.33,0,0,0,0-.13c0-.28-.17-.73-.53-.74a.68.68,0,0,0-.47.25.3.3,0,0,0,0,.08A.22.22,0,0,0,254,242.27Z" transform="translate(-236.54 -238.23)"/><path class="cls-37" d="M254.48,241.8a.85.85,0,0,1-.17.06c-.19.08-.28.33-.49.34a.34.34,0,0,1-.26-.14.72.72,0,0,1-.13-.28.56.56,0,0,1,0-.42.27.27,0,0,1,.09-.12.8.8,0,0,1,.72-.24.79.79,0,0,1,.37.49A.3.3,0,0,1,254.48,241.8Z" transform="translate(-236.54 -238.23)"/><path class="cls-38" d="M253.46,241.21a.34.34,0,0,0-.08.09.41.41,0,0,1-.07.11.18.18,0,0,1-.22,0,.3.3,0,0,1-.14-.19.58.58,0,0,1,0-.23,1,1,0,0,1,0-.3.38.38,0,0,1,.16-.23.3.3,0,0,1,.44,0,.49.49,0,0,1,.1.46A.55.55,0,0,1,253.46,241.21Z" transform="translate(-236.54 -238.23)"/><path class="cls-39" d="M253.74,240.33a3.24,3.24,0,0,0,0,.44.24.24,0,0,0,0,.12.14.14,0,0,0,.08.09h.09a1.69,1.69,0,0,1,.32,0c.11,0,.2.07.3.08a.23.23,0,0,0,.18,0,.36.36,0,0,0,.07-.1.62.62,0,0,0,0-.67c-.08-.14-.16-.14-.3-.2a.52.52,0,0,0-.72.28Z" transform="translate(-236.54 -238.23)"/><path class="cls-40" d="M253.65,239.54a.24.24,0,0,1,.08.09.5.5,0,0,1,0,.46l-.08.18s0,0-.06.06h-.4a.11.11,0,0,1-.08,0l0-.05a.48.48,0,0,1,0-.37c0-.15.2-.39.38-.4A.27.27,0,0,1,253.65,239.54Z" transform="translate(-236.54 -238.23)"/><path class="cls-41" d="M254,239.33c.29-.32.73-.13,1,0s.43.45.14.61a.61.61,0,0,1-.46,0,1.1,1.1,0,0,0-.53-.11.5.5,0,0,1-.21,0,.21.21,0,0,1-.1-.11A.49.49,0,0,1,254,239.33Z" transform="translate(-236.54 -238.23)"/><path class="cls-42" d="M254,239a.18.18,0,0,1,.05.21c0,.13-.08.28-.22.32s-.29-.09-.42,0-.06,0-.08,0,.08-.36.12-.4A.52.52,0,0,1,254,239Z" transform="translate(-236.54 -238.23)"/><path class="cls-43" d="M253.11,239.7a.66.66,0,0,1-.13.28l0,0-.05,0a.55.55,0,0,0-.25.1.11.11,0,0,1-.08,0s-.05,0-.06-.08a.54.54,0,0,1,.25-.56l.08,0a.38.38,0,0,1,.15,0l.11,0A.18.18,0,0,1,253.11,239.7Z" transform="translate(-236.54 -238.23)"/><path class="cls-44" d="M253.2,239.57s0,0,0,0a.13.13,0,0,1,0-.06c0-.06-.09-.07-.15-.06a1,1,0,0,1-.17,0c-.11,0,.2-.4.25-.43s.23,0,.18.21A2.14,2.14,0,0,0,253.2,239.57Z" transform="translate(-236.54 -238.23)"/><path class="cls-45" d="M253,240.17a.28.28,0,0,1,.1.22c0,.08-.1.12-.15.19a.51.51,0,0,0-.06.22l0,.22s-.08,0-.12,0a.6.6,0,0,0-.11-.06c-.07,0-.16,0-.2-.11a.17.17,0,0,1,0-.07.85.85,0,0,1,.07-.42C252.56,240.18,252.81,240,253,240.17Z" transform="translate(-236.54 -238.23)"/><path class="cls-46" d="M253.38,242.31l-.1.13a.43.43,0,0,1-.21.17.29.29,0,0,1-.26-.08.51.51,0,0,1-.15-.23.84.84,0,0,1,0-.47.54.54,0,0,1,.23-.35.36.36,0,0,1,.41.09.66.66,0,0,1,.12.33c0,.11.07.22,0,.31A.31.31,0,0,1,253.38,242.31Z" transform="translate(-236.54 -238.23)"/><path class="cls-47" d="M255,240.7a.34.34,0,0,1,.38.1.77.77,0,0,1,.15.36.69.69,0,0,1-.07.51.48.48,0,0,1-.62.2.51.51,0,0,1-.2-.38.79.79,0,0,1,.13-.49c0-.06.05-.11.08-.16A.33.33,0,0,1,255,240.7Z" transform="translate(-236.54 -238.23)"/><path class="cls-48" d="M253.49,242.29a.33.33,0,0,1,.37,0,.61.61,0,0,1,.25.67c-.09.28-.51.17-.73,0a.57.57,0,0,1-.16-.15.21.21,0,0,1,0-.2c0-.07.1-.11.15-.17S253.43,242.33,253.49,242.29Z" transform="translate(-236.54 -238.23)"/><path class="cls-49" d="M252.3,241.15a.18.18,0,0,1,.11-.13.34.34,0,0,1,.35.14.23.23,0,0,1,0,.21,1.4,1.4,0,0,0-.1.16.61.61,0,0,0,0,.13.12.12,0,0,1-.08.09.14.14,0,0,1-.12,0,.75.75,0,0,1-.07-.12,1.37,1.37,0,0,1-.08-.35A.14.14,0,0,1,252.3,241.15Z" transform="translate(-236.54 -238.23)"/><path class="cls-50" d="M255.21,240.1c.1,0,.16-.14.26-.16s.39.18.42.35a.43.43,0,0,1-.07.33.32.32,0,0,1-.33.09l-.08-.05-.32-.21a.36.36,0,0,1-.11-.1.13.13,0,0,1,0-.13C255,240.13,255.12,240.14,255.21,240.1Z" transform="translate(-236.54 -238.23)"/><path class="cls-51" d="M254.72,239a.1.1,0,0,1,.11-.07c.56,0,1,.25.85.63a.33.33,0,0,1,0,.13.14.14,0,0,1-.12,0s-.05-.08-.07-.13a.43.43,0,0,0-.19-.25.83.83,0,0,0-.3-.14.45.45,0,0,1-.22-.13A.08.08,0,0,1,254.72,239Z" transform="translate(-236.54 -238.23)"/><path class="cls-52" d="M254.56,239s0,.05-.1.05h-.19a.11.11,0,0,1-.08,0,.06.06,0,0,1,0-.07s0,0,.06-.05a.3.3,0,0,1,.29,0Z" transform="translate(-236.54 -238.23)"/><path class="cls-53" d="M256.15,239.78a1.8,1.8,0,0,1,.29.35.58.58,0,0,1,.08.44.22.22,0,0,1-.38.11.42.42,0,0,1-.12-.24,1.63,1.63,0,0,0-.18-.43,1.34,1.34,0,0,1-.11-.14.17.17,0,0,1,0-.17C255.87,239.6,256,239.66,256.15,239.78Z" transform="translate(-236.54 -238.23)"/><path class="cls-54" d="M252.69,242.49a.15.15,0,0,1-.06.16.2.2,0,0,1-.17,0,.4.4,0,0,1-.18-.14.7.7,0,0,1-.08-.2,1,1,0,0,1,0-.23.29.29,0,0,1,.09-.2.4.4,0,0,1,.19-.07.14.14,0,0,1,.14,0,.17.17,0,0,1,0,.07,1,1,0,0,0,.07.47Z" transform="translate(-236.54 -238.23)"/><path class="cls-55" d="M252.31,241a.13.13,0,0,1,0,.07.09.09,0,0,1-.06,0,.15.15,0,0,1-.13-.05.4.4,0,0,1-.08-.35,1,1,0,0,1,.16-.33c0-.07.08-.2.18-.22s.09.08.07.16a1.81,1.81,0,0,0-.11.49A.45.45,0,0,1,252.31,241Z" transform="translate(-236.54 -238.23)"/><path class="cls-56" d="M255.76,241.49a.3.3,0,0,0,.29.15.44.44,0,0,0,.29-.17.51.51,0,0,0,.07-.32.27.27,0,0,0,0-.12.6.6,0,0,0-.26-.24.44.44,0,0,0-.19-.07l-.12,0c-.36.1-.1.36-.07.6A.39.39,0,0,0,255.76,241.49Z" transform="translate(-236.54 -238.23)"/><path class="cls-57" d="M255.46,241.87c.06-.05.1-.12.16-.16a.33.33,0,0,1,.4,0,.48.48,0,0,1,.09.38,1,1,0,0,1-.21.4.35.35,0,0,1-.23.18h-.12a.34.34,0,0,1-.22-.09.46.46,0,0,1-.07-.16c0-.07-.08-.13-.11-.2a.24.24,0,0,1,0-.22C255.2,242,255.36,242,255.46,241.87Z" transform="translate(-236.54 -238.23)"/><path class="cls-58" d="M254.48,243.21a.39.39,0,0,1,0-.15.17.17,0,0,1,.07-.12c.07,0,.16,0,.24,0,.25,0,.3-.27.59-.16a.32.32,0,0,1,.22.17.09.09,0,0,1,0,.07.53.53,0,0,1-.3.39.78.78,0,0,1-.37.13.44.44,0,0,1-.35-.15A.49.49,0,0,1,254.48,243.21Z" transform="translate(-236.54 -238.23)"/><path class="cls-59" d="M254.47,243.58a.29.29,0,0,1-.14.13.53.53,0,0,1-.46,0,.42.42,0,0,1-.29-.33.17.17,0,0,1,0-.1.32.32,0,0,1,.31-.16H254s.08-.07.12-.11.24,0,.27.14S254.51,243.46,254.47,243.58Z" transform="translate(-236.54 -238.23)"/><path class="cls-60" d="M253.46,243.16s0,.08,0,.12.05.1.05.15a.19.19,0,0,1-.17.19.72.72,0,0,1-.29,0l-.13,0a.24.24,0,0,1-.1-.1.82.82,0,0,1-.18-.36.37.37,0,0,1,.11-.35.3.3,0,0,1,.38,0,.48.48,0,0,1,.09.11C253.31,243,253.44,243,253.46,243.16Z" transform="translate(-236.54 -238.23)"/><path class="cls-61" d="M252.22,242.7a.34.34,0,0,1,.36.13c0,.1,0,.22,0,.32l.07.18a.2.2,0,0,1,0,.17.58.58,0,0,1-.44-.19.5.5,0,0,1-.14-.43A.21.21,0,0,1,252.22,242.7Z" transform="translate(-236.54 -238.23)"/><path class="cls-62" d="M252,242a.07.07,0,0,1,.06,0,.22.22,0,0,1,0,.08c0,.15.12.3.09.44a.18.18,0,0,1,0,.1.11.11,0,0,1-.11,0,.77.77,0,0,1-.05-.61A.09.09,0,0,1,252,242Z" transform="translate(-236.54 -238.23)"/><path class="cls-63" d="M251.81,241.65v-.06l.06-.28a.35.35,0,0,1,.06-.14.15.15,0,0,1,.12-.07c.24,0,.23.47.22.61s-.13.32-.32.26S251.8,241.77,251.81,241.65Z" transform="translate(-236.54 -238.23)"/><path class="cls-64" d="M256.52,240.76a.22.22,0,0,1,.16,0,.27.27,0,0,1,.12.09.85.85,0,0,1,.13.51.58.58,0,0,1-.06.29.41.41,0,0,1-.22.21.18.18,0,0,1-.16,0,.16.16,0,0,1,0-.16,1.29,1.29,0,0,0,.07-.58,1.15,1.15,0,0,1-.06-.17A.19.19,0,0,1,256.52,240.76Z" transform="translate(-236.54 -238.23)"/><path class="cls-65" d="M256.13,242.85l0,0a.08.08,0,0,1,0,0,.79.79,0,0,1,.18-.7s0,0,0,0l0,0c.18,0,.4-.1.45.11a.74.74,0,0,1,0,.39.31.31,0,0,1-.06.13.69.69,0,0,1-.13.11A.79.79,0,0,1,256.13,242.85Z" transform="translate(-236.54 -238.23)"/><path class="cls-66" d="M255.64,243.82a.25.25,0,0,1-.14.06.21.21,0,0,1-.21-.16.31.31,0,0,1,.09-.23l.22-.16a.59.59,0,0,0,.19-.28c0-.06.08-.12.17-.12.26,0,.29.31.21.46a.63.63,0,0,1-.11.12A3,3,0,0,1,255.64,243.82Z" transform="translate(-236.54 -238.23)"/><path class="cls-67" d="M255,243.66c.14.05.24.15.2.3a.25.25,0,0,1-.17.16l-.11,0a1.16,1.16,0,0,1-.49,0,.23.23,0,0,1-.15-.15c0-.11.11-.16.19-.23a.48.48,0,0,1,.17-.1A.63.63,0,0,1,255,243.66Z" transform="translate(-236.54 -238.23)"/><path class="cls-68" d="M254.17,244a.13.13,0,0,1,0,.15.18.18,0,0,1-.07.05.57.57,0,0,1-.32,0,1.7,1.7,0,0,1-.32-.1l-.09,0a.22.22,0,0,1-.05-.11.23.23,0,0,1,0-.2l.09,0a.34.34,0,0,1,.17,0C253.73,243.72,254.1,243.83,254.17,244Z" transform="translate(-236.54 -238.23)"/><path class="cls-69" d="M252.77,244c-.19-.07-.35-.21-.27-.33a.22.22,0,0,1,.21-.06c.16,0,.57.11.48.31S252.94,244,252.77,244Z" transform="translate(-236.54 -238.23)"/><path class="cls-70" d="M251.87,242.67l0,0a.19.19,0,0,1,.09.14.81.81,0,0,1,0,.16,1,1,0,0,0,.34.53c.11.11-.09,0-.14,0a.61.61,0,0,1-.27-.23.89.89,0,0,1-.1-.58A.08.08,0,0,1,251.87,242.67Z" transform="translate(-236.54 -238.23)"/><path class="cls-71" d="M251.74,242s.09,0,.12,0a.21.21,0,0,1,0,.13,1.84,1.84,0,0,1,0,.47s-.06,0-.07-.07a1.43,1.43,0,0,1-.09-.5A.07.07,0,0,1,251.74,242Z" transform="translate(-236.54 -238.23)"/><path class="cls-72" d="M256.33,243c0-.05.07-.08.18-.11s-.06.56-.12.62a1.09,1.09,0,0,1-.17.13l-.15.1s0,0-.06,0,0,0,0-.05l0,0a.68.68,0,0,0,.28-.43A.9.9,0,0,1,256.33,243Z" transform="translate(-236.54 -238.23)"/><path class="cls-73" d="M255.43,244c-.08,0-.22,0-.17.14s.32,0,.4-.08.26-.18.24-.26-.11,0-.15,0A.9.9,0,0,1,255.43,244Z" transform="translate(-236.54 -238.23)"/></g><g class="cls-74"><path class="cls-75" d="M254.54,242.47c.43,0,.31-.51,0-.61a.38.38,0,0,0-.3.1c-.06.07,0,.09,0,.17S254.34,242.45,254.54,242.47Z" transform="translate(-236.54 -238.23)"/><path class="cls-76" d="M253.79,241.77c.08,0,.19-.17.25-.22a1.64,1.64,0,0,1,.3-.14c.06,0-.11-.29-.14-.31s-.29-.1-.44,0-.23.16-.18.32S253.65,241.76,253.79,241.77Z" transform="translate(-236.54 -238.23)"/><path class="cls-77" d="M253.17,241c.06-.09.21-.16.25-.27s0-.27-.1-.28c-.24,0-.33.59-.17.59C253.16,241,253.16,241,253.17,241Z" transform="translate(-236.54 -238.23)"/><path class="cls-78" d="M254.53,240.62a.44.44,0,0,0,.06-.37c-.05-.14-.12-.15-.25-.21a.31.31,0,0,0-.36.07c-.1.11-.16.34-.06.43a1.53,1.53,0,0,0,.61.08C254.63,240.42,254.53,240.63,254.53,240.62Z" transform="translate(-236.54 -238.23)"/><path class="cls-79" d="M253.53,239.93a.24.24,0,0,0,.07-.26c0-.15-.11-.19-.21-.07s-.16.32-.06.32S253.47,240,253.53,239.93Z" transform="translate(-236.54 -238.23)"/><path class="cls-80" d="M254.84,239.62s.26,0,.23-.08a.67.67,0,0,0-.38-.28c-.2-.09-1,0-.63.24S254.56,239.59,254.84,239.62Z" transform="translate(-236.54 -238.23)"/><path class="cls-81" d="M253.72,239.15s.08-.1.06-.12-.24,0-.21.09.1,0,.15,0Z" transform="translate(-236.54 -238.23)"/><path class="cls-82" d="M252.82,239.71c.05.07.18-.05.12-.11s-.16.07-.12.11Z" transform="translate(-236.54 -238.23)"/><path class="cls-83" d="M252.62,240.51c.1-.06.22-.38.16-.4s-.25.46-.16.4S252.61,240.52,252.62,240.51Z" transform="translate(-236.54 -238.23)"/><path class="cls-84" d="M253,242.19s.16-.17.18-.22a.66.66,0,0,0-.08-.45C252.85,241.27,252.64,242.22,253,242.19Z" transform="translate(-236.54 -238.23)"/><path class="cls-85" d="M255,241.49c.37,0,.41-.63.16-.78S254.64,241.46,255,241.49Z" transform="translate(-236.54 -238.23)"/><path class="cls-86" d="M253.83,242.72c.26,0,0-.57-.17-.42s-.2.14-.21.24S253.71,242.71,253.83,242.72Z" transform="translate(-236.54 -238.23)"/><path class="cls-87" d="M255.62,240.35c.17.05.08-.25,0-.32s-.3,0-.31.12S255.51,240.31,255.62,240.35Z" transform="translate(-236.54 -238.23)"/><path class="cls-88" d="M256.1,240.23c0-.16-.05-.51-.18-.43s.07.19.1.28.07.2.08.15S256.1,240.24,256.1,240.23Z" transform="translate(-236.54 -238.23)"/><path class="cls-89" d="M255.94,241.28c.32,0,0-.72-.18-.46s.08.24.11.36,0,.11.07.1Z" transform="translate(-236.54 -238.23)"/><path class="cls-90" d="M255.58,242.3c.16,0,.32-.41.28-.54s-.15-.06-.21,0-.28.07-.33.19.11.19.14.29S255.53,242.29,255.58,242.3Z" transform="translate(-236.54 -238.23)"/><path class="cls-91" d="M254.81,243.17a.53.53,0,0,0,.35-.13c.09-.06.19-.14.06-.2s-.15,0-.22.09-.28,0-.36.09S254.7,243.17,254.81,243.17Z" transform="translate(-236.54 -238.23)"/><path class="cls-92" d="M254.14,243.48a.32.32,0,0,0,.23-.06s0-.19-.05-.2-.34,0-.41.1S254,243.48,254.14,243.48Z" transform="translate(-236.54 -238.23)"/><path class="cls-93" d="M253.26,243.23s0,0,.05,0,0-.19-.09-.27-.18-.25-.27-.23,0,.24,0,.3A.31.31,0,0,0,253.26,243.23Z" transform="translate(-236.54 -238.23)"/><path class="cls-94" d="M252.34,242.94c.09,0,0-.3-.07-.23s0,.26.07.23Z" transform="translate(-236.54 -238.23)"/><path class="cls-95" d="M252,241.55c.09,0,.11-.24,0-.24s-.1.24,0,.24Z" transform="translate(-236.54 -238.23)"/><path class="cls-96" d="M256.18,242.51c.17.15.48-.26.31-.4s-.17,0-.22.08-.17.24-.09.32Z" transform="translate(-236.54 -238.23)"/><path class="cls-97" d="M255.91,243.21c.06-.05.15-.17.07-.18s-.22.17-.15.24,0,0,.08-.06Z" transform="translate(-236.54 -238.23)"/></g></g><path class="cls-3" d="M251.76,241.71a.19.19,0,0,0,0-.12.12.12,0,0,0-.08,0,.55.55,0,0,0,0-.26.17.17,0,0,0,0-.07c0-.1,0-.21-.07-.31a.71.71,0,0,0-.08-.18.23.23,0,0,0-.14-.1.55.55,0,0,0,.06-.42,1.36,1.36,0,0,0-.2-.4l0-.05a.35.35,0,0,0-.24-.23h-.08a.68.68,0,0,0-.35-.62h0c0-.17-.29-.51-.36-.54a.36.36,0,0,0-.19,0,.19.19,0,0,0-.14.09,0,0,0,0,0,0,0,.76.76,0,0,0-.53-.16.38.38,0,0,0-.17.06l-.06.06a.24.24,0,0,0-.12-.09.56.56,0,0,0-.22,0,.38.38,0,0,0-.21.1.19.19,0,0,0-.06.07.25.25,0,0,0-.24-.11c-.28,0-.79.13-1,.44a.43.43,0,0,0,0,.35h-.12a.7.7,0,0,0-.32.18,1.79,1.79,0,0,0-.32.43.7.7,0,0,0-.07.56s0,0,0,0h0l-.09,0a.45.45,0,0,0-.16.15.94.94,0,0,0-.14.63.8.8,0,0,0,.08.35.52.52,0,0,0,.27.26.27.27,0,0,0-.17.22,1,1,0,0,0,.07.48.51.51,0,0,0,.08.17.69.69,0,0,0,.13.11l0,0c-.07.2.19.66.25.72a1,1,0,0,0,.2.16l.17.11a.22.22,0,0,0,.14,0c0,.15.24.3.32.35h0a.65.65,0,0,0,.42.13.22.22,0,0,0,.14-.11l.08,0,.15,0h0a1.49,1.49,0,0,0,.42,0l.1,0a.3.3,0,0,0,.17-.14.25.25,0,0,0,.07.12l.1.07a.67.67,0,0,0,.41,0h.05l.31-.11a.33.33,0,0,0,.13-.07.27.27,0,0,0,.07-.14.39.39,0,0,0,.36.05l.12,0a.56.56,0,0,0,.35-.29.2.2,0,0,0,0-.13.34.34,0,0,0,.1,0l.14,0a.84.84,0,0,0,.32-.3,1.08,1.08,0,0,0,.1-.69.19.19,0,0,0,0-.1.24.24,0,0,0,.06-.11A1.85,1.85,0,0,0,251.76,241.71Z" transform="translate(-236.54 -238.23)"/><g class="cls-98"><g class="cls-29"><path class="cls-99" d="M249.18,241.93h0l0,.17a.94.94,0,0,1-.1.28.59.59,0,0,1-.39.25.64.64,0,0,1-.45-.09.43.43,0,0,1-.12-.11.57.57,0,0,1,0-.14c0-.31.16-.82.57-.83a.73.73,0,0,1,.52.26.22.22,0,0,1,.05.08A.25.25,0,0,1,249.18,241.93Z" transform="translate(-236.54 -238.23)"/><path class="cls-100" d="M248.67,241.43a1.17,1.17,0,0,0,.2.06c.21.08.32.35.54.36a.39.39,0,0,0,.3-.16.93.93,0,0,0,.13-.31.65.65,0,0,0,0-.47.32.32,0,0,0-.1-.13.87.87,0,0,0-.81-.24.81.81,0,0,0-.39.55A.33.33,0,0,0,248.67,241.43Z" transform="translate(-236.54 -238.23)"/><path class="cls-101" d="M249.78,240.75a.28.28,0,0,1,.1.09.91.91,0,0,0,.08.13.23.23,0,0,0,.25,0,.34.34,0,0,0,.15-.22,1.1,1.1,0,0,0,0-.26,1.22,1.22,0,0,0,0-.32.45.45,0,0,0-.19-.26.34.34,0,0,0-.48.05.55.55,0,0,0-.1.52A.73.73,0,0,0,249.78,240.75Z" transform="translate(-236.54 -238.23)"/><path class="cls-102" d="M249.45,239.78a3.89,3.89,0,0,1,0,.49.57.57,0,0,1,0,.13.15.15,0,0,1-.09.1h-.1a1,1,0,0,0-.35,0c-.12,0-.21.07-.33.09a.2.2,0,0,1-.2,0,.26.26,0,0,1-.07-.1.68.68,0,0,1,0-.75c.08-.16.17-.15.33-.23a.72.72,0,0,1,.33-.07A.61.61,0,0,1,249.45,239.78Z" transform="translate(-236.54 -238.23)"/><path class="cls-103" d="M249.53,238.9a.48.48,0,0,0-.09.11.57.57,0,0,0,0,.51l.1.19a.11.11,0,0,0,.06.07h.05l.4,0a.11.11,0,0,0,.08,0,.1.1,0,0,0,0-.05.67.67,0,0,0,0-.42c0-.16-.24-.42-.43-.43A.31.31,0,0,0,249.53,238.9Z" transform="translate(-236.54 -238.23)"/><path class="cls-104" d="M249.14,238.68c-.33-.35-.8-.12-1.15.08s-.47.5-.14.68a.72.72,0,0,0,.5,0,1.43,1.43,0,0,1,.59-.15.37.37,0,0,0,.23,0,.22.22,0,0,0,.11-.12A.55.55,0,0,0,249.14,238.68Z" transform="translate(-236.54 -238.23)"/><path class="cls-105" d="M249.18,238.27a.18.18,0,0,0-.05.23c0,.14.1.32.25.35s.31-.11.47,0a.06.06,0,0,0,.08,0c.07-.07-.1-.39-.14-.44A.58.58,0,0,0,249.18,238.27Z" transform="translate(-236.54 -238.23)"/><path class="cls-106" d="M250.13,239.07a.73.73,0,0,0,.16.3s0,0,0,0l.06,0a.68.68,0,0,1,.27.1s.06,0,.09,0,.05-.05.06-.09a.56.56,0,0,0-.29-.6.16.16,0,0,0-.09,0,.49.49,0,0,0-.17,0,.22.22,0,0,0-.11,0A.19.19,0,0,0,250.13,239.07Z" transform="translate(-236.54 -238.23)"/><path class="cls-107" d="M250,238.93a.05.05,0,0,0,0,0,.17.17,0,0,0,0-.07.14.14,0,0,1,.16-.07c.06,0,.13,0,.19,0s-.23-.44-.28-.47c-.22-.1-.26,0-.2.24A1.78,1.78,0,0,1,250,238.93Z" transform="translate(-236.54 -238.23)"/><path class="cls-108" d="M250.29,239.58a.32.32,0,0,0-.09.24c0,.09.11.14.16.21a.53.53,0,0,1,.08.24l0,.24a.14.14,0,0,0,.14,0l.12-.07c.07,0,.18,0,.21-.13a.11.11,0,0,0,0-.08.85.85,0,0,0-.1-.45C250.76,239.58,250.47,239.35,250.29,239.58Z" transform="translate(-236.54 -238.23)"/><path class="cls-109" d="M249.91,242l.12.15a.48.48,0,0,0,.23.19.36.36,0,0,0,.29-.1.57.57,0,0,0,.15-.26,1.06,1.06,0,0,0,0-.53.55.55,0,0,0-.28-.37.36.36,0,0,0-.44.11.71.71,0,0,0-.12.37.68.68,0,0,0,0,.34A.33.33,0,0,0,249.91,242Z" transform="translate(-236.54 -238.23)"/><path class="cls-110" d="M248,240.23a.38.38,0,0,0-.41.12.81.81,0,0,0-.15.41.77.77,0,0,0,.08.56.55.55,0,0,0,.7.2.61.61,0,0,0,.21-.43,1,1,0,0,0-.16-.54l-.09-.17A.43.43,0,0,0,248,240.23Z" transform="translate(-236.54 -238.23)"/><path class="cls-111" d="M249.79,241.94a.36.36,0,0,0-.41,0,.66.66,0,0,0-.25.75c.1.31.56.17.8,0a.69.69,0,0,0,.17-.17.22.22,0,0,0,0-.22c0-.08-.11-.12-.17-.18S249.86,242,249.79,241.94Z" transform="translate(-236.54 -238.23)"/><path class="cls-112" d="M251.07,240.64a.18.18,0,0,0-.12-.13.35.35,0,0,0-.39.16.27.27,0,0,0,0,.23c0,.07.08.11.11.18s0,.09,0,.13a.12.12,0,0,0,.09.1.13.13,0,0,0,.13-.05.21.21,0,0,0,.07-.13,1.24,1.24,0,0,0,.09-.39A.38.38,0,0,0,251.07,240.64Z" transform="translate(-236.54 -238.23)"/><path class="cls-113" d="M247.82,239.57c-.11,0-.19-.14-.3-.17s-.42.22-.45.4a.42.42,0,0,0,.09.36.31.31,0,0,0,.36.09.19.19,0,0,0,.09-.05L248,240a.38.38,0,0,0,.11-.11.14.14,0,0,0,0-.15C248.05,239.6,247.91,239.61,247.82,239.57Z" transform="translate(-236.54 -238.23)"/><path class="cls-114" d="M248.33,238.37a.12.12,0,0,0-.13-.07c-.62.07-1.11.31-.92.73a.69.69,0,0,0,.05.13.11.11,0,0,0,.13,0s.06-.09.07-.14a.51.51,0,0,1,.21-.29,1.26,1.26,0,0,1,.33-.16.55.55,0,0,0,.24-.15A.1.1,0,0,0,248.33,238.37Z" transform="translate(-236.54 -238.23)"/><path class="cls-115" d="M248.51,238.38s0,.05.11,0h.2a.18.18,0,0,0,.1,0,.07.07,0,0,0,0-.08s0,0-.07-.05a.33.33,0,0,0-.33.05S248.51,238.36,248.51,238.38Z" transform="translate(-236.54 -238.23)"/><path class="cls-116" d="M246.77,239.24a2.11,2.11,0,0,0-.32.41.62.62,0,0,0-.06.48.28.28,0,0,0,.14.18.27.27,0,0,0,.28-.07.52.52,0,0,0,.12-.26,1.61,1.61,0,0,1,.19-.49.57.57,0,0,0,.11-.16.15.15,0,0,0,0-.18C247.08,239,246.91,239.11,246.77,239.24Z" transform="translate(-236.54 -238.23)"/><path class="cls-117" d="M250.68,242.14a.15.15,0,0,0,.07.17.21.21,0,0,0,.19,0,.38.38,0,0,0,.19-.16.92.92,0,0,0,.09-.23,1.09,1.09,0,0,0,0-.25.26.26,0,0,0-.1-.22.4.4,0,0,0-.21-.07c-.06,0-.13,0-.15,0a.1.1,0,0,0,0,.07,1.13,1.13,0,0,1-.06.52S250.69,242.1,250.68,242.14Z" transform="translate(-236.54 -238.23)"/><path class="cls-118" d="M251.05,240.43a.16.16,0,0,0,0,.07l.07.05a.19.19,0,0,0,.14-.07.43.43,0,0,0,.09-.39,1.39,1.39,0,0,0-.19-.36c0-.08-.1-.22-.21-.24s-.09.09-.07.19a1.71,1.71,0,0,1,.13.54A.74.74,0,0,0,251.05,240.43Z" transform="translate(-236.54 -238.23)"/><path class="cls-119" d="M247.25,241.12a.34.34,0,0,1-.31.18.44.44,0,0,1-.32-.18.52.52,0,0,1-.1-.34.8.8,0,0,1,0-.15.81.81,0,0,1,.28-.27.42.42,0,0,1,.21-.08.24.24,0,0,1,.14,0c.39.09.12.39.09.66A.41.41,0,0,1,247.25,241.12Z" transform="translate(-236.54 -238.23)"/><path class="cls-120" d="M247.6,241.54c-.07,0-.11-.13-.19-.18a.34.34,0,0,0-.43.08.45.45,0,0,0-.09.42,1.33,1.33,0,0,0,.23.44.52.52,0,0,0,.27.19h.14a.47.47,0,0,0,.24-.1.73.73,0,0,0,.07-.19A1.51,1.51,0,0,1,248,242a.26.26,0,0,0,0-.24C247.89,241.62,247.71,241.62,247.6,241.54Z" transform="translate(-236.54 -238.23)"/><path class="cls-121" d="M248.72,243a.3.3,0,0,0,0-.16.13.13,0,0,0-.09-.13c-.07,0-.17,0-.26,0-.27,0-.34-.3-.65-.16-.1,0-.22.1-.24.19a.28.28,0,0,0,0,.09.67.67,0,0,0,.36.42.94.94,0,0,0,.4.13.47.47,0,0,0,.39-.18A.5.5,0,0,0,248.72,243Z" transform="translate(-236.54 -238.23)"/><path class="cls-122" d="M248.75,243.39a.25.25,0,0,0,.15.15.6.6,0,0,0,.51,0,.48.48,0,0,0,.32-.38.45.45,0,0,0,0-.11c-.05-.12-.21-.16-.35-.16a.32.32,0,0,1-.14,0c-.06,0-.09-.07-.14-.11-.16-.19-.26,0-.29.16S248.69,243.26,248.75,243.39Z" transform="translate(-236.54 -238.23)"/><path class="cls-123" d="M249.84,242.9a.56.56,0,0,1,0,.13,1.21,1.21,0,0,0-.05.18c0,.1.09.18.19.2a.93.93,0,0,0,.33,0l.14,0a.41.41,0,0,0,.11-.12.9.9,0,0,0,.18-.4.38.38,0,0,0-.13-.39.35.35,0,0,0-.42,0l-.1.12C250,242.68,249.86,242.77,249.84,242.9Z" transform="translate(-236.54 -238.23)"/><path class="cls-124" d="M251.21,242.35a.39.39,0,0,0-.39.16c-.06.11,0,.24,0,.36l-.07.19a.28.28,0,0,0,0,.2.68.68,0,0,0,.48-.22.6.6,0,0,0,.15-.49A.27.27,0,0,0,251.21,242.35Z" transform="translate(-236.54 -238.23)"/><path class="cls-125" d="M251.41,241.61a.07.07,0,0,0-.06,0,.22.22,0,0,0,0,.08c0,.17-.12.33-.09.49a.24.24,0,0,0,.06.11.13.13,0,0,0,.12,0,.85.85,0,0,0,0-.68A.06.06,0,0,0,251.41,241.61Z" transform="translate(-236.54 -238.23)"/><path class="cls-126" d="M251.63,241.18a.15.15,0,0,0,0-.07c0-.1,0-.2-.07-.3a.46.46,0,0,0-.07-.16.17.17,0,0,0-.14-.07c-.26,0-.24.53-.22.68s.15.35.36.28A.31.31,0,0,0,251.63,241.18Z" transform="translate(-236.54 -238.23)"/><path class="cls-127" d="M246.38,240.35a.2.2,0,0,0-.17,0,.43.43,0,0,0-.12.11,1,1,0,0,0-.06.89.39.39,0,0,0,.25.22.19.19,0,0,0,.18,0s0-.11,0-.17a1.42,1.42,0,0,1-.09-.64,1.52,1.52,0,0,0,.06-.2A.17.17,0,0,0,246.38,240.35Z" transform="translate(-236.54 -238.23)"/><path class="cls-128" d="M246.88,242.64l0,0a.05.05,0,0,0,0-.05.9.9,0,0,0-.22-.76.1.1,0,0,0,0,0h-.05c-.21,0-.45-.1-.5.13a.79.79,0,0,0,.06.43.61.61,0,0,0,.07.14.42.42,0,0,0,.15.11A.69.69,0,0,0,246.88,242.64Z" transform="translate(-236.54 -238.23)"/><path class="cls-129" d="M247.46,243.7a.31.31,0,0,0,.16.06.25.25,0,0,0,.22-.18.32.32,0,0,0-.11-.25,2.15,2.15,0,0,0-.24-.18.73.73,0,0,1-.23-.29.22.22,0,0,0-.18-.14c-.3,0-.32.36-.22.52a.53.53,0,0,0,.13.13A4,4,0,0,0,247.46,243.7Z" transform="translate(-236.54 -238.23)"/><path class="cls-130" d="M248.12,243.5c-.14.06-.25.17-.2.34a.27.27,0,0,0,.19.18l.13,0a1.19,1.19,0,0,0,.53,0,.24.24,0,0,0,.16-.18c0-.11-.13-.17-.22-.24a.64.64,0,0,0-.18-.1A.72.72,0,0,0,248.12,243.5Z" transform="translate(-236.54 -238.23)"/><path class="cls-131" d="M249.09,243.84a.17.17,0,0,0,0,.17l.08.05a.63.63,0,0,0,.36,0,2.47,2.47,0,0,0,.36-.11l.09,0a.25.25,0,0,0,0-.13.24.24,0,0,0,0-.22l-.1,0a.58.58,0,0,0-.19,0C249.57,243.52,249.16,243.66,249.09,243.84Z" transform="translate(-236.54 -238.23)"/><path class="cls-132" d="M250.63,243.77c.21-.08.39-.24.29-.37a.26.26,0,0,0-.23-.06c-.17,0-.62.14-.52.37S250.45,243.84,250.63,243.77Z" transform="translate(-236.54 -238.23)"/><path class="cls-133" d="M251.59,242.32s0,0-.05,0a.24.24,0,0,0-.09.16,1.08,1.08,0,0,0,0,.18,1.11,1.11,0,0,1-.36.6c-.12.12.1,0,.15,0a.76.76,0,0,0,.3-.26,1,1,0,0,0,.09-.64S251.62,242.32,251.59,242.32Z" transform="translate(-236.54 -238.23)"/><path class="cls-134" d="M251.72,241.52s-.1,0-.13,0a.19.19,0,0,0,0,.15,2.27,2.27,0,0,0,0,.52s.06,0,.07-.08a1.82,1.82,0,0,0,.09-.56A.1.1,0,0,0,251.72,241.52Z" transform="translate(-236.54 -238.23)"/><path class="cls-135" d="M246.66,242.77c0-.05-.08-.09-.19-.11s.08.61.15.67a.79.79,0,0,0,.18.14l.18.11s0,0,.07,0a0,0,0,0,0,0-.06s0,0,0,0a.75.75,0,0,1-.33-.47A.69.69,0,0,0,246.66,242.77Z" transform="translate(-236.54 -238.23)"/><path class="cls-136" d="M247.69,243.89c.09,0,.25,0,.2.15s-.36,0-.44-.08-.3-.18-.28-.27.12,0,.17,0A1,1,0,0,0,247.69,243.89Z" transform="translate(-236.54 -238.23)"/></g><g class="cls-74"><path class="cls-137" d="M248.63,242.18c-.48,0-.35-.56,0-.68a.36.36,0,0,1,.33.11c.08.06.05.08,0,.18S248.85,242.15,248.63,242.18Z" transform="translate(-236.54 -238.23)"/><path class="cls-138" d="M249.44,241.38c-.09,0-.21-.18-.28-.24a2.07,2.07,0,0,0-.34-.15c-.06,0,.12-.32.14-.35s.32-.12.49,0,.26.17.22.35S249.6,241.36,249.44,241.38Z" transform="translate(-236.54 -238.23)"/><path class="cls-139" d="M250.1,240.48c-.07-.11-.24-.18-.28-.3s0-.3.1-.31c.27,0,.38.64.21.65C250.11,240.52,250.11,240.49,250.1,240.48Z" transform="translate(-236.54 -238.23)"/><path class="cls-140" d="M248.58,240.13a.6.6,0,0,1-.08-.41c.05-.16.14-.17.28-.24a.34.34,0,0,1,.4.07c.11.11.18.37.08.47a2,2,0,0,1-.68.11C248.47,239.9,248.59,240.14,248.58,240.13Z" transform="translate(-236.54 -238.23)"/><path class="cls-141" d="M249.67,239.33c-.09-.05-.1-.18-.09-.28s.12-.22.23-.08.2.34.09.34S249.73,239.37,249.67,239.33Z" transform="translate(-236.54 -238.23)"/><path class="cls-142" d="M248.21,239c-.05,0-.29,0-.25-.09s.26-.24.41-.31,1.07,0,.71.24S248.52,239,248.21,239Z" transform="translate(-236.54 -238.23)"/><path class="cls-143" d="M249.44,238.48s-.09-.12-.08-.14.28,0,.25.1-.11,0-.17,0Z" transform="translate(-236.54 -238.23)"/><path class="cls-144" d="M250.45,239.07c-.06.07-.2,0-.14-.13s.18.08.14.13Z" transform="translate(-236.54 -238.23)"/><path class="cls-145" d="M250.69,240c-.1-.07-.25-.42-.18-.45s.29.51.18.45S250.7,240,250.69,240Z" transform="translate(-236.54 -238.23)"/><path class="cls-146" d="M250.33,241.82c-.05,0-.17-.19-.2-.24a.73.73,0,0,1,.07-.5C250.47,240.8,250.73,241.83,250.33,241.82Z" transform="translate(-236.54 -238.23)"/><path class="cls-147" d="M248.09,241.11c-.42,0-.48-.69-.2-.86S248.48,241.06,248.09,241.11Z" transform="translate(-236.54 -238.23)"/><path class="cls-148" d="M249.42,242.43c-.29,0,0-.64.18-.47s.23.14.25.25S249.56,242.42,249.42,242.43Z" transform="translate(-236.54 -238.23)"/><path class="cls-149" d="M247.37,239.86c-.18.06-.09-.28,0-.35s.33,0,.35.12S247.49,239.82,247.37,239.86Z" transform="translate(-236.54 -238.23)"/><path class="cls-150" d="M246.84,239.75c-.06-.18,0-.58.18-.49s-.07.21-.1.32-.07.22-.08.17Z" transform="translate(-236.54 -238.23)"/><path class="cls-151" d="M247,240.9c-.35,0,0-.8.19-.51.07.12-.08.26-.11.4s0,.11-.08.11Z" transform="translate(-236.54 -238.23)"/><path class="cls-152" d="M247.48,242c-.18,0-.38-.44-.33-.59s.16-.07.23,0,.32.07.37.21-.11.2-.14.32S247.54,242,247.48,242Z" transform="translate(-236.54 -238.23)"/><path class="cls-153" d="M248.36,243a.59.59,0,0,1-.4-.14c-.1-.07-.22-.15-.07-.21s.17,0,.25.09.31,0,.4.09S248.47,243,248.36,243Z" transform="translate(-236.54 -238.23)"/><path class="cls-154" d="M249.11,243.28a.34.34,0,0,1-.26-.06s0-.22.05-.22a.36.36,0,0,1,.46.1C249.41,243.19,249.21,243.27,249.11,243.28Z" transform="translate(-236.54 -238.23)"/><path class="cls-155" d="M250.07,243s0,0,0,0,0-.21.09-.29.19-.29.29-.27,0,.26,0,.33A.35.35,0,0,1,250.07,243Z" transform="translate(-236.54 -238.23)"/><path class="cls-156" d="M251.08,242.63c-.1,0-.05-.34.07-.26s0,.29-.07.26Z" transform="translate(-236.54 -238.23)"/><path class="cls-157" d="M251.41,241.08c-.09,0-.12-.26,0-.27s.12.26,0,.27Z" transform="translate(-236.54 -238.23)"/><path class="cls-158" d="M246.82,242.26c-.18.18-.54-.26-.36-.42s.2,0,.25.08.19.26.11.34Z" transform="translate(-236.54 -238.23)"/><path class="cls-159" d="M247.14,243c-.06-.05-.18-.18-.08-.19s.24.18.17.26-.06,0-.09-.07Z" transform="translate(-236.54 -238.23)"/></g></g></g></g></g></svg>